<svg version="1.1" viewBox="0 0 204.4 177.4" xmlns="http://www.w3.org/2000/svg">
 <defs>
  <style>.cls-1{fill:#fff;}.cls-2{fill:#fefefe;}.cls-3{fill:#3f2222;}.cls-4{fill:#d4e5e0;}.cls-5{fill:#0e0c0c;}.cls-6{fill:#c3dfdc;}.cls-7{fill:#bad2ce;}.cls-8{fill:#aacdc7;}.cls-9{fill:#eef2f2;}.cls-10{fill:#c5dcd3;}.cls-11{fill:#d7e8e2;}.cls-12{fill:#020202;}.cls-13{fill:#b0d0cb;}.cls-14{fill:#1d0f0e;}.cls-15{fill:#0f1010;}.cls-16{fill:#a2c8c2;}.cls-17{fill:#b9d7d2;}.cls-18{fill:#2b2c2c;}.cls-19{fill:#98bfb8;}.cls-20{fill:#040303;}.cls-21{fill:#080807;}.cls-22{fill:#b9d6d1;}.cls-23{fill:#a6cbc5;}.cls-24{fill:#a8ccc6;}.cls-25{fill:#a0c7c1;}.cls-26{fill:#a9ccc6;}.cls-27{fill:#d6e6e0;}.cls-28{fill:#cbdcd6;}.cls-29{fill:#091f1f;}.cls-30{fill:#c6ded6;}.cls-31{fill:#3b2e2d;}.cls-32{fill:#ebecec;}.cls-33{fill:#312e2e;}.cls-34{fill:#cee0da;}.cls-35{fill:#0d0d0d;}.cls-36{fill:#151213;}.cls-37{fill:#bfd8cf;}.cls-38{fill:#c5d9d2;}.cls-39{fill:#151212;}.cls-40{fill:#141111;}.cls-41{fill:#343030;}.cls-42{fill:#829797;}.cls-43{fill:#624040;}.cls-44{fill:#a8ccc7;}.cls-45{fill:#b2cfca;}.cls-46{fill:#2d3e3e;}.cls-47{fill:#9ac2bb;}.cls-48{fill:#a4c9c3;}.cls-49{fill:#9bc3bc;}.cls-50{fill:#d3e3de;}.cls-51{fill:#251818;}.cls-52{fill:#f6e9ec;}.cls-53{fill:#99c2bb;}.cls-54{fill:#a8cbc6;}.cls-55{fill:#a3c8c2;}.cls-56{fill:#accec9;}.cls-57{fill:#a1c7c1;}.cls-58{fill:#c1dbd8;}.cls-59{fill:#b1d1cc;}.cls-60{fill:#b9d7d3;}.cls-61{fill:#a3c4be;}.cls-62{fill:#b0d0ca;}.cls-63{fill:#c4ddd9;}.cls-64{fill:#c4dcd2;}.cls-65{fill:#b7d4cf;}.cls-66{fill:#bfdcd8;}.cls-67{fill:#b8d6d1;}.cls-68{fill:#abccc6;}.cls-69{fill:#cbded8;}.cls-70{fill:#b4d3ce;}.cls-71{fill:#a2c9c3;}.cls-72{fill:#aed0ca;}.cls-73{fill:#b5d5d0;}.cls-74{fill:#aacec8;}.cls-75{fill:#cde0de;}.cls-76{fill:#c0dbd8;}.cls-77{fill:#b7d6d2;}.cls-78{fill:#bdd9d5;}.cls-79{fill:#9ec5bf;}.cls-80{fill:#c2deda;}.cls-81{fill:#c3dad8;}.cls-82{fill:#b3d3cf;}.cls-83{fill:#191818;}.cls-84{fill:#2c2d2d;}.cls-85{fill:#342121;}.cls-86{fill:#b3d2cd;}.cls-87{fill:#aacac5;}.cls-88{fill:#adcec9;}.cls-89{fill:#c5ddda;}.cls-90{fill:#bad6d2;}.cls-91{fill:#d4e6e0;}.cls-92{fill:#bdd3ca;}.cls-93{fill:#a1b3af;}.cls-94{fill:#350b0a;}.cls-95{fill:#cee1da;}.cls-96{fill:#e2efee;}.cls-97{fill:#d4e6e3;}.cls-98{fill:#1c1c1c;}.cls-99{fill:#bbd7d3;}.cls-100{fill:#c8e0dd;}.cls-101{fill:#151211;}.cls-102{fill:#101111;}.cls-103{fill:#6c7572;}.cls-104{fill:#c9dfd7;}.cls-105{fill:#bed8cd;}.cls-106{fill:#d0e3dd;}.cls-107{fill:#1d1a1a;}.cls-108{fill:#a7c5ba;}.cls-109{fill:#9ebcb8;}.cls-110{fill:#dee7e6;}.cls-111{fill:#774848;}.cls-112{fill:#b0cbc0;}.cls-113{fill:#d1e5e2;}.cls-114{fill:#c5dddb;}.cls-115{fill:#a3c9c3;}.cls-116{fill:#9cc3bd;}.cls-117{fill:#360101;}.cls-118{fill:#4f8383;}.cls-119{fill:#0f0d0d;}.cls-120{fill:#080707;}.cls-121{fill:#96c5be;}.cls-122{fill:#92a19d;}.cls-123{fill:#c7dfdc;}.cls-124{fill:#d9e9e7;}.cls-125{fill:#c7dfdb;}.cls-126{fill:#534343;}.cls-127{fill:#a7c9c4;}.cls-128{fill:#2b2e2e;}.cls-129{fill:#c6dfdc;}.cls-130{fill:#bbd8d4;}.cls-131{fill:#a0c6c0;}.cls-132{fill:#0d0b0b;}.cls-133{fill:#b9d8d3;}.cls-134{fill:#d2e6e3;}.cls-135{fill:#cfe4e1;}.cls-136{fill:#c4deda;}.cls-137{fill:#c7e0dd;}.cls-138{fill:#d2e5e2;}.cls-139{fill:#cae0dd;}.cls-140{fill:#deeceb;}.cls-141{fill:#0a0a0a;}.cls-142{fill:#151313;}.cls-143{fill:#b6cbc9;}.cls-144{fill:#b5d4d0;}.cls-145{fill:#b6c5c3;}.cls-146{fill:#1f090b;}.cls-147{fill:#1b1a1a;}.cls-148{fill:#121212;}.cls-149{fill:#141010;}.cls-150{fill:#cbdad9;}.cls-151{fill:#ebf4f4;}.cls-152{fill:#131010;}.cls-153{fill:#a8cdc6;}.cls-154{fill:#d0dcda;}.cls-155{fill:#0e0d0d;}.cls-156{fill:#c0ddd9;}.cls-157{fill:#bcc9c7;}.cls-158{fill:#c2dad6;}.cls-159{fill:#d1e4e1;}.cls-160{fill:#dbebe9;}.cls-161{fill:#e7f2f1;}.cls-162{fill:#100e0f;}.cls-163{fill:#130f10;}.cls-164{fill:#1e191a;}.cls-165{fill:#57605f;}.cls-166{fill:#c0d3d0;}.cls-167{fill:#a5c0be;}.cls-168{fill:#e3e0df;}.cls-169{fill:#f0f3f3;}.cls-170{fill:#dfeceb;}.cls-171{fill:#e4f1f1;}.cls-172{fill:#dcecea;}.cls-173{fill:#e0edec;}.cls-174{fill:#bed4d2;}.cls-175{fill:#e1ebea;}.cls-176{fill:#deeae9;}.cls-177{fill:#cbe0dd;}.cls-178{fill:#d9e0e0;}.cls-179{fill:#d1e5e3;}.cls-180{fill:#5d6464;}.cls-181{fill:#edf4f4;}.cls-182{fill:#d4e2e0;}.cls-183{fill:#deeae8;}.cls-184{fill:#d8e8e6;}.cls-185{fill:#dfedec;}.cls-186{fill:#d3e8e5;}.cls-187{fill:#090a0a;}.cls-188{fill:#d9eae8;}.cls-189{fill:#d2e7e5;}.cls-190{fill:#323433;}.cls-191{fill:#e5f1f0;}.cls-192{fill:#cfe3e0;}.cls-193{fill:#c3cdcc;}.cls-194{fill:#618b88;}.cls-195{fill:#91bbb9;}.cls-196{fill:#98b8b5;}.cls-197{fill:#ebf1f1;}.cls-198{fill:#110d0e;}.cls-199{fill:#e3f0ef;}.cls-200{fill:#e3e9e8;}.cls-201{fill:#dae1e1;}.cls-202{fill:#202020;}.cls-203{fill:#e8f3f2;}.cls-204{fill:#181515;}.cls-205{fill:#141414;}.cls-206{fill:#0b0a0b;}.cls-207{fill:#181617;}.cls-208{fill:#4e0f11;}.cls-209{fill:#574242;}.cls-210{fill:#e3e6e5;}.cls-211{fill:#d2dbda;}.cls-212{fill:#eef5f4;}.cls-213{fill:#92aaaa;}</style>
 </defs>
 <title>etrevoisin</title>
 <g data-name="Layer 2">
  <g>
   <path class="cls-1" d="m18.3 124.9a12.6 12.6 0 012.8.5 11.9 11.9 0 013.3 2.6c1 1 .6 2.3.3 3.6s.3 1.7 1.3 1.3 2.7.1 3.9 1a2.1 2.1 0 003-.2c2-2.4 4.9-3.5 7.4-5.2s4-2.4 6.1-2.2 2.9-1.2 3.8-2.4-.4-1.4-.6-1.4c-3.2.1-6.6-1.6-9.6 1-.6.5-1.8.4-2.7.4h-7.2c-3.6 0-4.7-1.1-5.1-4.7v-1a2.4 2.4 0 012.2-.8c5.3 1.4 10.4 1.6 15.8-.7 3.1-1.3 6.7 1.5 10.1 2.4s4.3 1.9 6.5 2.8a4 4 0 011.2 1c.7 2.1-.8 2.8-2.4 3.1a11.6 11.6 0 00-5.5 3.1c-6.3 1.6-12.5 3.2-17.1 8.2-.9 1.1-2.5 1.1-4 .9s-5.3-2.1-8.1-2.7a2.8 2.8 0 01-2.4-2.1c-.2-2.5-2.1-3.8-3.4-5.6a2.4 2.4 0 01.4-2.9z"/>
   <path class="cls-1" d="m112.4 52.9a9.2 9.2 0 01-6.2 1.9c-3.6.1-7.3-.2-10.9.9s-4.7-.4-6.8-1.5a2.7 2.7 0 00-3-.1c-2.2 1.2-4.6 2.3-7.2 1.1a1.6 1.6 0 00-2.1 1.4 30.1 30.1 0 000 5.2 15.5 15.5 0 00.6 2.3c.4 3.3 1.2 6.4.3 9.8s-.2 6.4-.2 9.5 0 5.8-.1 8.6a2.8 2.8 0 01-2.8 3.2c-2.4-3.3-1-7.1-1.3-10.7a53.7 53.7 0 01-.1-5.7v-2.5c0-.8.1-1.5.1-2.3v-5.3c-.1-3.2.7-6.5-.9-9.6l-.8-1.2-.9-1.2-.3-.7c-1.1-4.5 2.1-4.8 5.2-5.2s6.3.8 8.7-2.2c.9-.4 2-.9 2.8-.5 7.5 3.9 15.8 1.2 23.6 2.7a6.7 6.7 0 011.8.7 1.4 1.4 0 01.5 1.4z"/>
   <path class="cls-1" d="m133.5 74c-.8-.1-1.7-.3-1.7-1.3a4.2 4.2 0 01.6-2.6 10.5 10.5 0 013.9-1.7c1-.3 2.2 0 3.3-.2a11.1 11.1 0 004.1-.8 12.5 12.5 0 018.9-.6c2.8.8 5.3.9 7.5-1.5a8.1 8.1 0 012.9-1.6l11.6-4.4a7.1 7.1 0 016.9.4 13 13 0 006.2 2c2.8.2 4.3 3.6 3 6.3a2.7 2.7 0 01-2.5 1.2c-1.3-.7-1.7-2.2-2.9-3l-1.4-1.1a7.2 7.2 0 00-2.1-1.2c-2-1.3-4.1-.9-6.2 0l-1.2.4a16.1 16.1 0 00-4.7 1.5l-1.2.4c-2.7.4-4.8 2.2-7.2 3.3l-1.2.5a36.2 36.2 0 00-4 1.9 6.2 6.2 0 01-3.3 0c-3.2-2.1-6.2-1-9.1.6h-1.3a8.1 8.1 0 00-3.1.1 4.1 4.1 0 01-2.2.1c-.4 0-.5-.9-1.2-.4l-.8.6a5.4 5.4 0 01-1.6 1.1z"/>
   <path class="cls-2" d="m107.6 102.8c0 3-.2 6.1 1.1 8.9a2.2 2.2 0 010 1.8 45.4 45.4 0 01-3.9 4.8 3.3 3.3 0 01-2.2.8c-1.8.1-3.7 0-5.9 0 3.1 2.6 3.1 2.5 6 2.2a57.7 57.7 0 017.2-.1 2.1 2.1 0 012.2 1.5c.2 2 2.3 2 3.2 3.1l-.6.6a3.8 3.8 0 01-3.6 0c-4.7-2.7-9.8-2-14.8-2.1a16.3 16.3 0 01-3.1-.3c-3.2-.7-6.4-1.1-9.6-.1l-3.8.6a16.1 16.1 0 01-9.7.1 5.8 5.8 0 014.6-7.6 52.8 52.8 0 015.6-.1h17.5c1.4-.1 3.2.8 4.2-1.2a6.2 6.2 0 01-.1-1.3c.4-3 .5-6 1.1-9a2.8 2.8 0 011-.9 1.3 1.3 0 011.2.5c.7 1.5.3 3 .5 4.5v-3.6c-.1-2.3-1-4.7.7-6.8 1.8-.3 1.8.5 1.2 1.8z"/>
   <path class="cls-2" d="m59.5 123a12.1 12.1 0 01-1.8-.5c-3.1-1.6-6.5-2.5-9.7-3.7s-5.7-1.5-8.7.6-4.9.9-7.4.3l-6.9-1.5h-2.9c-2.3.6-4.4-.7-4.1-2.5.8-4.1-.9-7.8-.9-11.8a4.4 4.4 0 011.2-3v-1.9a5 5 0 010-6.7v-6.8a8.3 8.3 0 01-1.9-8.6c0-3.2 0-6.4-.1-9.6a1.4 1.4 0 01.2-2.1 1.8 1.8 0 011.4.8c2.4 9.4 2.8 19.1 3.5 28.8.4 5.7 1.2 11.4 1.1 17.1-.1 3.2 1.4 3.7 4.2 3.4 5.5-.7 11.1-.3 16.6-.9 5.3 2.8 11.9 2.6 16.4 7.2a1.1 1.1 0 01-.2 1.4z"/>
   <path class="cls-1" d="m157.5 52.9a20.2 20.2 0 01-.7 2.3 3.6 3.6 0 01-4.1 2.5 15.2 15.2 0 00-7 1.2 7.8 7.8 0 01-6 .1 12 12 0 00-9.3-.5c-1.4.5-3.2.2-4.8.2s-4.1-1.3-4.6-4.4v-1.4c.2-.1.3-.3.4-.2 5.3 3 10.5.9 15.8-.4 5.3 4 10.9.7 16.3.4 1.4 0 2.7-1 4 .2z"/>
   <path class="cls-2" d="m157.5 52.9c-.9.2-2 .1-2.7.6a4.1 4.1 0 01-4.8.6 2.9 2.9 0 00-2.1.5c-3.4 2.1-6.5 1.6-9.6-.7l-1-1 .5-.5a6.6 6.6 0 012-.6h1.4a27.5 27.5 0 007.5-.9c2.9 0 5.7-.3 8.5-.4a31.4 31.4 0 008.1-.1 12.3 12.3 0 009-1.2c4-1.6 6.7-5.5 11-6.8-.6 1.5-1 3-1.7 4.4a4 4 0 01-1.8 1.3c-.7.4-1.8.3-2.2.8-2 2.5-4.9 3.1-7.7 4.1z"/>
   <path class="cls-2" d="m185.4 111.5a6.1 6.1 0 000 1.9c.3.6.7 1.5 1.2 1.7a9 9 0 004.1 1.1c2.3-.4 4.7.2 7-.6s3.1-.2 4.7-.2 1.9.4 2 1.5a2.4 2.4 0 01-1.3 2.8c-1.9.5-3.7 1.3-5.5 1.3a36.1 36.1 0 00-6.6.1c-1.8.3-3.4-1.6-5-.4s0 3.2-1.6 4.2l-.5-.5c-.8-2.1-1.7-4.3.8-5.9a6.1 6.1 0 012.3-.3h14.7c.4.3-.2.6.2.2s-.1-.5-.5-.4h-8.5c-2.1-.1-4.3.1-6.4-.2a5 5 0 01-2.7-2c-1.3-3-.6-6.2-.7-9.3s-1.3-5.8 2-7.7c1.5 1.2 1.1 2.5.2 3.8 0 3.1.1 6 .1 8.9z"/>
   <path class="cls-1" d="m185.3 102.8v-3.8c0-.3-.1-.5-.1-.8-.7-5 1.3-9.8.9-14.8l.3-1.4a6.4 6.4 0 011.8-3.2c2 .2 2.7 1.8 2.8 3.4.1 4.3.9 8.8-1.7 12.8a5.8 5.8 0 00-1 3.6c.2 2.4-1.1 3.5-3 4.2z"/>
   <path class="cls-1" d="m2.9 136.4c-.4-.1-1-.1-1.3-.4a6.3 6.3 0 01-.4-7.9c1-1.4 1.5-3.3 2.8-4.3s2.9-.8 4.4-1.3a14 14 0 001.6-1 4.6 4.6 0 014.1 0c1.4.8 1.3 2.1 1.3 3.4a2.2 2.2 0 01-.9.7 3.7 3.7 0 01-1.8-.1 5 5 0 00-2.7.2 9.6 9.6 0 00-3.2 1.2c-2.5 1.9-1.3 5-2.2 7.5a3.7 3.7 0 01-1.7 2z"/>
   <path class="cls-1" d="m18.3 100.9a19.7 19.7 0 001.3 9.3 3.4 3.4 0 01-.5 3.9c-.8 1.3-.6 2 .5 2.8l2.5 1.3c-.1 1.1-.5 1.8-1.7 1.9s-2.8.1-3.4-1.2-1.7-2.8-1.1-4.5a8.5 8.5 0 000-4.2 36 36 0 01-.4-6.6c0-1.7 1.1-2.6 2.8-2.7z"/>
   <path class="cls-1" d="m102.6 72.1a8.1 8.1 0 01-2.1-1c-2.2-2.2-2.1-9 .1-11.7a4.6 4.6 0 017.8 1.2 12.1 12.1 0 01.5 1.8c.2 1.4-.2 2-2.3 3a5.8 5.8 0 01-1.8-2.3l-.7-.8c0 .1-.5-.1-.5-.1h-.4a2.7 2.7 0 00-.7.8c-.1 1.8.6 3.5 1 5.3a6.8 6.8 0 01.2 2c-.2.8-.4 1.5-1.1 1.8z"/>
   <path class="cls-2" d="m133.5 74c.1-1.3.7-1.9 2.1-1.6 1.3 3 .2 6 .2 9 .2 9.2 0 18.4.1 27.6.1 6.7-1.2 7.7-7.8 5.8-.8-2 .3-1.8 1.6-1.4h1.9a1.7 1.7 0 001.8-1.7c.1-1.3.1-2.5.1-3.8z"/>
   <path class="cls-1" d="m102.8 95.2a4.8 4.8 0 01-2.9-5.1c.1-1.7 0-3.5 0-5.3s.9-2.9 2.9-3.1 1.4 2.1 1.8 3.3a18.2 18.2 0 010 7.7 4.1 4.1 0 01-1.8 2.5z"/>
   <path class="cls-1" d="m103.7 104.7a30.8 30.8 0 01-1 10.5 1.7 1.7 0 01-2.8-.1c0-2.7.1-5.3 0-7.9s.7-4.2 2.9-5.3c1 .7 1 1.7.9 2.8z"/>
   <path class="cls-1" d="m129.7 113.4-2 1a2.4 2.4 0 01-1.8.9c-3.1.3-6.3-1.7-9.4.2a1.3 1.3 0 01-1.2-.3c-.4-2.9 1.6-4.1 3.9-4.5a38.6 38.6 0 017.6 0 3.1 3.1 0 012.9 2.7z"/>
   <path class="cls-2" d="m137.3 52.9c-1.4.6-2.9 1.1-4.3 1.8a10.8 10.8 0 01-5 1.1c-1.9 0-3.8.1-4.9-2-.3-.5-1.4-.6-2.1-.9h-1.9c-1.3-.1-1-.7-.4-1.4s3.5-.7 5.3-.4 5 0 7.5-.3 3.8-.3 5.5.7a1 1 0 01.4 1.3z"/>
   <path class="cls-2" d="m74 77.9v32.6c.7 1.1.9 2.2-.5 3-3.2-2.6-1.2-6.1-1.8-9.2-.1-7-.2-14-.1-21 0-2-.7-4.6 2.4-5.4z"/>
   <path class="cls-1" d="m74 113.4v-2.9a24.1 24.1 0 013.8.1c2.7.4 5.2 1.5 5.9 4.6l-.4.5a4.1 4.1 0 01-3.4.3c-1.9-.6-4-.6-5.6-2z"/>
   <path class="cls-3" d="m115.3 115.2h.9c1.9-1.2 3.9-.9 5.8-.6s6.5.4 9.8.7c1.8.2 3.7-.5 5.4.7s-.3 1.6-1.2 1.9c-5.4-.2-10.7-.6-16.1.3a15.5 15.5 0 01-6.1-.3c-1.8-.3-2-1.4-.5-2.5h2z"/>
   <path class="cls-2" d="m2.9 136.4.9-2 .5.4a7.7 7.7 0 01.8 4.2c.3 6.1.3 6.1 6.4 6.3a2.2 2.2 0 011 .9c-2 2-4.5 1.8-7 1.7a3.1 3.1 0 01-2.6-1.9z"/>
   <path class="cls-1" d="m18.3 92.3v6.7a9.5 9.5 0 01-1.8-.5c-1.9-.9-2.3-1.8-2-3.7s1.2-2.4 2.9-2.5z"/>
   <path class="cls-2" d="m153.6 2.1h6.8c3.9-.4 7.2.6 9.6 3.8-2.8 1.6-5-1-7.6-1a13.2 13.2 0 00-4.4-.5c-1.7-.4-3.9.2-4.4-2.3z"/>
   <path class="cls-2" d="m107.6 79.8v14.4c1 1.7 1.6 3.2-1.3 3.6-1.8-6.5-1.4-13-.2-19.5.5-.6 1.1-.7 1.5-.2s.3 1.1 0 1.7z"/>
   <path class="cls-2" d="m99.9 115.1h2.8v.2c0 .3-.1.9-.2.9a39.8 39.8 0 01-18.8 0c-.2 0-.2-.6-.3-.9l.2-.2z"/>
   <path class="cls-1" d="m16.4 76.9c.6 2.9 1.2 5.8 1.9 8.6a2.6 2.6 0 01-2.8-2 29.9 29.9 0 00-.8-3.2 2.7 2.7 0 011.7-3.4z"/>
   <path class="cls-2" d="m188.2 78.8c0 1.1.2 2.2-.9 2.9-1.7-1.6-1.3-3.8-1.3-5.8a64.9 64.9 0 00-.9-9.8l.3-.7c2.3.3 2.5 2.1 2.8 3.8v2.9a2.9 2.9 0 010 3.9z"/>
   <path class="cls-1" d="m106.5 98c1.6-.9.9-2.5 1.1-3.8 2 .2 2.7 1.8 2.7 3.4a3 3 0 01-2.7 3.3 17.4 17.4 0 01-1-1.9 1.1 1.1 0 01-.1-1z"/>
   <path class="cls-2" d="m104.6 61.7c1.5.8 1.8 2.2 2 3.7s.1 5.8.2 8.6a2.6 2.6 0 010 3 1.1 1.1 0 01-1.4-.1c-1-1.3-.9-2.8-1-4.4v-2.1a16.2 16.2 0 00-.3-5.4 5 5 0 01-.1-2.1 3.4 3.4 0 01.6-1.2z"/>
   <path class="cls-2" d="m103.8 84.6c-1.2-.7-1-1.8-1-2.9-.1-3.2-.1-6.4-.2-9.6l.3-2.2a1.5 1.5 0 011.4.7c.7 1.9.3 3.9.4 5.8s1.1 5.7-.9 8.2z"/>
   <path class="cls-1" d="m106.5 77.1.3-3.1a2.7 2.7 0 012.5 1.8c.3 1.2.5 2.5-.4 3.5s-.9.3-1.3.5l-1-1.9-.3-.4z"/>
   <path class="cls-2" d="m103.7 104.7c-1.1-.7-.9-1.8-.9-2.8v-6.7a18.6 18.6 0 011-2 12.4 12.4 0 01.1 11.4z"/>
   <path class="cls-1" d="m118.2 51.9.9 1c-.4.5-.6 1.1-1.1 1.4s-2 .5-2.7-1.4a1.8 1.8 0 01.4-1 3.1 3.1 0 011-.5 2.1 2.1 0 011.1.1z"/>
   <path class="cls-1" d="m188.2 76v-3.9a1.8 1.8 0 011.9 2.2c-.1 1.1-.9 1.5-1.9 1.7z"/>
   <path class="cls-2" d="m15.4 63.5 2.9-2 .4.6c.3 1.7-.7 2.6-2.1 3.1l-.3.3c-.4.3-.6.2-.9-.1z"/>
   <path class="cls-2" d="m14.5 124.9h3.8v2.9l-.6.2a9.4 9.4 0 01-2.8-1.5c-.4-.4-.8-.9-.4-1.6z"/>
   <path class="cls-2" d="m116.1 51.9-.8 1h-2.9v-.9a1.2 1.2 0 01.5-.5 2.6 2.6 0 013.2.4z"/>
   <path class="cls-1" d="m15.4 65.4h.9v1.8c-.5-.4-2.1-.5-.9-1.8z"/>
   <path class="cls-4" d="m136.3 117.3 1.1-.8a23.5 23.5 0 01-.4-6.5v-10.9c.1-2-.2-4 .8-5.9 3.7-2.4 5-1.9 5.6 2.1.3 2.2-.2 4.4.5 6.5a25.5 25.5 0 011.3 6.1c.2 3.5-1.5 7.7 3.6 9.5 1 .3 1.4 2.1 1.3 3.4a.9.9 0 01-1.2.4h-1c-2.4 1-5 .6-7.3.3s-4.9-.8-4.3-4.2z"/>
   <path class="cls-2" d="m165.9 130.9 7.7-.2a2.9 2.9 0 011.9 1.1 53.7 53.7 0 012.9 6.5 2.5 2.5 0 01-.7 3l-.5-.4a57 57 0 00-3-5.4c-.3-.5-.5-1.1-.8-1.7s-1.6-1.1-2.4-.2.1 1.7.8 2.3 3.7 3.1.4 5c1.5 1.2 2.9.3 4.1.9l.5.4a3.4 3.4 0 01-3.1 1.9c-1.6 0-3.3.2-4.4-1.2a2.8 2.8 0 00-3.4-.9c-1.3-1.4-1.5-3.1-2-4.8a6.7 6.7 0 002 4.8 2.2 2.2 0 01-1.8 2l-4.5 1.4a28.3 28.3 0 01-4.2.6c-1.7 0-2.5-1.1-2.8-2.7l.6-.4h.9c2.3.8 4.5.9 5.9-1.3s-1.6-6.3-3.8-7.1l-1.3-.6a1 1 0 00-.4-.5c1.2-1.2 2.7-.9 4-.9s3.1-.4 3.9-2.1a2.4 2.4 0 01.9-1.1 3.5 3.5 0 011.7-.4c1 .2 1 1.1.9 1.9z"/>
   <path class="cls-5" d="m146.9 134.5.3.3.3-.2c3.8 1.4 4.5 4.2 3.4 7.6-.4 1.2-.8 2.8-2.3 2.9s-.8-1.7-1.3-2.6-1.4-2.2-2.4-.6c-3.6 5.7-3.9 0-5.5-1.5-1.4.2-1 2.2-2.2 2.6-.6 1.1-1.2 2.2-2.6.9-1.5-2.2.1-4.9-1-7.1.3-2.5 2.5-1.7 3.9-2.3 2.5-2 5 .6 7.6-.1a1.1 1.1 0 011.8.1z"/>
   <path class="cls-2" d="m137.2 143c-.1-1.7-.3-3.5 1.2-4.8a2.1 2.1 0 011.7-.5c.3 0 .7.6.8 1s.1 2.2.1 3.3.5 1.7 1.4 1.6 1.2-.8 1.5-1.4.7-2.1 1.2-3.1a1.2 1.2 0 011.1-.7 1.1 1.1 0 01.8.8c.3 1.4.4 2.9.7 4.3s.8.8 1.3 1 .8-.5.9-.9c.8-3.4.7-6.6-2.4-9a18.4 18.4 0 007-1.1l.2.2c.5 1.3-.7 2-1.2 2.9s-.6.6-.5.8-.3.1.3-.1a3.5 3.5 0 01.7-.9 5.1 5.1 0 011.6-.9c3.5-.5 3.1 1.6 1.8 3.4a11.9 11.9 0 01-4.5 4.1l-.3.3c-1.1-.1-1.6.7-2.2 1.4s-2.5 1.7-3.5-.8-.9-1.5-1.9-.6-2 1.8-4.7.6a18.1 18.1 0 00-3.1-.9z"/>
   <path class="cls-2" d="m136.3 117.3c.5 2.8 2.6 3.5 4.9 3.7s4.5.1 6.7.1a9.5 9.5 0 01-2.1.9h-4.8a5.8 5.8 0 01-5.1-2.1c-1.1-1.6-2.5-1.7-4.1-1.7s-4.2-.1-6.2 0a11.6 11.6 0 00-3.8.6c-2.8 1.4-5.5.5-8.3.2a1.1 1.1 0 01-.9-.4 5.4 5.4 0 01-1-2c0-1 .9-1.1 1.7-1.2-.9 1.6-.8 2.1.6 2.1l8.1-.2z"/>
   <path class="cls-2" d="m115.3 125.8a6.1 6.1 0 001.9-.1c1.4-.4 2.3-.5 2.5 1.5s1.1 1.8 1.9 2.5c3.2 3.1 5.2 7 7.5 10.7a6.2 6.2 0 01.5 2.7c.1 1.6.1 3.2.2 4.8l-.7.2c-1.6-.8-1.4-2.6-2-3.9a13.5 13.5 0 00-3.4-7.1c-.8-1.1-1.4-2.3-2.2-3.5a8 8 0 00-1.7-1.5l-.9-.9a21 21 0 00-3.8-4.1 1.1 1.1 0 01.1-1.2z"/>
   <path class="cls-2" d="m148.9 121.2h.9c1.3-.5 2.2-1.2 2.2-2.7a3.4 3.4 0 014.2-2.6c1.8 1.2 2.8 3.4 5.2 3.6s5.2.5 6.8 2.9a6.4 6.4 0 01-.2.7c-3.8-.6-7.8-.6-11.5-2.3a1.8 1.8 0 00-1.6.3c-2.7 2.6-3.2 2.6-6 .1z"/>
   <path class="cls-2" d="m183.4 125.9a3.2 3.2 0 01-.1 1.4 1.5 1.5 0 01-2.1 1.2l-6.8-3.2a17.5 17.5 0 00-3.3-.4 3.3 3.3 0 01-3.1-1.9l.2-.2c2.1-1.6 4.2-.2 6.3.1s2.8 1.5 4.4 1.7 2.8.1 4.1.8z"/>
   <path class="cls-2" d="m129.8 147.9c4 1 5.7 3.7 5.6 7.7l-.6.3c-3.4-1.6-4.7-4.5-5.1-8z"/>
   <path class="cls-2" d="m135.4 155.6c3 1.7 4 4.4 3.9 7.7h-.1c-1.9.2-1.8-1.6-2.6-2.6s-2.4-2.9-1.3-5z"/>
   <path class="cls-2" d="m145.1 134.6c-.6.9-1.6 1.4-2.4.7s-3.4-.8-5.2-.6c.6-1.5 2.1-.9 3.1-1.4s2.3 0 3.2.9.8.3 1.3.4z"/>
   <path class="cls-2" d="m133.6 136.9c.3 2.3.7 4.7 1 7.1-.3-.6-1-1.3-1-1.9a30.1 30.1 0 010-5.2z"/>
   <path class="cls-2" d="m137.5 134.7c-.4.2-.8.8-1.1.7s-2.3.3-2.8 1.6c.5-2.3.5-2.4 2.5-2.4a3.4 3.4 0 011.4.1z"/>
   <path class="cls-2" d="m134.6 143.9c1.1.3 1.8-.3 2.6-.9s.1 1.5-.9 1.8a1.2 1.2 0 01-1.7-.9z"/>
   <path class="cls-2" d="m146.9 134.5h-1.8c.6-1.1 1.2-.9 1.8 0z"/>
   <path class="cls-2" d="m184.4 124.9-1 1q-.3-1.2.9-.9z"/>
   <path class="cls-2" d="m177.7 141.3-.9.9-.3-.2a.9.9 0 01.9-1z"/>
   <path class="cls-6" d="m185.3 42.3a24 24 0 01-4.1 4.3c-1.5 1.1-3.5 1.1-4.8 2.7s-1.1.5-1.6.7c-.9-3.1 1-5 3.1-6.8s3-1.7 3.9-3.3c2.3-3.3 2.3-7.5 4.2-10.9a.8.8 0 011.2 0 11.5 11.5 0 01.1 1.9c1.1 4.1-.9 7.7-2 11.4z"/>
   <path class="cls-2" d="m172.9 6.8 2.3-.6a1.8 1.8 0 012 .9c1 1.8 1.9 3.6 2.8 5.4a7.6 7.6 0 00.7 1.3c3.9 3.2 3.9 8.1 5.6 12.2l-.6.2c-2-.5-2.8-2.2-3.3-3.8-1.1-3.6-3.4-6.4-5.9-9.1a21.3 21.3 0 00-2.9-3.1 4.2 4.2 0 01-1-2.8z"/>
   <path class="cls-2" d="m185.3 42.3c.5-2.4.9-4.9 1.3-7.3s.5-2.8.7-4.1c.2.2.5.4.6.7a11.9 11.9 0 01-2.6 10.7z"/>
   <path class="cls-7" d="m162.3 3.9c2.8-.4 5.1 1.5 7.7 1.9a1.1 1.1 0 00.8.1.9.9 0 01-.1 1.4c-3.4.8-7 2.3-8.6-2.6a2.4 2.4 0 01.2-.8z"/>
   <path class="cls-2" d="m187.2 29-.8-.2a1.8 1.8 0 01-.2-2.7h.1c1.1.6.9 1.8.9 2.9z"/>
   <path class="cls-2" d="m170.9 6.8a2.8 2.8 0 00-.1-.9 2.2 2.2 0 012.1.9l-.2.2a1.4 1.4 0 01-1.8-.2z"/>
   <path class="cls-2" d="m195.9 21.2c.6-1 1.3-.9 1.9 0a1.2 1.2 0 01-1.9 0z"/>
   <path class="cls-2" d="m83.6 49.1c-.6 2.7-.6 2.8-2.7 2.8h-5.7a8.7 8.7 0 00-3.2.6c-1.7.5-1.9 1.2-1.3 3.3l.4.9a1.6 1.6 0 01-1.1.5h-2.4a4.1 4.1 0 01-1.9-.1 3 3 0 01-1.1-.6 3.4 3.4 0 01-1-1.6c-1.1-3.2-3.1-2.3-5.2-1.3s-4 3.7-7.1 3.3l-.4-.4 2.9-3a1.2 1.2 0 00.1-1.3c-.2-.3-.7-.8-1-.8a30.3 30.3 0 00-11.8 3c-2 1-3.3.5-4.4-1.1l-1.1-1.3.4-.5a3.2 3.2 0 012.1-.4c2.7.8 5.3.1 7.9-1.1 5.5-.5 10.7-2.9 16.4-3 3.7.5 7.5 1.3 11.2.3a7.6 7.6 0 013 0c2.1.7 4.5.2 6.5 1.3.2.1.3.3.5.5z"/>
   <path class="cls-2" d="m32.7 52a4.7 4.7 0 01-4.7 1.7c-2.2-.7-4.8-.9-6.3-3a45.8 45.8 0 00-4.2-4.6c-1.5-1.5-2.5-3.5-4-5.1s-1-2.6-1-4.1a6.5 6.5 0 00-1.8-5.6c-1.8-1.9-1.2-4.6-1.7-6.8s1-2.2 1.6-3.3c1.6 1.4 1 3.5 1.7 5.2a21.3 21.3 0 001.8 4.1 25.6 25.6 0 012.1 4c.4 2.2-.7 4.6 1 6.6a3.6 3.6 0 01.7 1 7.6 7.6 0 002 2 5.3 5.3 0 011.2 1.4c2.4 4.5 6.7 5.5 11.2 6z"/>
   <path class="cls-2" d="m18.3 61.5c3.5-1.6 4.7-1.8 7.6-1.4h2.3a28.5 28.5 0 0110.5.1 6.1 6.1 0 002.7 0l4.7-.5c.1.3.1.5.2.8-1.2 2.6-3.6 2.2-5.8 2.5-4.5.5-9.1-1.2-13.7-.1-2.8-.2-5.7.7-8.3-1z"/>
   <path class="cls-2" d="m48 58.6a3.4 3.4 0 012.9-1.9l.2.3c-.1 1.7-1 2.3-2.7 2z"/>
   <path class="cls-2" d="m35.6 52h-2.9a.9.9 0 01.1-1.2 2.2 2.2 0 012.7 0 1.1 1.1 0 01.3.8c-.1.3-.1.4-.2.4z"/>
   <path class="cls-2" d="m46.1 59.6 1.9-1 .2.2c-.1 1.3-.9 1.4-1.9 1z"/>
   <path class="cls-8" d="m144.1 1.2 8.6.9h.9c1.4 1.4 3.2.6 4.8 1a.9.9 0 010 1.2c-.8.6-1.9.6-3.3 1 3.1 1.4 4.3 3.4 3.3 6.4a6.7 6.7 0 01-5.7.1 6.9 6.9 0 01-1.7-5.6 8 8 0 01-5.3.2 1.9 1.9 0 01-1.1-.7 34.4 34.4 0 01-.5-4.5z"/>
   <path class="cls-2" d="m18.4 127.8 2.1.9a2 2 0 011.6 2.1 9 9 0 00.2 2.3c.2.5.8 1.2 1.2 1.2 3.1.3 5.5 2.1 8.3 3l-.4.5c-.9.6-2 .6-2.9 1.2l-.8.8-.2.4a3.6 3.6 0 000 2.7l.5 1.7.3 1.2a2.4 2.4 0 01-.3 1.2 3.3 3.3 0 01-3.4 1.4l-.6-.5c-2.4-1.2-4.9-2.4-7.9-1.4-.7.3-1.7-.3-2.6-.5s.2-1.3.7-1.7 1.9-1.2 1.8-2.5c-.3-4.8 2.2-9.2 2.2-13.9z"/>
   <path class="cls-9" d="m14.5 145-1 1-1 .2-.8-.2a10.4 10.4 0 00-2.9-3c-2.9-2.2-2.6-3.5.9-5.7a1.1 1.1 0 00.7-.3c0-.3-.2-.5-.5-.7-3.1-1.7-2.5-4.4-1.9-7.1l.9-1a14.2 14.2 0 014-.8h1.3a2.6 2.6 0 011 2.3c0 .5-.1.9-.1 1.3s.3 2.7.5 4c.1 3.5 1 6.9-1.1 10z"/>
   <path class="cls-2" d="m21.2 150.8a2.7 2.7 0 012.8-2.9l.2.2c0 1.9-.9 2.9-2.9 2.8z"/>
   <path class="cls-10" d="m59.5 123v-.9c3.8-2.7 2.4-7.1 3.7-10.7 2.8-.5 4.1-2.7 5.4-4.9s1.1-2.3 2.5-1.6a2.5 2.5 0 011 3c-.7 2.5-1.1 5 1.3 6.9.7 1.9 2.4 1 3.7 1.3s3.3-.3 3.8 2l-6.6.3a2.3 2.3 0 00-1.7.5 22.3 22.3 0 00-1.2 3.1c-.2.8-2 .6-1.2 2s-1.3 1.6-2.5 1.5-4.8-1.5-7.2-2.3z"/>
   <path class="cls-2" d="m31.8 137.3c2.5.2 4.3-.6 5.1-3.2a1.8 1.8 0 011.3-1.2c2.3-.1 4-1.7 5.9-2.6a18.7 18.7 0 018.7-1.6 6.4 6.4 0 01.2.7c-3.5 2.9-8.7 2.8-11.8 6.4l-2.5 2.2c-2.4 1.3-4 3.5-5.9 5.3s-2.6.8-3.2-.5.7-3.7 2-5.2z"/>
   <path class="cls-2" d="m60.5 123.2a3.2 3.2 0 001.4-.2c2.3-.9 4.1-.3 5.3 1.8l-.3.7c-1.8 2.2-4.3 2.5-6.9 2.6a18.1 18.1 0 00-5.1 1.2 2.4 2.4 0 01-2-.5h-.1c.2-2.4 2.1-3 3.9-3.6s1.9-.1 2.8-.4.7-1.1 1-1.6z"/>
   <path class="cls-11" d="m70.1 56.8h1l1 .9h-.1c2 3.3.9 7.1 2 10.6v5.7a1.3 1.3 0 000 2v1.9c-1.3 1.1-.9 2.6-.9 4-.1 7.6-.1 15.2-.1 22.8-3.3-2.8-5.3-9.5-3.7-12.2l-.2-.3a2 2 0 01.2.9c-2.4 1.4-2.5 2.9-.7 4.9s2.3 2.5 1.2 3.8-3.4 1.8-5.3 1.5-2.1-2.1-2.2-3.7-.1-3.5-.2-5.2c.2-4.9-.7-9.8.9-14.6l1.5-3.3a7.6 7.6 0 01.8-1.1c1.4-1.1 3.7-1.3 4-3.6l.3-1.2a5.7 5.7 0 00-.2-5.8c0-2.7-.7-5.4.7-8z"/>
   <path class="cls-2" d="m112.4 52c-3.7-.2-7.4.4-11-.8-1-.4-2.5.1-3.7.4s-5.5.8-7.8-.9a9.1 9.1 0 00-6.3-1.6h-.1a1.1 1.1 0 01.4-1.4c1.4-.8 3-.7 4.6-.7 3.2.1 6.3 1 9.5 1.2a26.1 26.1 0 002.7.6l1.3.2c2 .3 4.1.8 6.2.4l1.2.2a9.2 9.2 0 012.3.9 1.3 1.3 0 01.8 1.4z"/>
   <path class="cls-2" d="m74 68.3c-.2-.2-.6-.5-.6-.7-.5-3.3-.9-6.6-1.4-9.9a5.3 5.3 0 012 4.5z"/>
   <path class="cls-2" d="m74 76c-1-.7-1-1.3 0-2z"/>
   <path class="cls-2" d="m72.1 57.7-1-.9z"/>
   <path class="cls-12" d="m178.3 125.7c-1.8.5-2.3-1.3-3.6-1.8a6.2 6.2 0 01-.3-3c.1-15.5-.2-30.9.9-46.4.4-6-.8-6.4-6.3-4.2s-7 4.2-6.3 9.3-1.2 7.5-.8 11.1a2.6 2.6 0 002.6-.2c1.5-.6 3.1-1.3 4.1.7s.7 4-1.2 4.6c-5.3 1.8-6.1 5.6-5.7 10.5s-.6 9 2.7 12.7c-.3 2.2-1.7 1.5-3 1.3h-.5c-3.3-.1-3.3-.1-4.1-3.1l-.3-.9c-2.3-3.4-.9-7.2-1.3-10.8-.2-2 .5-4.4-2.1-6.7-1.9 7.1-.6 13.6-.4 20.1.2.4.6.8.6 1.2s-.5 2.2-1.8 1.8l-1.7-.8c-.8-1.5-1.7-3-2.7-4.7a5.8 5.8 0 01-1.4 1.2 2.2 2.2 0 01-1.7.4c-.9-.3-.8-1.2-.7-2 1.1-4.4.7-8.8-.2-13.2s-.2-6.6-.5-9.8-.5-7.5 1.5-10.9c1-1.4 2.2-2.2 3.8-.8s.1 1.7 0 2.5 0 .3.1.1.2-.6.4-.8a1.8 1.8 0 011.6-.9c3.6 1.3 2.8 4.1 2.3 6.8s-1 3.1 1.1 3.4 1.8-1.4 2.1-2.6c1-3.9.7-7.9.9-11.9.1-.9-.6-1.4-1.5-1.5-4.1 0-8.2-.3-12.3.7-2.6.6-4 1.8-3.9 4.4.4 5.9-1 11.6-.9 17.5.2 3.9-.4 7.9.4 11.8 0 1.3.1 2.5.1 3.8s0 1.6-.9 1.9l-12.3-.3c-1.1 0-2.2.2-3-.9 1.1-1.1 2.7.1 3.9-.8h1.7a60.4 60.4 0 007.4.1c-1.9-11.6-.4-22.9-.7-34.2a24.1 24.1 0 011.2-7.9h.1c.1-.4.3-.5.7-.1h2.8c1-.2 1.9-1.2 2.9-.2h1c3.2-.8 6.2-2.5 9.6-.9h3.8a8.6 8.6 0 014-1.8h.1c2.8-1.3 5.3-3.3 8.6-3.7 1.6-1.5 3.8-1.4 5.7-2 1.1-1 2.4-.6 3.7-.5s1.8 2.6 2.1 4.2a21.1 21.1 0 01.2 2.5v48a23.6 23.6 0 01-.3 5.3 4 4 0 01-2.3 2.4z"/>
   <path class="cls-2" d="m152.7 71.2-9.6.9 2.8-1.9c2.5-1.4 4.8-1.3 6.8 1z"/>
   <path class="cls-2" d="m169.2 65.7a31.1 31.1 0 01-8.6 3.7c2.5-2.1 4.7-4.7 8.6-3.7z"/>
   <path class="cls-2" d="m178.6 63.6h-3.7c3.7-2.5 4.1-2.5 7.6-.1a1.2 1.2 0 00-.5.5 3 3 0 01-3.4-.4z"/>
   <path class="cls-2" d="m174.9 63.6-5.7 2c1.3-2.3 3.5-2.3 5.7-2z"/>
   <path class="cls-2" d="m160.5 69.4c-1.3.8-2.3 2.1-4 1.8.8-1.8 2.2-2.2 4-1.8z"/>
   <path class="cls-2" d="m142.1 72.1a2.8 2.8 0 01-2.9.2c1.4-1.4 1.4-1.4 2.9-.2z"/>
   <path class="cls-2" d="m182.5 63.5 1.9.9-.5.4c-.9 0-1.8 0-1.5-1.3z"/>
   <path class="cls-2" d="m136.4 72.2-.3.2h-.4c0-.8.3-.8.7-.2z"/>
   <path class="cls-2" d="m184.4 64.4 1 1h-.1q-1.2.3-.9-.9z"/>
   <path class="cls-13" d="m115.2 125.9c.1.3.1.6.2.9-2.3 2.7-3.6 5.5-.5 8.6a1.7 1.7 0 01-.1 2.5c-1.5.9-2.8 2.2-4.6 2.7a1.4 1.4 0 01-1.2-.6c-1.1-3.2-.7-6.8-2.4-9.9-.3-1.5.1-3.4-2.6-2.5s-3.1.3-4.2 1.8c-1.1 3.2-.2 6.6-.5 9.9s.3 4.2-1.3 5.9c-3.2-.8-1.9-3.5-2.3-5.5s0-3.2 0-4.8a43.4 43.4 0 00-.1-5.1c.1-2.3-4.2-4.8.5-6.8h8.4a8.5 8.5 0 014.9 1.4 9.9 9.9 0 005.8 1.5z"/>
   <path class="cls-14" d="m80.9 118.1-6-.7h-1.9c-.6 0-1.3-.3-1.2-1s.8-.8 1.2-1.1a2.7 2.7 0 011.4-.7c1.7.4 3.6.1 5.3.7l3.8.2a26.6 26.6 0 003.7.7 67.8 67.8 0 0015.6-.7l1.6 1a6.4 6.4 0 01-1 1.3 3.7 3.7 0 01-1.8.4l-2.4.2z"/>
   <path class="cls-15" d="m103.9 75.9-.3-5.4c0-2.7-2.7-5.7.9-7.9l.4 1.5c.5 1.7.2 3.5.3 5.2s-.3 1.9.4 2.8.2 3 .2 4.4c.7 8.4.1 16.7.3 25 .1 1.8-.3 3.5.4 5.2s.2 4.7.2 7.1c0 .2-.6.5-1 .6a1.2 1.2 0 01-.8-.4 5.8 5.8 0 01-.4-1.8v-7.1c-.6-8-.1-16-.3-23.9 0-1.8.4-3.6-.3-5.3z"/>
   <path class="cls-16" d="m67.2 124.8c1.1.1 2.2.3 3-.8 3.2-.3 6.4.4 9.6-.9 1.7 3.9 4.6 1.8 7.1 1.5s1.8.2 2 1.3a6.9 6.9 0 01-.2 1.3 6.1 6.1 0 01-.7 1l-.4.5c-1.6 2.4-3.4-.1-5.1.3h-1.3a13.1 13.1 0 01-3.9-.5c-1.5-1-3.2 0-4.8-.5s-3.2.3-4.8 0-1.3-1.9-.4-3.1z"/>
   <path class="cls-17" d="m96.1 123c-1.5 1.9-1.6 1.9-.6 3.5s.9 1.6 1.4 2.4-1 3.1-2.4 2-5 0-7.4-.5a2.7 2.7 0 01.3-2.6l1-1c1.5-1.3 2.8-3 4.8-3.8z"/>
   <path class="cls-18" d="m106.5 106.7c-1.2-1.2-.9-2.7-.9-4.1v-20.4c0-1.9.2-3.8.2-5.7l.7.6a.5.5 0 00.1.8v21.1c0 2.6-.1 5.1-.1 7.7z"/>
   <path class="cls-18" d="M103.9,75.9c.2.8.8,1.5.8,2.2,0,9-.1,18-.2,27l-.6-.5c0-3.8-.1-7.6-.1-11.4V75.9Z"/>
   <path class="cls-19" d="m87.4 124.9c-2.5 2.5-5.4 1.6-8.3 1 .2-.9.4-1.8.7-2.8l3.6-.3c1.9-.4 3.9-.8 4 2.1z"/>
   <path class="cls-13" d="m87.4 124.9c-.7-1.8-2.4-1.9-4-2.1a13.3 13.3 0 019.8.2 16 16 0 00-1.6 2.3c-.7 1.4-1.9 1.6-3.2 1.5z"/>
   <path class="cls-20" d="m64.3 78.8a77.3 77.3 0 00-1 15.9 23.2 23.2 0 00.3 9.8 12 12 0 01-.3 7c.3.9 1.1 1.5.8 2.6a50.3 50.3 0 00-.9 5.6c-.2 1.9-.4 2.2-2.7 2.4h-1c-2.9-2-6.2-3-9.6-4s-4.3-.9-5.7-2.9-1-6.7-1.3-10 .1-3.8-.1-5.7a3.3 3.3 0 00-1.1-1.5l-.8-.9a15.6 15.6 0 00-1.6-2c-2.3-2.3-4.5-4.7-7.3-6.4a31.7 31.7 0 01-7.9-12.7c-1.8-5.7-1.1-7 4.9-7.4 4.2-.4 3.9 2.4 3.2 5a10.7 10.7 0 002.7 10.5l1 .8 1.6.8c2.1 1 3.5 0 4.5-1.8a30.7 30.7 0 00-.1-17c-4.1-1.8-8.5-1.9-12.8-2.1s-6 .5-8.9-.6c-1.1-.9-1.7-1.7.3-2.1s4.4.6 6.4-.7 4.1-.3 6.2-.2a82.7 82.7 0 018.6.5 4.8 4.8 0 004.6-1.9l1.9-1 2.9-1.8 6.5-4a33 33 0 013.2-1.8q2.9-1.5 3.3 1.8a26.6 26.6 0 01.3 2.8l.8 1.6a61 61 0 01-.1 18.1c-.5 1.1.1 2.4-.8 3.3z"/>
   <path class="cls-21" d="m26.9 61.4a2.4 2.4 0 01-2.3 1.1l-4.1.2c-.1 0 0 .6 0 1s.5 3.2.9 4.8c.4 4.8 1.3 9.6 2 14.4 1 6.4.6 13 1.8 19.4.4 2.7-.2 5.5.6 8.2s2 1.6 3.4 1.6h8.5c3.1.1 4.2-1.2 4.3-4.2s-1-7.3 1-10.7c1.3.6 1.2 1.7 1.2 2.8v15.2c-6.4 1.5-13 1.1-19.5 1.6a12.3 12.3 0 01-3.3-.3c-1-.2-1.4-1-.7-2.1a4.6 4.6 0 00.6-3.2c-.7-8.4-1.2-16.8-2-25.3-.5-6.3-1.3-12.6-2-19a6.1 6.1 0 00-.7-1.7c.7-1.1 1.3-2.3 1.9-3.4z"/>
   <path class="cls-22" d="m148.9 51.9a21.3 21.3 0 01-8.7 1c-.5-1.1 1.2-1.8.9-1.9-4.2-.5-6.5-5.1-11.5-4.5a68.5 68.5 0 00-10.4 2.3 30.1 30.1 0 01-7.8 1.6 2.2 2.2 0 01-1.9-.4c-2.4-2.3-4.5-4.5-.4-7.1 2.7 1.9 2-3.4 4.4-2.1s3.7 2.7 5.2 1.6c4.3-2.9 9.5 1.2 13.6-2.2.8-.7 2.2.2 3 1 4.2 3.6 8.8 4 13.7 1.6a2.3 2.3 0 011.8 0 2.4 2.4 0 011.3 2.9c-2.2 1.5-2.2 4.1-3.2 6.2z"/>
   <path class="cls-23" d="m182.5 40.5c-.4.6-.6 1.6-1.2 1.8a11.2 11.2 0 00-6.5 7.7c-3.1 1.9-6.2 2.7-9.6 1-1.3-2.3 4-1.8 1.9-4.5-.6-.7 2.1-1.8-.2-2.4s-2.8-.7-3.3 1c-1.8 6-3 2.1-4.4-.2a3.3 3.3 0 01-.1-1.4 4.8 4.8 0 012.1-2.6 5.8 5.8 0 012.5-.9c1.6-.6 4.8 2.6 4.8-2.5 0-1.7 3.7-2.3 6.2-1.3a5.8 5.8 0 011.3 1.4c1.5 2.3 4.6-1.3 5.9 1.6a1.1 1.1 0 000 .8.6.6 0 01.6.5z"/>
   <path class="cls-24" d="m111.4 50c.3-.2.5-.6.7-.6a21.2 21.2 0 007.7-2.2 3.5 3.5 0 013.2-.6 1.8 1.8 0 001.6-.3c1.1-2 2.6-1.5 4.1-.9s3 1.1 4.3-.5 1.5-.1 1.7.3c1.9 3 4.8 4.4 8.1 5.3.2 0 .5.4.5.7s-.3.5-.5.6l-2.6 1.1h-.9c-.6-.5-1.5-.2-2-.8a34.8 34.8 0 00-8.5.6c-1.6.4-3.4.7-5-.6a1.3 1.3 0 00.1-.6c.3-1 .5-2.1-1-1.6a17.6 17.6 0 01-5 1.3 5.3 5.3 0 00-1.7.8h-3.7l-1-.9c-.4-.2-.5-.4-.4-.6s.2-.5.3-.5z"/>
   <path class="cls-25" d="m159.4 44.3 2.6 2.8c.8-1.1-.1-2.6.6-3.8 2.8-1.4 5.3-.7 8.1 1.2l-2.4 1.2a1.8 1.8 0 00-.5.7 3.5 3.5 0 001.1.3l.9-.2a1.3 1.3 0 01.7.5 1.3 1.3 0 01-.1.9 5.7 5.7 0 01-1.6 1.1 6.5 6.5 0 00-3.6 2 6.5 6.5 0 01-4.9.7l-2.8-.2c-1.8-2-.3-4 0-6a3.7 3.7 0 01.7-1.2.9.9 0 011.2 0z"/>
   <path class="cls-26" d="m158.5 45.2c-.3 2.1-.7 4.2-1 6.3l-8.6.4a4.6 4.6 0 01-.7-.7c-1.2-1.3-1.3-1.4-.1-2s1.6-.8 1.3-2-.2-1.3 1.4-1.1h1.5l.9-.6 1.1-.2c1.4.2 2.7-.7 4.2-.1z"/>
   <path class="cls-22" d="m137.3 52 2 .8h-1.9c0-.2-.1-.5-.1-.8z"/>
   <path class="cls-27" d="m184.4 64.5.9.9a12.4 12.4 0 012 7.7c-.2 2.9 0 5.7 0 8.6a1.4 1.4 0 000 .9c-1.1 5.4-1.2 11-2 16.4a10.6 10.6 0 00-.9 2.5c-.1 1.7 0 3.4 0 5.2a.8.8 0 01-1.2 0c-.5 0-.4.1-.2.6s-.7.4 0 .4c-3 1.7-2.4-1-2.9-2.3v-15.7c0-.7 0-1.6 1.2-1.4s1.4 1.4 2.1 2.2c-.3-1.1-1-2-1-3.2a4.1 4.1 0 01.2-1.9 12.9 12.9 0 00-.3-13.3c.1.3-.5.9-1.5 1.2s-.6-1.5-.7-2.3v-1.3c-.1-.8.2-1.7-.5-2.4l-1-3.7h3.8z"/>
   <path class="cls-28" d="m180.6 106.6.7.7c.5.5.9.9 1.1-.2a6.1 6.1 0 00.1-1.4l1.9 1c0 3.2 0 6.4-.1 9.6a2.1 2.1 0 01-1.1.4c-1-.1-2.1.3-3-.5a7.1 7.1 0 01-.1-1.4c.2-2.7-.6-5.5.5-8.2z"/>
   <path class="cls-29" d="m186.8 117.2h6.1a15.1 15.1 0 007.9 0h1.7c.2.1.4.3.3.5s-.1.3-.2.3l-.7.7c-5.3.8-10.5.3-15.8.1-1.6-.9-3.5.9-5.2-.4s-.9-1.3.2-1.8a13.8 13.8 0 015.7.6z"/>
   <path class="cls-30" d="m178.3 125.7 1.2-1.8c1.7-1.3-.9-4.3 2.1-5.2 1 .1 2.1-.4 2.9.6a17 17 0 00-.4 2.2c0 1.1.1 2.3.2 3.4l-.9.9z"/>
   <path class="cls-31" d="m200.8 117.3a8.2 8.2 0 01-7.9 0z"/>
   <path class="cls-31" d="m186.8 117.2h-6.1a.5.5 0 01-.4-.5q.1-.3.3-.3a.9.9 0 00.9-.2 1.3 1.3 0 011.9-.1h.9z"/>
   <path class="cls-31" d="m184.5 119.3-2.9-.2-.2-.7c1.6-.1 3.3-.7 4.7.6z"/>
   <path class="cls-31" d="m201.9 118.9a4.6 4.6 0 01.7-.7 4.6 4.6 0 00-.7.7z"/>
   <path class="cls-31" d="m202.6 118.2a2.2 2.2 0 01-.1-.8l.7.3z"/>
   <path class="cls-2" d="m185.3 99a70.4 70.4 0 011.2-15.2c0-.4.5-.8.8-1.2-.2 3.4.3 6.7-.8 10a12.2 12.2 0 00-.2 3.8 2.8 2.8 0 01-1 2.6z"/>
   <path class="cls-2" d="m3.8 134.4a36.2 36.2 0 01.2-4.7c.2-1.8.6-3.5 2.8-3.9l.3.6v.7c0 .2-.1.4-.1.6l-.4 1.3c-1.1 1.7.4 4.7-2.5 5.7z"/>
   <path class="cls-32" d="m14.7 130.8c-.3-1.1-.1-2.3-1.2-3a4.1 4.1 0 01-1.2-1.4 2.5 2.5 0 01-.1-1.2l.3-.5 2 .2 1.2 1.2c.8 1.8 1.4 3.6-1 4.7z"/>
   <path class="cls-2" d="m6.8 125.8c1-1.3 2.5-.7 3.8-.9l.3.5a1.2 1.2 0 01-.6 1 3.5 3.5 0 01-1.1.3 2.7 2.7 0 01-2.3-.7z"/>
   <path class="cls-2" d="m10.6 124.9c.5-.9 1.2-1.1 1.9-.2v.3a1.3 1.3 0 01-1.8 0z"/>
   <path class="cls-2" d="m102.8 68.3c-1.6-1.4-1.1-3.5-1.7-5.2s.7-1.4 1.8-1.3a12 12 0 01-.1 6.5z"/>
   <path class="cls-33" d="m102.8 68.3c0-2.2.1-4.4.1-6.5.6-.8 1.1-.7 1.7 0a2.8 2.8 0 01-.1.9 18.2 18.2 0 00-.7 2.5 48.7 48.7 0 00-.2 5.4l-.7-.6c0-.6-.1-1.2-.1-1.7z"/>
   <path class="cls-2" d="m104.6 61.7h-1.7c.8-1.1.8-1.1 1.7 0z"/>
   <path class="cls-2" d="m126 114.5-3.9.8h-5.9c.2-.8.5-1.7 1.4-1.7l5.2.3a18.3 18.3 0 013.2.6z"/>
   <path class="cls-24" d="m123.8 52h-5.6a.8.8 0 01.3-1.3c1.8.6 4.3-2.1 5.4 1.3z"/>
   <path class="cls-34" d="m63.3 111.5-.3-.3a60.8 60.8 0 01.3-16.5c.1 2.2.1 4.4.3 6.6s.9 1.6 2 1.2l.7-.6c1-.3 2-.4 3-.6a31.1 31.1 0 00-2.5-3.8c-.4-.6-1.7-.7-1.8-1.2s1-1.3 1.6-2l2.6-2c.6.4.9 1 .3 1.5s-1.4 1.8-.3 2.7a8 8 0 013 7.1c0 .4.5.8.8 1.1 0 2.1-.1 4.1.1 6.2a6.3 6.3 0 00.9 2.5h-.1c.6.6.7 1.2.1 1.8h-1l-2.3-1.5c.7-1.8-1.4-3.6.2-5.4a2.5 2.5 0 00.5-1.7c0-.3-.5-.7-.8-1a1.8 1.8 0 00-.6.5 6.7 6.7 0 00-.6 1.2c-.2 2.2-2.4 2.8-3.5 4.2s-1.7.1-2.6 0z"/>
   <path class="cls-2" d="m74 115.2a10.9 10.9 0 00-.1-1.8c2 .6 4.1.5 5.8 1.8z"/>
   <path class="cls-35" d="m9.7 125.8a.5.5 0 01.6-.1 3 3 0 012.6 0c1 .5.6 1.3.6 2.1h-.1a1.5 1.5 0 01-1.4.4c-.4-.2-.8-.6-1.3-.1l-1 .2a1.8 1.8 0 00-1.4.4 3 3 0 00-.4 1 18.1 18.1 0 01.3 2.3c-1.3 4 2.3 3.6 4.3 4.7a.2.2 0 000 .4c-.3.5-.5.9-1 1.1l-2.4.2a2.7 2.7 0 00-1.4 3.4 1.2 1.2 0 00.6.6 19.4 19.4 0 012.4.2c2 .4 2.2 1 1 3.4l-4.3.8c-2.4.4-3.7-.7-3.6-3.1s.2-4.8.3-7.2a10.8 10.8 0 000-1.8c.2-1.2.4-2.4.7-3.5a33.8 33.8 0 011.1-3.4l.8-1c.9-.8 2.2 0 3-1z"/>
   <path class="cls-7" d="m158.5 3.9a2.2 2.2 0 00-.1-.8c1.4-.1 2.8-.4 3.9.8h-.1a1.9 1.9 0 01-1.2.7 2.3 2.3 0 01-2.5-.7z"/>
   <path class="cls-33" d="m104.8 70.2c0-2 0-4.1.1-6.1a11.5 11.5 0 01.6 6.1c-.2.4-.5.4-.7 0z"/>
   <path class="cls-18" d="m104.8 70.2h.7v1.9z"/>
   <path class="cls-2" d="m118 51a2.9 2.9 0 01.2.9h-2l1-.9c.3-.4.6-.4.8 0z"/>
   <path class="cls-36" d="m14.7 130.8c.3-1.6.7-3.2 1-4.7s1.8 1 2.5 1.8 0 2.2 1.8 2.9a1.5 1.5 0 011 .7c.3.8-.3 1.1-1 1.1s-2.1 1.1-2.2 2.5-.2 5.4-.4 8-.5 1.9-2.9 1.9c0-2.9.1-5.9.1-8.8a25.1 25.1 0 00-.4-2.7c-.1-1-.6-2 .5-2.7z"/>
   <path class="cls-37" d="m137.4 99c0-7-.1-14-.1-21 0-1.9.3-2.1 2.2-2.2l13.3-1a24.1 24.1 0 013.8.1c-1.1 3.8-4.4 2.1-6.7 2.2s-5.1 1.1-4.8 4.7a12.6 12.6 0 00-1 6.9c.1 1.2.8 2.9-.8 3.9-2.2-1.8-1.1-5.1-3.7-6.9-.3 2.6.4 5.3-1.3 7.6v5.7q-.4.6-.9 0z"/>
   <path class="cls-38" d="m138.3 93.3v-8a19.4 19.4 0 01.2-2.4c.1-.2.4-.5.6-.5a.7.7 0 01.8.2l2.7 4.4a5.3 5.3 0 01.5 1.8c.1 1.3.1 2.5.2 3.8s-.3 3.4-.4 5.1.1 3.4.2 5.1a7.5 7.5 0 01-.9-2.5c-.2-2-.1-4-.2-6s-.7-2.1-2.4-1.6z"/>
   <path class="cls-38" d="m137.4 99h.9c-.1 3.9-.1 7.9-.1 11.8-1.4-3.8-1-7.8-.8-11.8z"/>
   <path class="cls-39" d="m152.9 143a4.6 4.6 0 012.9-3.8 4.2 4.2 0 001.6-.9 1.5 1.5 0 00.2-1.3 1 1 0 00-1.3-.8l-1.4.4a1.8 1.8 0 00-1.2.9.5.5 0 01-.8-.2c-.6-.7-.3-1.4.2-2s1.1-1.1 1.6-1.6l1.9-.3c2.4-.1 3.3.6 3.8 2.7s.3 4.1 1.6 5.8a1.6 1.6 0 01-.5 1.2c-1.6 1.3-3.5 1.5-5.4 1.7s-2.3-.9-3.2-1.8z"/>
   <path class="cls-40" d="m177.4 141-.9 1-3.1 1.1a2.9 2.9 0 01-3-1.1 3.3 3.3 0 01-.4-2.2c.1-.2 1.1-.4 1.6-.5l1 .2c.2 0 .7-.1.8-.3a.8.8 0 00-.3-.8l-3.2-2a2.4 2.4 0 01-.3-3.7 3.4 3.4 0 013.5-1.2c.9.3 1.8.8 1.6 2s-.8 1.2-.1 1.9 3.5 2.9 2.8 5.6z"/>
   <path class="cls-41" d="m165.9 142c-.7.2-1.9.7-2.1-.2a55.8 55.8 0 01-1.3-6.9c0-.4.7-1 1.2-1.3a1.9 1.9 0 01.9.9c.4 1.5.7 3.1 1 4.7a26.6 26.6 0 01.3 2.8l.2.2z"/>
   <path class="cls-42" d="m174.6 135.4-1.7-.7c-.2-.1-.3-.5-.4-.8a1.9 1.9 0 01.8-.3h1.4a12.1 12.1 0 01-.1 1.8z"/>
   <path class="cls-43" d="m165.9 130.9c.1.9.5 1.9-1 1.9a1.1 1.1 0 01-.8-.8c-.1-1.5.9-1.2 1.8-1.1l.2-.2z"/>
   <path class="cls-44" d="m137.5 160.2 1.7 3.1c.1 1.1.1 2.2.1 3.3a7.7 7.7 0 01-2.9 6.7 4.9 4.9 0 01-2.9 1.4 9.5 9.5 0 00-5.6 1.9 3.5 3.5 0 01-4 .3l-5.8-2.2a2.1 2.1 0 01-.6-1.7 9.7 9.7 0 00.4-6.7 3.3 3.3 0 012.1-1.5 3.9 3.9 0 012.6.7 4.9 4.9 0 012.2 2.5c.6.7.2 2.7.9 2.3 2.9-1.7 6.5-.4 9.2-2.2s0-5.8 2.6-7.9z"/>
   <path class="cls-45" d="m113.2 174.8-.8-.9c1.1-4.3 1.6-4.4 5.7-1v1.8z"/>
   <path class="cls-46" d="m152.9 137.3a1.2 1.2 0 01.8.2c-.5.6-.5.6-.8-.2z"/>
   <path class="cls-46" d="m153.7 137.5 1.2-.9z"/>
   <path class="cls-47" d="m137.5 160.2c0 1.4-.4 2.9.1 4.1s-.3 3.7-2.2 4.8-1.3-.2-1.7-.7-2-1.7-3.5-2c-4.3-.9-4.3-.9-1.6-4.5a8.6 8.6 0 001-1.6c1.2-2-.5-3.3-1.3-4.7-1.9-3.3-2.1-7.3-5.4-9.9-1.4-1.2-.5-3.7 1.1-4.5s2.8 1.5 3.8 2.9l.9 2a16.2 16.2 0 001 1.8 47.1 47.1 0 002.9 4.8 25.2 25.2 0 002.7 3c.7 1.5 1.4 3 2.2 4.5z"/>
   <path class="cls-48" d="m127.8 144.1-.7-.6c-.7-.8-1.2-2.5-2.4-1.7s-.9 2.2-1.4 3.3.8.4 1.2.3 2.2-.2 2.2.9a18.4 18.4 0 01-.3 3.3c-.2 1.3.4 1.8 1.6 1.6s1.6.4 1.2 1.3-.2 2.9 1.2 4.1 1.5 1.6.1 3.9c-2.3.1-4.4-.8-6.5-1.6a3 3 0 01-.4-1.8c0-7-.9-8-8-9a6.5 6.5 0 01-2.7-.5 1.1 1.1 0 01-.2-2.1c2-1 4.6-.2 6.4-2a4.6 4.6 0 001-2.1c1.1-1.8 3.1-3 3.8-5a7.6 7.6 0 013.9 7.7z"/>
   <path class="cls-48" d="m114.3 137.5c0-.4.3-1 .2-1.2s-1.5-1.2-2-1.9a3.2 3.2 0 01-1-1.9 19.8 19.8 0 011.4-4.9c.2-.5 1.6-.6 2.5-.8 2.7.4 3.5 2.8 4.7 4.8-1.7 2.1-3 4.2-.5 6.8.7.8 1.4 2.2-.1 3.2s-3-.7-4.4-1.1-1.3-1.8-.8-3z"/>
   <path class="cls-49" d="m119.1 141.2c.7-.5.5-1.1.1-1.6s-1.6-1.6-2.2-2.5a1.9 1.9 0 01-.5-1.7c.5-1.9 1.2-3.7 3.6-3.8.4.6 1.3.4 1.8 1l2 3.8a2.8 2.8 0 01.1.9c.5 2.2.5 2.3-1.5 3a2.4 2.4 0 00-1.6 2.1 1.5 1.5 0 01-1.8 0 .9.9 0 010-1.2z"/>
   <path class="cls-48" d="m121.9 132.6-1.8-1z"/>
   <path class="cls-50" d="m152.7 118.9c-.3-.2-.7-.3-.7-.6-2-6.2-1.7-12.5-1.1-18.9.2-1.6.9-2.1 2.6-2h1c1.5.2 2 .7 2 2.1v16.8c-1.7.2-3.2.7-3.8 2.6z"/>
   <path class="cls-51" d="m161.4 120.3c.9-.4 2.2 0 2.8-1.2 4.4-1.6 7.8.9 11.4 2.7l-.9 2.1-6.5-1.1-4.8-1.7z"/>
   <path class="cls-52" d="m195.9 21.2h1.9a5.6 5.6 0 010 1.3 1.8 1.8 0 01-.8.9 1.3 1.3 0 01-.6-.5c-.2-.5-.3-1.1-.5-1.7z"/>
   <path class="cls-53" d="m181.5 40.4c-.2-.9-.3-1.9-1.7-1.4a18.9 18.9 0 00-2.1.9c-1.6.7-2.3-.2-2.9-1.4a5.9 5.9 0 014.5-5.1c-2.4-4.5-3.8-9.7-6-14.7a3.8 3.8 0 01-.9-1.2c-.9-5.2-.1-6.1 4.4-5l4.2 4.4a5.9 5.9 0 011.5 2.8 11.6 11.6 0 003.7 6.4 24.5 24.5 0 00.2 2.7c.1 3.7-1.8 6.9-2.6 10.4-.1.5-.8.9-1.3 1.3z"/>
   <path class="cls-54" d="m161.3 4h.9c.9 1.9 2.1 3.2 4.4 2.9a30.9 30.9 0 014.3-.1l1.8.2c.5.9.9 1.8 1.3 2.7s-1.7-.1-3.1-.1c2.5 2.6 0 6.4 2.9 8.8 1.4 2.5-1.5 2-2.2 3.1s-3-1.1-4.6-1.5-2.1-2.8-4.1-3-2.6-1.6-2.8-3.4c1.9-2 3.6-3.9 1-6.6a2.1 2.1 0 01.2-3z"/>
   <path class="cls-55" d="m173.8 18.4c-2.1-.3-2.2-.3-2-2s.2-3.1-1.2-4.3a1.7 1.7 0 01-.5-1.2c-.2-.9-.6-2.3-.1-2.7s1.9.3 2.8.9l1.2.6c1.2.7 2.6 1.2 2.8 2.8-4.3.4-4.6.8-3.4 5z"/>
   <path class="cls-8" d="m104.7 2.9a13.4 13.4 0 007.4-.9 6.6 6.6 0 015.5-.3 3.9 3.9 0 001.8.2c4.4-1.2 8.8-.3 13.1-.9 3.7 2.8 8.1 3.9 12.5 4.9.8 1 .4 1.8-.5 2.4a4.6 4.6 0 01-3.2.7c-11.4-1.9-23 .4-34.5-1.3-1.8-.8-1.3-2.9-2.3-4.2a1.4 1.4 0 00.2-.6z"/>
   <path class="cls-56" d="m11.5 27.1a12.9 12.9 0 01-.8-2.6 18.2 18.2 0 01-.1-3.3 26.4 26.4 0 001.8-3.8c1-3.7 3.2-6.1 7-6.9l2.7-.8c.9 3.1-2.1 3.8-4 6.4 6-2.3 10.6-6.4 16.6-5.8a1.4 1.4 0 011.1.5c.7.8-.4 2.3 1.1 2.8a3.5 3.5 0 011.6.8 1.7 1.7 0 01.1 1.2 13 13 0 01-3.1 2.1 1.9 1.9 0 01-1.3-.2c-5.1-1.8-7.1-1.1-10.7 4.3-2.1-.5-3.5 1.4-5.5 1.6-4.3-2.5-4.6 1.9-6.5 3.7z"/>
   <path class="cls-57" d="m35.6 10.7c-1.7.8-3.3 1.8-5.4 1.1a3.3 3.3 0 00-2.6.7c-2.9 2.4-6.5 3.2-9.5 5.3a1.1 1.1 0 01-1.6-1 2.5 2.5 0 011.1-2.4c1.9-1.3 3.8-2.4 4.5-4.7s1.9-2.7 3.8-2.9c3.8-.2 7.2-2.2 11-2.3 1.8-.1 4.2-.7 4.7 1.9s-2 2.3-3.5 3-1.6 1-2.5 1.3z"/>
   <path class="cls-58" d="m38.5 14.5h-1.9c-1.1-2 .2-3.5 1-5.1 2.4-1 5.9-1.3 3.7-5.4a8.3 8.3 0 017.8 0c-.2.5-1 .1-1.2.7s.9-.3 1.2-.7c2.3-.1 4.6.2 6.8-.7a6.1 6.1 0 012.7-.3c1.7 2.1 1.3 4.5 1.1 6.8a2.4 2.4 0 01-.5 1.4c-1.9 1.7-2.2-.7-3.1-1.4s-4.4-3-6.9 0-6.4 3.7-10.1 4.8z"/>
   <path class="cls-59" d="m89.3 2.1h12.3a15.8 15.8 0 013.1.9v.2c-3.8 2.1-7.6.4-10.8.6 2.6 1 6.7-.8 9.7 1.7a1.4 1.4 0 01.3 1.5c-1.6 1.6-3.6 1.9-5.8 1.9-3.6-1.5-7.7 1-11.4-1.1-2.2-1.6-4.4-.9-6.6.2s-2.5 1.8-4.3 1a6.6 6.6 0 01-1.2-1.7l-.6-1.4c-.1-.2-.1-.5-.2-.7 0-2.5 1.9-1.7 3.1-1.7a37 37 0 0012.4-1.4z"/>
   <path class="cls-60" d="m89.3 2.1a14.8 14.8 0 01-7.2 1.8c-2 .1-4.1.1-6.2 0s-1.2 1-1 2c-2.2 2-4.6 3.7-7.9 2.5-1.5-.6-1.9.6-2.4 1.4s-2.2 2.8-4.2 2.7a2.6 2.6 0 01-1.8-.9v-.9c1.6-5.3 6.3-6.7 10.6-8.7a35.7 35.7 0 016.5.6c2.8.5 5.7.1 8.5 0z"/>
   <path class="cls-61" d="m145 5.9a23.1 23.1 0 01-3.7.3c-1.6-.1-3.2.4-4.4-1.6s-3.5-1.7-5.8-1.6l1.4-2a20.1 20.1 0 018.8 0l2.8.2a2.3 2.3 0 011 3.2 3.7 3.7 0 00-.1 1.5z"/>
   <path class="cls-62" d="m69.2 2c.2.7.8 1.6-.4 2l-2.8.8a7 7 0 00-5.5 4.6 2.1 2.1 0 01-1.9 1.3v-7.7c3.5-1.2 7-1.1 10.6-1z"/>
   <path class="cls-56" d="m41.3 3.9c.9.2 1.9.4 1.6 1.7a22.9 22.9 0 00-.7 2.8c-.2 1-.9 1.2-1.7.8a1.5 1.5 0 00-2 .5c-1 .4-1.6 1.6-2.9 1a2.7 2.7 0 012.1-2.8c.8-.2 1.6-.1 2.4-.3a1.3 1.3 0 00.7-1 1.7 1.7 0 00-.6-1.1 2.9 2.9 0 00-1.8-.5 18.5 18.5 0 00-4.6.8 21.2 21.2 0 01-7.9 1c3.2-1.5 8.4-2.9 11.2-2.9z"/>
   <path class="cls-8" d="m141.3 1h-8.8a10.4 10.4 0 018.8 0z"/>
   <path class="cls-63" d="m62.5 48.1c-3.7.8-7.5.9-11.1 2.5-1.8.7-4.1.4-6.2.5s-2.9-2-2.9-4 1.7-2.3 2.5-2c6.4 1.8 12.2-3.2 18.5-1.7a2.4 2.4 0 011.1.6c.5 1.9-1.6 2.6-1.9 4.1z"/>
   <path class="cls-64" d="m64.4 76v-19.2c.3-.3.6-.4.9 0 .7.7 1.3.5 2 0s1.9-.5 2.8 0c1 2.9 0 5.7 0 8.6s.6 3.8 0 5.8c-.6.8-1.1 2.2-2.3 1.9s-1-1.7-.9-2.8a16.9 16.9 0 00-.4-5c-.5 3.6.9 7.3-1.2 10.7q-.4.6-.9 0z"/>
   <path class="cls-65" d="m62.5 48.1c-.8-1.3-.6-2.3.9-2.9a4.3 4.3 0 001-.9c2.9-.5 5.9-.2 8.8-1.4s3.6.8 4.7 2.4a1 1 0 01-.2 1.2c-.9 1.3-3.4-.9-3.6 1.7a6.5 6.5 0 01-2.2.8c-3.2.1-6.4.2-9.4-.9z"/>
   <path class="cls-66" d="m42.3 47.1a2.2 2.2 0 00.6.7 2.7 2.7 0 012.3 3.3c-2.3 2.7-5 1.6-7.7.8-.6-.6-1.5-.3-2-.8h-2.7a.9.9 0 01-1.3.1 1.8 1.8 0 01.7-2.4c3-1.4 6.1-2.6 9.6-2z"/>
   <path class="cls-67" d="m83.6 48.1c0 .3-.1.6-.1.9-2.3 0-4.6.6-6.8-.8.8-.5 1.8-.8 1.1-2a5 5 0 015.6-.7c1.6.6 1.6 1.6.2 2.6z"/>
   <path class="cls-68" d="m77.8 46.2c.6 1.6.6 1.6-1.1 2h-2.6c-1.4-.6-1.7-1.1-.9-1.6a3.4 3.4 0 011.9-.7 12.4 12.4 0 012.7.3z"/>
   <path class="cls-69" d="m67.3 56.8-.5.7c-.9.9-1 .8-1.5-.7z"/>
   <path class="cls-63" d="m35.5 51.1 2 .8h-1.9c0-.3-.1-.6-.1-.8z"/>
   <path class="cls-69" d="m65.3 56.8h-.9v-1z"/>
   <path class="cls-70" d="m17.3 42.4c-2.1-1.5-3.1-3.3-2-5.9a5.3 5.3 0 00.1-1.8c.7-.4 1.3 0 1.8.4s1.8-.3 1.7-2.4-1.8-4.3.9-5.8c1.2.5 1.9 1.7 2.9 2.3 2.7 1.8 1 5.3 2.9 7.4a5.3 5.3 0 01.5 3.9 8.2 8.2 0 01-8.8 1.9z"/>
   <path class="cls-71" d="m20.2 27c-1.2.9-1.1 2.2-.6 3.4a12 12 0 01.4 6.5c-.2 1-1.3 1.3-2.2.6l-1.4-1.9c.5-2.3-.2-4.5-.9-7-1.1.6-1.1 1.9-2 2.3a6.2 6.2 0 01-2-3.8 18.3 18.3 0 01.7-3.2c.8-2.7 2.4-3.4 5.3-2.3.4.2.5 1 .8 1.6a4.6 4.6 0 012.2 3.2z"/>
   <path class="cls-72" d="m17.3 42.4c.1-.1.2-.3.3-.3s2.9-.3 4.3-.6a31.1 31.1 0 004.1-1.1l.4.5c2.2 1.9 2.5 5.5 5.8 6.3a1.7 1.7 0 01.5 1.9l-1 1.9c-5.8 2.1-8.5-2.3-11.6-5.7l-.9-1a11.4 11.4 0 01-1.9-1.9z"/>
   <path class="cls-53" d="m13.5 30.9 1-4.6a27 27 0 013 3.5 1.8 1.8 0 01.2 1.6c-1.1 1-.6 1.6.3 2.2s1.1.8.7 1.5a2.9 2.9 0 01-1.3.5 3.4 3.4 0 01-1 0l-1-.9c-.7-1.3-2.1-2.1-1.9-3.8z"/>
   <path class="cls-63" d="m20.1 45.3a16.3 16.3 0 012.9 2.3 9.4 9.4 0 008.7 3.4h1.1a2.8 2.8 0 00-.1.9h-2.9c-5.2.7-7.8-2.5-9.7-6.6z"/>
   <path class="cls-70" d="m17.3 42.4 1.9 1.9a1.9 1.9 0 01-1.9-1.9z"/>
   <path class="cls-73" d="m105.7 6.8c3 .2 5.9-.1 9 .5s4.6-.4 7-.5a3.3 3.3 0 012.2.2c2.5 1.6 4.5.8 6.3-1.2l1-.9c.9-.7 1.7-.3 1.9.5s2 2.5 4 2.4h6.1a1.7 1.7 0 001.8-1.9 5.3 5.3 0 012.8-.3c1.1.2 2.3-.3 3.7-.5.4 2 .8 4.3 1.2 6.5l-.5.5c-2.2 1.3-4.2 2.6-6.6-.2s-4.5-.7-6.8-1-3.5 0-5.2-.1c-3.4-.8-6.6-.6-9.5 1.4a3.3 3.3 0 01-3.1.8c-4.7-1.8-10-1.5-14.4-4.1a3.9 3.9 0 01-1-.8 1.4 1.4 0 01-.2-.7z"/>
   <path class="cls-55" d="m161.3 4c-.4 2.7 1.9 3.9 3.3 5.8a14.4 14.4 0 01-1.8 2.5 13.6 13.6 0 01-2.4 1.3.8.8 0 01-.9.3 2.7 2.7 0 01-.7-.8 3.2 3.2 0 01-.3-.9v-.6a1.2 1.2 0 01-.4-.8c-.4-2.7-1.6-4.6-4.7-4.6-.2 0-.5-.8-.4-1.1a1.1 1.1 0 01.8-.9l4.7-.3z"/>
   <path class="cls-73" d="m159.4 12.6v.9c-4.5 2.1-5.9 1.8-6.7-1.9 1.9.1 3.8-.8 5.8 0z"/>
   <path class="cls-74" d="m38.4 174.9c-4.3-.2-8.5-.8-12.3-3a11.8 11.8 0 01-2.1-1.8c.5-.9 1.5-1.4 1.7-2.4.2-3.6-1.5-6.8-1.7-10.3s.8-5.9 5.8-6.8a1.8 1.8 0 01-.4 2.8c-2.6 1.5-1.1 4.1-1.8 6-.1.3.7-.4 1.2-.2a5 5 0 012.1 2.2 4.9 4.9 0 01-.7 3.9c-.8 1.3.9.6 1 1.2 2.8 3.7 3.7 3.8 9 .4a13.8 13.8 0 001.7-2.5 1.3 1.3 0 011.2-.3 3.1 3.1 0 011.1 1.4 4.2 4.2 0 00.9 1.4c1 1.1 2.6 1.2 3.2 2.7a1.4 1.4 0 01-.7 1c-1.1.6-2.7.6-3.1 2-1.1 3.5-3.5 3-6.1 2.3z"/>
   <path class="cls-48" d="m29.8 150.8-2.1 1.1c-2.6 1.5-3 2.1-2.6 4.9s1.4 3.6.6 5.5c-.1.1 0 .4.1.5 3 1.6 1 4.1 1.1 6.3-4.6-1.3-4.8-4.1-4.9-9.8 0-2.2 1.8-4.8-1-6.6l.3-1.8 2.9-2.8 3.8-2.1a19.4 19.4 0 016.8-1.1 6.1 6.1 0 01.5 1.2 2.5 2.5 0 01-.5 1.9c-1.7.9-2.7 3-5 2.8z"/>
   <path class="cls-75" d="m48 170v-1l.4-.4a2.8 2.8 0 011.8-.2 2.2 2.2 0 011.1.5c1 .2.2-.4.1-.4s.2.1 0-.5c.5-2.8 0-5.6.2-8.4a2.2 2.2 0 012.1-1.4c1.8.9 3.6 1.9 4.5 3.9a4.2 4.2 0 01.2 2.5 15.7 15.7 0 00-.4 2.3l.3 1.7v1.2c-.3 1.4-.4 2.9-1.6 4h-1.9c-.6-.7-1.5-.4-2.2-.6s1.1 0 1.3.6a13.4 13.4 0 01-2.6.9h-4.2a4.5 4.5 0 01.9-4.7z"/>
   <path class="cls-76" d="m78.8 172a7.8 7.8 0 00-1.5 1 5.7 5.7 0 01-5.2 1.8c-1.7-.1-3.5.5-5-.8a4.9 4.9 0 002.5-5.1 5 5 0 01.2-1.2l.5-1.2a11.7 11.7 0 012.7-3.5c2.2-.2 1.3-4.2 4.2-3.4s-.1 5.3 2.5 7c.8 2 1.1 3.9-.9 5.4z"/>
   <path class="cls-77" d="m69.9 167.9c.4.9 1.2 1.7.8 3a17.8 17.8 0 00-.5 2.8l-3.1.3-4.6-.2a2.6 2.6 0 00-2.9 0h-1c-2.7-1.1-.3-3.2-.9-4.7l-.2-1a1.4 1.4 0 01.2-.6 3.1 3.1 0 01.7-.9 2.3 2.3 0 011.7-.8 1.4 1.4 0 01.9.8c.3.6.1 1.9 1 1.8s.5-2 1.6-2.5a17.8 17.8 0 016.3 2z"/>
   <path class="cls-78" d="m103.7 173.9h-5.2a12.9 12.9 0 01-2.6-.8c.5-.9 1.7-1.1 2.3-2.4a11.4 11.4 0 00-3.1 2.3h-5.7l-.4-.5c-.7-4.1 2.8-4.1 5.2-5.2s2.4-3.4 3.6-5a1.3 1.3 0 011.7.6c.6 1.2.8 2.9 2.9 2.5a3 3 0 012.4.6c.6 1.4 0 2.7-.6 3.9s-.1 2.7-.5 4z"/>
   <path class="cls-79" d="m21 152.7c1.7-.2 2.4 0 2.5 1a4.1 4.1 0 01.1 1.9c-.2 1.5-.5 3-.7 4.5s1.4 2.7.4 4.4.4 1.1.7 1.5 2 2.1 2.9 3.1c-.7 1.1-1.8.9-2.9 1a17.4 17.4 0 00-3-3.7 3.4 3.4 0 01-1.7-3.6q.4-4.6 1.2-9.3c0-.3.3-.5.5-.8z"/>
   <path class="cls-80" d="m48 170a7.3 7.3 0 01-.9 4.8c-1.2.2-2.3.6-3.5.7s-3.7.9-5.2-.6h1.4c2.8-.1 2.8-.1 3.1-3a1.6 1.6 0 011.4-1.6c1.2-.3 2.5-.2 3.7-.3z"/>
   <path class="cls-81" d="m78.8 172c.3-1.8.5-3.5.8-5.2a1.7 1.7 0 01-.1-1.2 10.6 10.6 0 01.9-2.5c1.5-1.5 2.8-1.9 4 .3.8 3.8-.3 6.6-3.7 8.5z"/>
   <path class="cls-82" d="m103.7 173.9c-.5-.5-1.2-.9-1.7-1.5s-.8-1.1-.6-1.5.9-.6 1.4-.8h1.4l.8.4h.4a1.3 1.3 0 00.8-.3c.6-.3 1.1-.8 1.7.1a2.3 2.3 0 000 2.9l.8 1.6a8.8 8.8 0 01-5-.9z"/>
   <path class="cls-76" d="m80.7 171.9a9.5 9.5 0 011.1-2c1.8-2 1.9-4.3 1.8-6.7 2.5.4 1.8 2.4 2.1 4s-.4 3.8 1 5.5a1.1 1.1 0 01-.2 1.1c-2.3.4-3.9-1-5.8-1.9z"/>
   <path class="cls-82" d="m95.1 172.9c.1-1.9 1.5-3 2.6-4.3s1.1-.3 1.2-.1a4.2 4.2 0 01.9 1.9 1.8 1.8 0 01-1.1 2.3 26.6 26.6 0 01-2.8.3z"/>
   <path class="cls-80" d="m57.7 169.1c.2.5.7 1.1.6 1.4a3 3 0 00.3 3.3h-1.9a7.7 7.7 0 011-4.7z"/>
   <path class="cls-48" d="m21 166.3c1.7.6 3 1.7 3 3.7a5.6 5.6 0 01-3-3.7z"/>
   <path class="cls-80" d="m53.9 173.9-2.8-.2c-.2 0-.4-.4-.6-.6s.4-.5.5-.4 2.9-.2 3.8 1.2z"/>
   <path class="cls-78" d="m86.5 173.8v-.9a2 2 0 012.8 0h.1c-.8 1.1-1.9 1-2.9.9z"/>
   <path class="cls-80" d="m59.6 173.8c1.4-1.1 1.4-1.1 2.9 0z"/>
   <path class="cls-83" d="m34.7 145.2a6.3 6.3 0 01-6.7.8 2.9 2.9 0 01-1-1.2l-.2-1.2c-.3-1.4-.7-2.8.1-4.1l.2-.2a3 3 0 01.8-.8c.9-1.8 2.2-1.5 3.7-.9s-.5 2.7-1.4 3.8a1.2 1.2 0 00-.1 1.3 4.2 4.2 0 001.6.4 4.2 4.2 0 001.2-.8c1-.9 2.2-2.1 3.4-.5s-.1 2.7-1.6 3.4z"/>
   <path class="cls-84" d="m20.1 140.6v-.4c.1-1.3.3-2.5.4-3.7a36.3 36.3 0 014.5-1c.4-.1 1.2.5 1.4 1s-.1 1.4-.4 1.5c-2.1.9-2.7 2.5-2.9 4.5a8.5 8.5 0 01-.3 2.3c-.1.3-.8.6-1.2.6s-1.1-.3-1.1-.6-.4-2.8-.6-4.2z"/>
   <path class="cls-84" d="m26.9 139.5c0 1.4-.1 2.7-.1 4.1-.8-1.4-1.5-2.8.1-4.1z"/>
   <path class="cls-84" d="m27.9 138.5-.8.8a6 6 0 01.8-.8z"/>
   <path class="cls-48" d="m27 144.8 1 1.2z"/>
   <path class="cls-32" d="m12.5 136.7c-1.3-1.2-3.7.4-4.5-1.5s-.3-3-.4-4.5a1.5 1.5 0 01.1-1.9h.2c.3-.3.5-.3.8.1s.1 2.1 0 3.2.5 3.5 2.9 3.7c.3-.1.6.5.9.9z"/>
   <path class="cls-32" d="m11.5 127.6 1.9.2c-1.1 1.5-2.6.8-4 .7v-.6l1.2-.3a.6.6 0 01.9 0z"/>
   <path class="cls-32" d="m14.7 130.8c-.2.9-.3 1.8-.5 2.7-1-1.6-1-1.7.5-2.7z"/>
   <path class="cls-85" d="m9.5 127.9a1.3 1.3 0 00-.1.6.5.5 0 00-.7.3h-.9a1.3 1.3 0 011.7-.9z"/>
   <path class="cls-32" d="m11.5 138.2 1-1.1z"/>
   <path class="cls-86" d="m52.9 128.8h1.9c2.6 2.4 2.6 2.4 7.6 2.6.4 3.9-2.6 4.7-5.2 5.8h-1.3l-1.9-.6a5.3 5.3 0 01-1.7-.8c-1.1-.6-1.9-1.4-3 .4a11.2 11.2 0 01-6.1 4.8 2.7 2.7 0 01-1.2-.6 39 39 0 01-1.7-4.8 10.4 10.4 0 015.2-3.8z"/>
   <path class="cls-86" d="m34.7 145.2.4-.8c.6-.7 1.3-1.4.6-2.4s-1.6 0-2.4.2h-.4a9.8 9.8 0 015.5-5.1 23.1 23.1 0 013.9 3.1 1.5 1.5 0 01.4 1.7 1.7 1.7 0 01-1 .6 4.5 4.5 0 00-3.1 1.1 3.4 3.4 0 01-.8.9 3.4 3.4 0 01-.8.9l-.5.4a1.7 1.7 0 01-1.8.1z"/>
   <path class="cls-87" d="m42.3 140.3c-3.1-.3-3.1-.3-3.9-3.1l1.9-1.8c1.9 1.1 3 2.6 2 4.9z"/>
   <path class="cls-88" d="m62.5 131.6a5 5 0 00-4.3 1.8 6.2 6.2 0 01-1.6 1 1.1 1.1 0 01-.9-.2c-.1-.1-.3-.6-.2-.7 1.2-1.9.4-3.3-.7-4.8a4.3 4.3 0 013.6-1.7 19.4 19.4 0 008.9-2.1c0 1.1-.2 2.2.9 2.9s.1.4.2.6-1.9 1.4-2.8 2-1.7 1.8-3.1 1.2z"/>
   <path class="cls-69" d="m65.3 76c.1-4.2 0-8.3.1-12.4a3.1 3.1 0 01.5-1.2c.4.4 1.1.7 1.2 1.1a42.5 42.5 0 011.5 5.9c.1.9-.7 1.9-1.3 3.4l2.8-1.6v1.4c0 1.2-.3 2.1-1.6 2.4z"/>
   <path class="cls-69" d="m67.3 82.8a26.1 26.1 0 010-2.8 3.5 3.5 0 01.8-1.6c0-.1.7.1.7.2s.8 1.6.6 2.1a3 3 0 01-2.1 2.1z"/>
   <path class="cls-69" d="m70.1 71.2v-5.8c1.6.7 2.2 1.7 1.3 3.3s-.8 1.6-1.3 2.5z"/>
   <path class="cls-34" d="m69.2 92.3c-1.4-1-.5-1.9 0-2.8a1.1 1.1 0 011.1-.1c.3.2.6.9.4 1.2s-1 1.1-1.5 1.7z"/>
   <path class="cls-69" d="m64.4 76h.9c0 1 .2 2.2-1 2.8z"/>
   <path class="cls-89" d="m109.5 43.3c-1.2.6-2.1 1.3-1.4 2.9l1.4 3.9c-2.6 1.2-5.1.2-7.7-.1-1.2-2.2-2.8-2.9-5.4-2.3s-5 .7-7.2-.8a1.1 1.1 0 01.4-1.2c3.9-1.9 7.8-3.9 12.3-3.9 2.2 3.8 3.9-.2 5.8-.5s2.1.5 1.8 2z"/>
   <path class="cls-89" d="m83.6 48.1c.2-.8.8-1.8-.8-1.9h-5l-2.7-1.9c-1.6-1-3-.9-4.2.6s-2.1 1.2-3.4.5a16.3 16.3 0 00-3.1-1.1 1.1 1.1 0 01-.1-1.2 3.4 3.4 0 011.2-.6c2.6.4 4.8-.8 7.1-1.7s3.7.7 5.5 1.4 4.6 2 7.4 1.1a2.9 2.9 0 013.8 2.9c-.6.5-.6 1.2-.9 1.9z"/>
   <path class="cls-90" d="m88.4 48.1c-.6-1.6-.6-1.6.9-1.9a9.5 9.5 0 002.1.9c1.9.3 3.7-1.1 5.6-.3h.4c.8-.7 1.7-2 2.8-1s1.1 2.2 1.6 3.3a3.3 3.3 0 010 1h-.9c-.6-.6-1.5-.4-2-.9-3.6.4-7-1-10.5-1.1z"/>
   <path class="cls-89" d="m111.4 50a2.8 2.8 0 00.1.9l-2-.9z"/>
   <path class="cls-89" d="m98.9 49.1 2 .9z"/>
   <path class="cls-2" d="m175.6 121.8c-1.7.6-3.1-.4-4.6-.9s-4.3-1.9-6.8-1.8a13.4 13.4 0 00-1.8-.7 2 2 0 01-1.7-2c0-1.1-.2-2.2-.2-3.3v-15.5c2.2-.9 4.4-1.7 6.6-2.7s1.5-1.6 1-3.2a1.4 1.4 0 00-2.3-.8c-1 .7-1.9 1.6-3 2.3a2.3 2.3 0 01-1.8.3 2.3 2.3 0 01-.5-1.6c-.1-1.1.1-2.2.1-3.3.2-5 .5-9.9.7-14.9a1.7 1.7 0 011.1-1.8l11.9-5.1c1.2-.5 1.9 0 1.9 1.3.1 5.2.2 10.5.1 15.8-.1 7.5-.4 15-.6 22.5-.1 5.1-.1 10.3-.1 15.4z"/>
   <path class="cls-91" d="m145.1 81.8-.3-.3c-1.7-4.1-1.6-5.3 3.2-5.5h6.1a2.9 2.9 0 002.5-1c.6-.2 1.3-.2 1.5.6a2.8 2.8 0 01.1.9c-.5 5.5-1 11.1-1.6 16.6 0 1-.6 1.4-1.5 1.4s-3.5.2-4.6-1.6-.8-1.5-.2-2.5a11.7 11.7 0 001.4-3.5 4.1 4.1 0 00-1.6-4.2c-.7-.4-1.8-.1-2.3-.9s-1.8-.2-2.7 0z"/>
   <path class="cls-92" d="m181.4 118.4a6.4 6.4 0 01.2.7c-.9.5-1 1.4-1.1 2.4s0 1.9-1 2.4c0-13 .1-26 .1-39 .1-4.9.1-9.8.1-14.7.3-.4.6-.4.8 0a26.2 26.2 0 01.1 2.8 18.6 18.6 0 010 15.5v28a2.5 2.5 0 01.1.8c-.3.8.2 1 .7 1.1z"/>
   <path class="cls-93" d="m148.7 83.6a19.3 19.3 0 01.3 3.3 2 2 0 01-1 1.4c-.5.3-1.4-.6-1.4-1.5s.3-2.2.5-3.3 1.1-.5 1.6.1z"/>
   <path class="cls-94" d="m148.7 83.6h-1.6a13.4 13.4 0 01.7-1.8c.9-.1 1.8-.2 2.3.9z"/>
   <path class="cls-95" d="m179.6 67.3.9 1.9c-.3.4-.6.4-.8 0z"/>
   <path class="cls-28" d="m179.7 69.2h.8v1h-.8z"/>
   <path class="cls-96" d="m76.8 159.5c-.9.5-.8 1.5-1 2.4s-.3 2.2-2.8 1.4l-5.7-4c1.7-3.5 5.2-3.3 8.1-3.5s4.9-2.4 4.6-5.8c-.9 2.5-.9 5.6-4.7 5.6s-5.2-1.6-7.1-4-3.9-1.7-4-4.2a2 2 0 01.5-1.9 5.1 5.1 0 011.8-.9l1.2.2c2.2 1.4 4.3.8 6.4-.3s5.2 3.7 8 .4c1.2-.7 1.4-2 2.1-3a5.2 5.2 0 011.6-1.7c2.5-1.6 1.2 4.9 4.2 1.9s2.6 1.8 4.2 1.9.3-1.3.3-1.9a2.8 2.8 0 01.2-1.8c.5-.8 1.1-1.3 2.1-.9a22.2 22.2 0 00.3 3.7 5.2 5.2 0 001.1 1.9c2.4 0 4.9.7 7-1.1a1.7 1.7 0 011.2-.1l.9.6c.4.5.8 1.2 1.6 1.1h2.1l.8.6a3.3 3.3 0 00.6 1c1.5 2.5-.1 3.3-2.2 4.1.5.6 1.3.3 2 .3s2.8-1.6 3.8.2-.6 2.9-1.9 3.7-3.3 3-5.6 3.5-4.1 1.2-6.2.3c-.3-.2-.7-.5-.6-.7 3-4 .6-5.4-2.7-7.7s-4.1 1-5.5 2-.4 2.7 1.1 3.6 2.7 1.3 2.4 3.1a38.2 38.2 0 00-8.3 5.4h-1.3c-2-5.1-7-3.7-10.6-5.4z"/>
   <path class="cls-97" d="m96.8 139.4-1.9.9a2.2 2.2 0 01-1.4-.3c-7.2-2.8-9.6-1.7-11.5 5.2-4.4.7-5 0-4.6-5.2-1.5.3-1.6 2.4-3.2 2.5s-5.1-1.3-4.2-5.2c-1.9 1.4-1.4 3.3-2 4.9a7.2 7.2 0 01-1.7 2.9l-1.1.9c-1.6-3.2-.8-7.5-4.7-9.6 2.2-4.5 7.7-7.3 12.1-6a34.2 34.2 0 015.4 1.8c4.1 1.3 8.2-.2 12.2-.3s5 .4 6.7 2.7c-.1 1.6-.1 3.2-.1 4.8z"/>
   <path class="cls-98" d="m105.6 144.1c-3.1 3.2-3.3 3.2-7.4.9-.1-5.2-.3-10.5-.4-15.7 0-1.2.9-1.4 1.9-1.4l.6.4c1 1.5.6 3.4 1.2 5s.4 2 .7 2.9.9 1 1.6 1.3l1.1.4a4.9 4.9 0 011.2 1.3 7.2 7.2 0 01.9 2 2 2 0 010 1.1 3.6 3.6 0 01-1.4 1.8z"/>
   <path class="cls-99" d="m100.8 137.4v-3.3c-1-2 .3-4.4-1-6.3h-.1a9.3 9.3 0 012-1c1-.3 2.1-.4 3.1-.8s2.2-.5 3.1.6-.3 1.9-1 2.6l-.2.4v.7a12.7 12.7 0 01.1 2 6.6 6.6 0 01.1 1.4c-.3 1.8.6 4.2-2.3 4.8-.9-1.4-2.7 0-3.8-1.1z"/>
   <path class="cls-100" d="m96.9 134.6c-1 .4-1.9.6-2.5-.5a13.8 13.8 0 00-.8-2c-1.5 1.1-3.1 1.9-4.9 1.4s-5.9-.2-8.8.8a1.7 1.7 0 01-2.1-.8 3.9 3.9 0 00.8-1c1.8-3.5 5.2-1.2 7.6-2.1a.9.9 0 011.2.3c2.8-3.2 3.2-3.5 6.5-1.1 1.8 1.3 2.1-.2 3-.7z"/>
   <path class="cls-101" d="m114.3 137.5c.3.9.7 1.8 1.1 2.8.1 2.8 2.6 1.7 4 2.4s1.1.6.8 1.4c-2.2 2.6-5.1 2.1-7.9 1.9-.3.4-.6.3-.6-.2h-.1a2.3 2.3 0 01-2-2 4 4 0 01.8-3.6c1-1.3 2-2.5 3.9-2.7z"/>
   <path class="cls-102" d="m105.7 132.1a9.9 9.9 0 01.9-2.4h.1c.7.1 1.7 0 1.8 1 .4 3.2.8 6.3 1.1 9.5.6 1.1.3 2.4.4 3.7s.1 1.5-.7 1.9c-1.4 1.5-1.9.1-2.6-.9a1.4 1.4 0 000-.9 1.1 1.1 0 01-.1-1.8v-1a4.4 4.4 0 01-.5-2.2c-.1-2.3.4-4.7-.4-6.9z"/>
   <path class="cls-103" d="m109.6 144.2v-4h.8v3.9c-.2.5-.5.5-.8.1z"/>
   <path class="cls-77" d="m86.5 130.7a8 8 0 01-2.5 1.1c-2.4.4-4.3.9-5.2 1.7-.7-1-1.6-1.8-1.6-3.2a2.4 2.4 0 01.6-1.1c1-1.3 2.7-.5 3.9-1.4h.9c1.7.4 2.6 1.9 3.9 2.9z"/>
   <path class="cls-77" d="m73 126.8 3.9 1c.5.5 1.5.8.9 1.9-3.1 3.5-3.8 3.3-6.1-1.4 0-.8.8-1 1.3-1.5z"/>
   <path class="cls-13" d="m86.5 130.7c-1.9-.2-2.6-1.9-3.9-2.9.8.1 1.9-.1 2.3.4s1.7-.1 2.5-.4v2.9z"/>
   <path class="cls-13" d="m77.8 129.7-.9-1.9h4.8z"/>
   <path class="cls-88" d="m73 126.8-.9 1a4.2 4.2 0 01-1.2.8 2.7 2.7 0 01-2.7-.8c1.4-1.6 3.2-.7 4.8-1z"/>
   <path class="cls-13" d="m88.4 126.8-1 1z"/>
   <path class="cls-2" d="m58.5 117.1c-2.6-1.5-5.6-2.1-8.5-2.9s-3-.9-3.1-3.9c-.2-12.3-.4-24.6-.7-36.8a49.9 49.9 0 00-.6-7.7 2.4 2.4 0 011.2-2.8l11.3-7.1c.8-.4 1.8-1 2.6-.8s.6 1.6.6 2.4c.5 10.4-.3 20.8-1.1 31.1s-.6 17.9-.5 26.8c.4 1.1.6 2.1-1.2 1.7z"/>
   <path class="cls-104" d="m22.2 82.7a73 73 0 01-2-15.4c3.1.1 6.6-1.3 9 2.1-.3.7-.3 1.8-1.5.8a4.3 4.3 0 00-1-.9c-.9-.5-2.2.1-2.2 1a9.2 9.2 0 00.2 3.7c2.6 7.7 2.6 7.7 8.1 14.1 0 1.4 1.3 2.5.6 4s-.6 1.5.6 1.1c3.8-1.3 2.6 1.9 3.2 3.5s-.1 4.7.6 7.1-.9 3.8-3.5 2.3-2.1-1.6-3.3.5-3.9 2.2-4.8-.9a37.3 37.3 0 00-1.6-3.5 15.5 15.5 0 01-1-6c.4-4.6-.5-9.1-1.4-13.5z"/>
   <path class="cls-105" d="m25 102.8c2.1.3 2.1.3 2.1 2s-.6 2 .9 2.3l1.8.2a5 5 0 00.1-1.7c-.1-1.5 1.1-1.9 2-2.3s1.1.1 1.2.2 1.4 1.1 2 1.7.9 1.1 1.5.3 1.1-1.8.3-2.1-1.1-1.6-.5-2.8a6.7 6.7 0 00-.1-2.8c-.2-1.4-.5-2.7-.8-4.2l-1 .8c-1.2 1.2-1.7 1.3-2.7.7s-.6-1.7-.2-2.5a15.8 15.8 0 001.2-1.5c.1-.1-.2-.6-.4-.6s-.8-1-.1-1.6a1.4 1.4 0 00.5-.8 16.6 16.6 0 017.5 7.3c.7.3.4 1.3 1.2 1.5 2 4.6 1.1 9.6 1.2 14.4 0 1.9-1.6 1.5-2.9 1.6-3.9.2-7.9-.5-11.8.4l-1.8.2c-1.1 0-1.4-.7-1.3-1.7-.7-2.7-.2-5.5-.3-8.3a1.6 1.6 0 00.4-.7z"/>
   <path class="cls-106" d="m29.2 69.4c-1.2-.6-2.5-1.6-3.9-1s-3.5-.4-5.1-1.1-1.1-2.2.3-3.6a180.2 180.2 0 0119.4.5 4 4 0 013.3 2.2c.9 1.2.4 2.7.5 4.1s-.2.7-.4.7c-3.4-1.4-3.4-1.5-5.3 2.5s-1.4 7.1-.4 10.8a2.7 2.7 0 01-2.3 1.2c-4.5-3.3-5.8-7.3-4.3-12.3a20.2 20.2 0 00.7-2.3c.2-1.3-.4-1.7-2.5-1.7z"/>
   <path class="cls-107" d="m43.1 71.1c.1-1.6.1-3.1.1-4.7a6.2 6.2 0 011 2c.1 4.5-.1 9 .1 13.4.1 1.9-1.3 2.8-2.2 4a2.5 2.5 0 01-1.2.1 8 8 0 01-3-.9l-.4-.5-.5-.8c-3.6-4.6-3.5-6.3.6-10.5 1.3-2 4.1-.3 5.5-2.1z"/>
   <path class="cls-108" d="m28 113.3a12.5 12.5 0 012.5-.9h8.6c2.9 0 3.2-.2 3.1-3.3s.3-5-.4-7.5.4-3.1-.3-4.6l1.5.3.3 14.3c0 1.4-.4 1.7-1.6 1.7z"/>
   <path class="cls-109" d="m39.5 89.8a13.7 13.7 0 012.8-1c.2-.1.9.4.9.6s-.1 2.5-.2 4.1c-1.7-.9-2.4-2.3-3.5-3.7z"/>
   <path class="cls-110" d="m41.3 85.5.8.3a2.3 2.3 0 01-2.6 1.5l-3-.9c-.3-.2-.5-.7-1.1-.6h-.1l2.2-1.2h.1c1 1.1 2.6-.1 3.7.9z"/>
   <path class="cls-111" d="m58.5 117.1c1.1-.1.9-1.1 1.2-1.7s.6.5.6.7a8.8 8.8 0 01-.2 1.7z"/>
   <path class="cls-108" d="m41.5 96.9c-.9-.1-1.1-.7-1.2-1.5z"/>
   <path class="cls-106" d="m35.4 85.8 1.1.6z"/>
   <path class="cls-105" d="m22.2 82.7c1.1.7.6 2.1 1 3 1.4 2.6 1 5.5.8 8.2s.7 5.9 1 8.9c-.3.5-.6.5-1 0s-.3-1.2-.4-1.8c-.5-6.1-.9-12.2-1.4-18.3z"/>
   <path class="cls-112" d="m24 102.8h1c0 3-.1 6-.1 9a24.7 24.7 0 01-.9-9z"/>
   <path class="cls-113" d="m109.5 43.3-1.9-1.9c-.1-.2-.1-.4-.2-.6 1.2-3.4 4-1.1 6-1.8l1.2-.3a19 19 0 012.5-.3h1.1a10.2 10.2 0 003.5-.3 2 2 0 011.1 0c.4-.1.8 1.1 1.2.1a2.4 2.4 0 011.1-.6c3.7-.1 7.4-1.6 11.1-.3l.6.2.6.4a3.9 3.9 0 011 .8l.9.9c2 1.8 4.1.3 6.2.1l1.2-.2c3.2-2.7 8-2.5 10.8-5.9a2.1 2.1 0 011.8.8 6.9 6.9 0 01.5 1.3 2.2 2.2 0 00-.1.8c-1.3 1.8-1.9 4-3.5 5.5s-3.1 2.9-5.4 1.3a11.3 11.3 0 00-2.2.8c-2.1 1.4-4.2 2.3-6.7 1.3a6.3 6.3 0 00-2.4-.2 3.4 3.4 0 01-2.9-1.4 4 4 0 00-1.3-1.3c-2.7-1.8-2.8-1.9-5.3.1-1 .7-1.7 1.3-2.9.3s-1.4.2-2.2.2a4.8 4.8 0 01-1.7-.5c-1.6-.7-1.6-.7-2.1.8s-.6 1.4-1.6.8-1.4-.7-1.8-.5c-2.2 1.1-3.2 0-4-1.8-.1-.3-.8-.2-1.3-.2a3.7 3.7 0 00.1 1.1c0 .3.3.6.4.9s0 1.5-.8 2a1.4 1.4 0 01-2-.6 5.5 5.5 0 01-.6-1.8z"/>
   <path class="cls-114" d="m150.8 43.3c2.7-.4 5.1-1.4 5.7-4.3s2.2-2.2 3.1-3.5 4-.3 6-.3a2.1 2.1 0 011.2 2.3 2.9 2.9 0 01-3 2.5c-2 .2-3.8.7-4.6 2.8a3.9 3.9 0 01-.8 1c-1.2 2.5-4.2.7-5.7 2.4a.9.9 0 01-1 0z"/>
   <path class="cls-115" d="m171.9 21.2c.3-.4.4-1.3.8-1.3s1.1-.7 1.1-1.5a5 5 0 012.1.9c.7.5.8 1.3-.3 1.8s-1 .4-1 .7.6.8 1.2.9a25.2 25.2 0 013.7.8 29.8 29.8 0 00-2.4 2.2c-.7.8-.2 1.7 1 1.9s.6-.1.9-.1 1.6 1.4.8 2.5-1 .8-1.6 1.4l4.3 2.1-3.1.8a12.7 12.7 0 00-2.7 1.8 22.3 22.3 0 00-1.9 2.4v-1.9a3.5 3.5 0 01-1.1-4.7 3.6 3.6 0 00.1-3.6c-.9-2.3-2.2-4.5-1.9-7.1z"/>
   <path class="cls-13" d="m174.8 27.9c1.2 1 1.4 2.5.5 3.4s-.9 3.5-.5 5.3a8.8 8.8 0 00-6 1.5l1.3.7a1.3 1.3 0 01.5 2c-.4.6-1.3 1.3-1.9 1.2a55.2 55.2 0 01-5.4-1.6l-.4-.4a1 1 0 01.4-.5 2.8 2.8 0 002.8-2c3.2-2.9 6.8-5.5 8.7-9.6z"/>
   <path class="cls-13" d="m161.3 41.4-1.9 1.9-.4-.6c0-1.2.6-1.8 1.8-1.7a1 1 0 01.5.4z"/>
   <path class="cls-53" d="m181.5 40.4c-.2.3-.3.6-.6.7l-.6-.3.3-.3z"/>
   <path class="cls-13" d="m163.3 40.4-2 1c0-1.7.9-1.6 2-1z"/>
   <path class="cls-13" d="m159.4 44.3h-.9c-.3-.2-.4-.4-.3-.7l.3-.3q.5-.6.9 0z"/>
   <path class="cls-116" d="m118 51c-.2.1-.5 0-.8 0 2-.9 3.9-1.9 5.9-2.7a3.4 3.4 0 012.2.2 2.6 2.6 0 011.1 1.4 1.9 1.9 0 01-.8 1.1 9.1 9.1 0 01-1.7.9c-1.7-1.6-3.9-.7-5.9-.9z"/>
   <path class="cls-22" d="m158.5 43.3v1.9c-1.7 1.9-3.8 1.1-5.8 1 .1-1 .5-2.1 1.6-1.7s2.9-.5 4.2-1.2z"/>
   <path class="cls-22" d="m151.7 46.2h1c-.3.7-.6.7-1 0z"/>
   <path class="cls-95" d="m180.6 88.5v-15.5c1.5-1.2.5-3 1.1-4.4s.4-.7.5-.7 1 .4 1 .7a9.7 9.7 0 01.2 2.4c.2 2.1.2 4.3 2.4 5.6a1.1 1.1 0 01.3 1.2c-.5 1.3-.4 2.7-1.1 4.1s-2.3 5.1-.9 8.1c.6 1.3-.2 2.4-1 3.4a.8.8 0 01-.8.2 1 1 0 01-.4-.7 7.4 7.4 0 01.4-1.4 2.5 2.5 0 00-1.7-3z"/>
   <path class="cls-95" d="m183.5 99.4-1.2 1c-.2-.4-.7-.7-.7-1.1a11.5 11.5 0 01.6-1.7s.7.1.8.3a6.4 6.4 0 01.5 1.5z"/>
   <path class="cls-28" d="m182.5 105.7-.4-.2.4.2z"/>
   <path class="cls-92" d="m183.4 116.2h-1.9c.6-.9 1.3-.9 1.9 0z"/>
   <path class="cls-85" d="m9.7 125.8c-.7 1.1-1.8 1.2-3 1a1.9 1.9 0 01.2-.8z"/>
   <path class="cls-85" d="m6.7 126.8-.8 1c-.1-.6.1-1 .8-1z"/>
   <path class="cls-85" d="m12.9 125.7h-2.6a2.5 2.5 0 01.4-.7h1.8a2.5 2.5 0 01.4.7z"/>
   <path class="cls-85" d="m7.7 128.8v1.9c-.8-.7-1.1-1.3 0-1.9z"/>
   <path class="cls-85" d="m11.5 127.6z"/>
   <path class="cls-117" d="m158.4 142.1q-.9 1.7-1.8 0a1.5 1.5 0 011.8 0z"/>
   <path class="cls-118" d="m158.4 142.1h-1.8c.6-1.1 1.1-1 1.8 0z"/>
   <path class="cls-119" d="m102 158.9 6.4-1.2c1.4.7 2.7.2 4.1-.2 4.6-1.1 6.1-.3 8.5 4.2a3.8 3.8 0 01-.9 3.5l-1.9 1a1.9 1.9 0 01-1.6-1.1c-2.4-4-2.8-.4-3.7.9a2.4 2.4 0 01-2.4.9 2.1 2.1 0 01-1.1-.4 7.7 7.7 0 01-1.2-2.6 5.6 5.6 0 01-.5-.8.9.9 0 00-.7-.3.8.8 0 00-.6.4 5.6 5.6 0 00-.5.8 6.9 6.9 0 01-.5 1.3 2.7 2.7 0 01-.8.7 2.9 2.9 0 01-2.7.2c-.2-.2-.4-.3-.5-.5a4.6 4.6 0 01-.6-2.5 7.4 7.4 0 010-2.1 2.4 2.4 0 011.2-2.2z"/>
   <path class="cls-120" d="m124 158.6c2.4-.3 4.8-.2 6.5 1.9 0 2-1.5 2.9-2.9 4 .5 1.1 1.4.7 2.1.7a19.3 19.3 0 002.4-.1c2 0 2.3.3 2.3 3-3.5 2.3-7 2.4-10.5 0l-2-2a4.5 4.5 0 01-.7-5.2 2.4 2.4 0 01.6-1.1 2.9 2.9 0 012.2-1.2z"/>
   <path class="cls-78" d="m117.2 165.1a5.2 5.2 0 001 1.1c1.8 1.3 2.2 2.8 1 4.8l-1.1 1.9-1.8-.2c-.9-.1-1.3-1.8-2.3-1.1s-1.1 1.5-1.6 2.3a3.4 3.4 0 01-.8-.9l-3.3-2.7c3.5-1 7-1.7 8.9-5.2z"/>
   <path class="cls-121" d="m123.9 168.1c3.5 1.2 7 1.6 10.5 0l1 1c-1.4 1.7-3.6.4-5.2 1.6-2.1-.9-3.5.3-4.9 1.5a1.6 1.6 0 01-.9.3 1.1 1.1 0 01-.8-.1.8.8 0 01-.1-.8c1.2-1.1.3-2.4.4-3.5z"/>
   <path class="cls-122" d="m122 160.5a7.7 7.7 0 00-.1 5.6l-1.8-.9v-3.8c.4-.8.9-1.5 1.9-.9z"/>
   <path class="cls-123" d="m117.2 165.1c-.1 2.6-.6 4.8-4 4.6a1.2 1.2 0 00-.7.5c-.3 1.4-.9 1.2-2 .5a11.9 11.9 0 00-2.2-.5h-.4l-2.2 1.6-1-.9-1-1 .9-4a.8.8 0 01.2-.8c.5-.6.4-1.5.7-2.2a.5.5 0 01.4-.6 1.1 1.1 0 011-.5 2.2 2.2 0 011.7.5h.2v.3c.4 1.1 0 2.4.8 3.4 1 .6 2 .9 2.8-.3s0-2.8 1.2-3.8 1.6-1.1 2.5-.6a3.8 3.8 0 011.2 1.8 5.4 5.4 0 01-.1 2z"/>
   <path class="cls-45" d="m111.6 172.9.8.9z"/>
   <path class="cls-124" d="m122 160.5-1.9.9a12.8 12.8 0 00-1.7-2.2c-1.4-1.3-3.2-1.8-4.7-.7s-3.7.6-5.3-.8c.6-.2 1.4-.2 1.8-.6s2.8-2.4 4.4-3.3.7-1 1-1.5 0-.4-.1-.4l-.8-.5c-.1-.1-.3 0-.4.1s-1.9 1.9-2.6 1.7-2.4-1.3-3.9-2.3a18 18 0 012.4-1c2-.1 2.2-1.4 2.2-2.9l2.8.2c3.6 3.7 7.4 7.3 6.8 13.1z"/>
   <path class="cls-125" d="m122 160.3c-.5-1.1-2.3-2.1-.8-3.7.1-.1-.4-.9-.7-.9s-2.1-.5-2-2.3-1-2.3-1.6-3.4a26.1 26.1 0 01-1.7-2.8c2.3-.7 4.3.6 6.4.9.5.1.9.8 1.4 1.1s.6 3.4 1.6 4.6-.4 3.2-.6 4.8z"/>
   <path class="cls-126" d="m120.2 144.1-1.4-1.2a.7.7 0 01.3-.8l1.8.3a12.2 12.2 0 01-.7 1.7z"/>
   <path class="cls-124" d="m111.7 145.8a.5.5 0 01.6.2 3.1 3.1 0 01.1 1z"/>
   <path class="cls-127" d="m119.1 142.1a1.3 1.3 0 00-.3.8c-1.4.2-2.7.5-4.1.6a.8.8 0 01-.6-1.3c.4-.7.9-1.3 1.3-1.9s2.6 0 3.7.9z"/>
   <path class="cls-128" d="m165.2 35.6c-1.9 1.5-3.8.9-5.6-.1h-.1a1.8 1.8 0 01-.9-1l-.9-.9h-.5l-.9-1-.5-.6c-.5.3-.3.8-.5 1.2a3.6 3.6 0 01-.7 1 3.3 3.3 0 01-2.4.2 3 3 0 01-1-.7 6.5 6.5 0 01-1.1-2.2 7.8 7.8 0 01-.4-2.6 5.3 5.3 0 01-.1-1.3 13.8 13.8 0 00-.5-4.5 4.1 4.1 0 01.1-2.2c1.5-2.8 3.2-2.4 5.1-.3s4.5 6.2 7.5 9.6a42.9 42.9 0 00.2-7.9c.2-2-.5-4.2 1.6-5.7s2.3-.9 2.9 1.1a8.4 8.4 0 00.5 1.7 11.3 11.3 0 011 1.3 28.7 28.7 0 01.1 9.7c-.8 1.8-.6 4.2-2.9 5.2z"/>
   <path class="cls-129" d="m163.6 16.5-.5 6.6c-.8.2-1.2-.3-1.6-.9-2.5-3.8-6.3-5.5-10.7-5.8-1.4-.1-2.8.6-4.2.5s-1.6-1.2-2.6-1a4.5 4.5 0 01-2.8-.9 3.9 3.9 0 01-1-.8c-1.7-2.4-4.7-1.7-7-2.7a1.6 1.6 0 01.3-1.8l9 .2a3.5 3.5 0 001.7-.4 1.2 1.2 0 011.9.5c.6 1.1 1.3 2.1 2.1 3.4a12.1 12.1 0 012.3-1.9 8.3 8.3 0 012.2.1c.1 1 .5 1.8 1.7 1.9h6z"/>
   <path class="cls-130" d="m167.1 20.3v-1c1.9-.2 3.7.1 4.9 1.9s1.6 4.7 2.9 6.7-2.2 4.7-3.2 7.1c-2.2.2-3.6 1.9-5.5 2.5l-.9-1.9 1.8-5c1 .8 1.9 1.8 3.2.5a2.6 2.6 0 00.7-2.9 52.3 52.3 0 00-3.9-7.9z"/>
   <path class="cls-131" d="m103.7 5.9c-3.7-1.1-7.8-.4-11.3-2.2 0-.3-.1-.5 0-.5l.4-.2h11.9l.6.6c2.2 1.1 2.2 1.1.6 2.8l-.2.3c-1.2.8-1.4-.3-2-.8z"/>
   <path class="cls-132" d="m35.5 17.4c.3-1.9.6-2 2.9-2.1a3.5 3.5 0 011.3-.5 16 16 0 012.3.3c1.7.3 3.9.5 4 2.5s-2.2 1.7-3.6 2-3.4.6-1.7 2.9c3.5 1.5 4 3.2.5 5.5-1.9 1.2-2.3 2.9-.2 4.5h2.5a5.5 5.5 0 012.8.7c2.6 4.3-1.5 4-3.5 5.1s-6.2 1.7-8.4-1.8l-.6-1.3a9.1 9.1 0 01-.3-2.3 16.4 16.4 0 01.4-3.8c1.2-3.7-.9-8.1 1.6-11.7z"/>
   <path class="cls-133" d="m22.2 29.9c-1.8-.6-1.8-.6-2-2.9.7-2.1-.7-5.2 2.9-5.8 1.8-1.2.4-2.9.7-4.4h1c.7.3 1.5.8 1.6-.6s.7-1.6 1.6-.9 2.1.9 3.3-.2 2.1 0 3.3 2.3c-2.5 1.4-5.6 2.1-7.1 5.1s-2 6.1-5.3 7.4z"/>
   <path class="cls-134" d="m26.9 22.2a3.9 3.9 0 011.9-3.2 18.8 18.8 0 013.6-2.1c.6-.2 1.5.3 2.2.5h.9c-.1 4.3.5 8.6-.7 12.8-1-.6-1.1-1.5-1.3-2.5a7.4 7.4 0 010-2.1 12.1 12.1 0 010-1.9v-1.2a8.6 8.6 0 00.1-1.6 1.9 1.9 0 00-.1-.8.5.5 0 00-.6-.3l-.8.3-1 .8-.7.7a3.9 3.9 0 00-1.1 1.7 2.3 2.3 0 00.4 1.6l.8.9.3.5a5 5 0 01.4 1.3c-.9 2.3-1.9 4.4-4.5 5.3-2.5-3.6-1.6-7.2.2-10.7z"/>
   <path class="cls-70" d="m23.1 21.2c-.8 1.1-2.1 1.7-1.5 3.5s-.9 1.5-1.4 2.3c-.5-1.4-2.1-2.2-1.9-3.8l.8-.5c.5-.7.8-1.9 1.3-2.1s1.8.4 2.7.6z"/>
   <path class="cls-133" d="m35.6 10.7 2.9-1c-.7 1.6-1.3 3.1-1.9 4.7a5.3 5.3 0 01-1.8-.1.9.9 0 01-.5-1.4 25.3 25.3 0 001.3-2.2z"/>
   <path class="cls-58" d="m39.4 15.4h-1a2.2 2.2 0 00.1-.8c.4-.3.7-.4 1.1-.1a.8.8 0 01-.2.9z"/>
   <path class="cls-135" d="m39.4 14.5h-.9c.9-1.3 2.3-1.5 3.7-2s5.8-1.6 7.2-4.8c.3-.8 1.8-1.1 2.8-1.4s1.8.3 2.4 1.1a2.3 2.3 0 001.1.7c1.6-.2 1.9.7 2 2a6 6 0 00.9 1.5h1.9c2.4 1.3 3.3-.9 4.7-1.9s2-1.7 2.8.2a4.5 4.5 0 010 2.8c-.7 1.7-2.4 2.4-3.8 3.3-4.1.7-7.7-1.1-11.4-2.2-2.1-.5-4.1-1.1-5.9.4s-4.9 1.8-7.5.3z"/>
   <path class="cls-56" d="m49.1 3.9-1.8 1.4a1.7 1.7 0 01-2.1-.1.8.8 0 01-.2-.4c.2-1.2 1.1-.7 1.8-.8z"/>
   <path class="cls-136" d="m133.5 9.7v1.9c1 2.2-.3 2.6-1.9 2.2s-3.2-1.2-4.9-.4-1.5 3-2.7 4.2-1.6-.6-2-1.4-4.1-3.2-6.9-1.9a4.1 4.1 0 01-1.1.7 2.3 2.3 0 01-1.8-.2 19.8 19.8 0 00-3.1-1.9 29.3 29.3 0 00-14.1-.2c-6.7 1.7-12.2-.2-18.2-1.7a2 2 0 01-.2-1.3 28.9 28.9 0 019.9-2.9c1.9.4 3.8 1.1 6 .2a6.1 6.1 0 015.5.8c2.5 2.1 5.1-.6 7.7 0a38.9 38.9 0 014.4 1.6c.5.2.9.9 1.6.4s3-.1 4.4.5 1.5 1.5 2.5 1 2.4 1.6 3.9.9 1.7-2.5 3.5-2c1.7-1.9 3.6-1.5 5.6-.7a4.1 4.1 0 001.9.2z"/>
   <path class="cls-137" d="m67.3 9.7c-.6-.4-.9-.2-1 .4-.4 2.1-2.5 1.5-3.7 2.3s-1.5-.1-2.1-.8a7.7 7.7 0 002.4-1.2 6.8 6.8 0 001.4-2.5c1.2-2 1.5-2 3.3-.4a1.7 1.7 0 002.1.3 54.4 54.4 0 015.2-1.9l1 .9v1.9c.3.3.4.5.3.8s-.1.4-.2.4-2.6-.3-3.6.7-3.7.6-5.1-.9z"/>
   <path class="cls-60" d="m75.9 9.7v-1c.6-.1 1.4-.1 1.7-.5 2-2.5 5-2.3 7.6-2.9 1-.3 1.1.8 1.3 1.5a12.7 12.7 0 00-2.7 1.8 2.8 2.8 0 01-2.5.6 22.8 22.8 0 00-4.4.5c-.4.3-.7.3-1 0z"/>
   <path class="cls-73" d="m105.7 7.8c-1.1 1.3-2.8 1.4-4.3 1.8a2.8 2.8 0 01-3.4-1.8l5.7-1a7.5 7.5 0 012 1z"/>
   <path class="cls-8" d="m105.7 7.8-2-1v-.9l2 .9z"/>
   <path class="cls-60" d="m75.9 6.8-1-.9z"/>
   <path class="cls-138" d="m64.4 43.3v1c-1.3 0-2.6.1-3.9 0s-4.1 0-5.5 1.1-4.8.7-7.2 1.1c-1.5-1.6-2.8-.6-4.1.3a2.2 2.2 0 01-1.4.3 5.8 5.8 0 00-5 0c-1.8.7-3 .4-3.8-1.4l-.7-1.1a8.6 8.6 0 01-.7-1 1 1 0 01-.4-.5 12.9 12.9 0 01-2.3-4.7 2.1 2.1 0 01.5-1.2 3.5 3.5 0 013.3-.3 2.8 2.8 0 011.1.8c1.6 4.6 5 6 9.6 5.2l1.2-.4a10.2 10.2 0 012.5-.6 3.3 3.3 0 011.3.4c3.7-1.2 7.4-.2 11.1-.1 1.5 0 3.2-.3 4.4 1.1z"/>
   <path class="cls-63" d="m33.7 44.3 1 1.5c.3.9 1 1.4 1.7.8 2.3-2 4.1-.7 5.9.5a43.4 43.4 0 00-9.3 2.2c0 .1-.2-.1-.3-.2a4.7 4.7 0 00-1-1c-1-2.1-.5-3.5 2-3.8z"/>
   <path class="cls-139" d="m26.9 22.2c-.2 2.2-1.2 4.4-.2 6.8.3.5-.3 1.4-.4 2.2s.4 1 .6 1.6h.7l1.1.8a3.2 3.2 0 01.4 3.8c-2 2.7-3 .5-4.1-.9s-2.1-1.2-1.8-2.6.5-3-1-4.1l2-4.1c.7-1.3 1.1-2.8 2.7-3.5z"/>
   <path class="cls-63" d="m25 36.6c1.3.5 2.2 2.2 3.9.9l.4.2a5.6 5.6 0 00.5.8l2.9 4.8c-3.1 1.2-4.9-1-6.7-2.9-.3-1.2-.7-2.5-1-3.8z"/>
   <path class="cls-70" d="m26 40.4 6.7 2.9a9.4 9.4 0 001 1c-1 1.1-2.3 2-2 3.8-.7-.1-1.1-2.4-2.3-.3a1.4 1.4 0 01-1.5.5 1.3 1.3 0 01-.5-1.9l.3-.4c1.1-1.1.6-2-.4-2.8s-1.2-.6-1.4-1.1 0-1.1.1-1.7z"/>
   <path class="cls-8" d="m159.4 12.6-.9-1z"/>
   <path class="cls-140" d="m53.8 158.6-2.1 1.1a4.2 4.2 0 01-.9 1.4 5.9 5.9 0 00-1.1 1.9 3.6 3.6 0 01-.7 1 2.4 2.4 0 01-1.1.6l-.6-.2c-1.5-1-1-2.8-1.8-4.1h-.5l-.4.3c-.5 1.1-.2 2.3-.8 3.4l-.4.5h-1.1a4 4 0 01-1.6-2 6.1 6.1 0 01-.4-2.4 6.5 6.5 0 00-.5-2.7 17.4 17.4 0 00-1.1-1.8 13.7 13.7 0 01-1.6-1.8 2.5 2.5 0 01-.1-1.2c3.3-2.5 4.6-6.8 8.2-9 1.3-.9 2.5-2 4.2-.8s3.1 2.2 2.6 4.5-2.2.5-3.2 1-1.8 1.3-.7 2.2 3.6 6.5 8.3 4.1c1 .4 1 1.2 1 2.1a2.5 2.5 0 01-.4 1.2 6.5 6.5 0 01-1.5 1l-.6.2a1.1 1.1 0 01-1.1-.5z"/>
   <path class="cls-141" d="m41.2 159.7.2 2.6a6.6 6.6 0 010 4.8c-1.7 2.4-4.3 3.1-6.9 3.6a5.4 5.4 0 01-3.1-1c-1.1-.8-.8-2.2-.7-3.5a1.3 1.3 0 01.1-.6 3.3 3.3 0 01.5-1.2c1.1-1.5 3-1.7 4.4-2.6s1.5-1.2.9-2.3-1.1-.3-1.7-.1l-2 1-.8.5-1 .4h-.5c-1.7-.1-1.7-.1-1.9-1.8a3.5 3.5 0 01.8-1.6 15.1 15.1 0 014.9-3.8c1-.4 1.9-1 3-.3h.1c.5.5 1.3.3 1.9.8a19.8 19.8 0 001.1 2c.6.9.1 2.1.7 3.1z"/>
   <path class="cls-142" d="m49.9 160.4 1.8-.7a8.9 8.9 0 01.1 9.3c-.2.3-.5.3-.8 0a2.3 2.3 0 00-3 0 3.5 3.5 0 01-4.3-2c.2-.5-.4-.8-.3-1.2v-1.4c1.1-1.8-.6-4 1.1-5.7.2.1.4.1.5-.1 1.8.6 1.5 2.1 1.6 3.5s-.5 2.6 1.6 2.4h.1c0-.6.4-.8.6-1.2s.4-.4.3-.7.2-1.5.7-2.2z"/>
   <path class="cls-143" d="m33.5 159.1a6.5 6.5 0 014-2.1c.2 1.3.5 2.6.7 3.8s-.1 2.1-1.7 2.3a11.1 11.1 0 00-5.2 2.3.6.6 0 01-.5.6v.2a4.7 4.7 0 01-1 1 1.3 1.3 0 01-.7.4c-.2 0-.5-.4-.4-.6.6-1.9 1.4-3.8 2-5.7h.1c.4-.1.7-.5 1-.8h.1c.4-.6 1.4-.5 1.6-1.4z"/>
   <path class="cls-144" d="m29.6 158.5-.9 1a21.4 21.4 0 01-1.3 1.9c-.9-.7-.3-1.7-.5-2.5s-1-2.9-.6-4.1 2.1-1.7 3.1-2.7.3-.8.4-1.3 2.3-3.3 4.8-2.9l.4.6c-.5 2.6-2.5 4.2-3.9 6.2s-1.8 2.2-1.5 3.8z"/>
   <path class="cls-145" d="m41.4 167.1v-4.8l.9 2c0 1.1.2 2.1-.9 2.8z"/>
   <path class="cls-145" d="m43.4 165.8.3 1.2z"/>
   <path class="cls-144" d="m34.7 146 1.8-.9c.9 1.9.3 2.9-1.9 2.9 0-.7.1-1.3.1-2z"/>
   <path class="cls-146" d="m59.7 166.4-.6.9a2 2 0 00-1.1.3 1.8 1.8 0 01-.8-.9 3.2 3.2 0 01.4-1.6v-2.2c.5-2.4-2.6-2.5-2.9-4.4h.2c.5-.4 1.2-.3 1.8-.8h.1c.8-1.3.2-2.7.1-4s.4-1.9 1.6-1.9 1 2.8 2 4 2.9.9 3.2 2.7-2.2 1.1-2.7 2.3a11.1 11.1 0 00-.2 1.9 6 6 0 01-1.1 3.7z"/>
   <path class="cls-147" d="m54.7 158.5c.2.2.4.5.7.6 2.1.5 2.5 1.9 2.2 3.8-.6-1.5-1.2-2.9-3.2-2.8-.1.1-.4-1-.6-1.5a1 1 0 01.9-.1z"/>
   <path class="cls-80" d="m48 169c1.5-1.7 1.5-1.7 3 0z"/>
   <path class="cls-147" d="m57.6 165.1v2.1c-.4.2-.6.2-.8-.2s.5-1.3.8-1.9z"/>
   <path class="cls-80" d="m56.8 167 .8.2c.3.1.3.3.3.5a.4.4 0 01-.1.3h-.3z"/>
   <path class="cls-80" d="m51 169h.8c-.2.7-.5.7-.8 0z"/>
   <path class="cls-148" d="m76.8 159.5c.5-.1 1.1-.6 1.3-.4a3.2 3.2 0 003 .3c2.5-.9 3.9-.2 5.1 1.9a16 16 0 011.3 3c.8 3.5.1 4.3-2.8 3.4-.4-1.5-.7-3-1.1-4.5s-.9-1.3-1.6-.8a5.9 5.9 0 00-1.3 1.8c-.6.6-.4 1.4-.9 2a.4.4 0 00-.2.6c-2.5.5-2.9.3-2.9-1.8s.1-3.7.1-5.5z"/>
   <path class="cls-149" d="m67.3 159.4c3.3-.6 4.6 1.5 5.7 3.9-.7 1.3-1.3 2.6-1.9 3.9a2.6 2.6 0 01-1.1.7h-.1c-2.5.5-4.7.3-6.5-1.7a2.7 2.7 0 01-.9-2.2 5 5 0 01.2-1.2l.6-1.1.3-.4.8-.8.9-.6 1.5-.5z"/>
   <path class="cls-77" d="m70 167.9 1.1-.7z"/>
   <path class="cls-150" d="m63.3 163.3c0 1 .1 1.9.1 2.9a5.9 5.9 0 00.2 1.3 2.3 2.3 0 01-.4 2.6c-.1.2-.9.1-1.1-.1s-2.5-1-1.7-2.7a6.5 6.5 0 000-1.4 1.7 1.7 0 010-1.8c1.4 1.6 1.7-1.4 2.9-.8z"/>
   <path class="cls-147" d="m60.6 164.3-.2 1.6-.7.5c0-1.8 0-3.5.1-5.3a1.3 1.3 0 011.2.5 2.4 2.4 0 01-.4 2.7z"/>
   <path class="cls-147" d="m57.8 168a2.4 2.4 0 01-.2-.8h1.5z"/>
   <path class="cls-151" d="m102 158.9c0 .8-.1 1.7-.1 2.5a1.8 1.8 0 00-.6 1.5 1.4 1.4 0 01-.8.9 1.3 1.3 0 01-1.5-.6l-.9-.8a2 2 0 01-.8-.8 4.2 4.2 0 01-.4-1.5v-.5c-1.3-1.8-3.1-2.6-5.1-3.4a1.5 1.5 0 01-.7-2.6c1.4-1.5 2.1-3.6 4.5-4.1.4-.1.8-.9 1-1.4s1-.9 1.1-.2 1.7 2.2 3 2.8a10 10 0 012.9 1.5c2.2 1.8 2 3.6-.4 5.4a7.7 7.7 0 00-1.2 1.3z"/>
   <path class="cls-152" d="m97.9 161.6a.5.5 0 00.2.8c.4 2.7-.9 4.4-3 5.8-6.4.8-6.6.7-6.6-3.8a12.4 12.4 0 011.7-2.3 6.6 6.6 0 016.7-2.5c.8.5.6 1.4 1 2z"/>
   <path class="cls-153" d="m88.5 164.4c1 3.7 1.4 4 4.8 4l1.8-.2c-.5.3-1 .9-1.5.8-2.8-.1-4 1.4-4.3 3.9h-2.8c-2.4-.8-2.4-.8-2.1-2.9a18.1 18.1 0 00.3-2.3c.9.3 1.8.3 2.2-.8a19.8 19.8 0 00.6-2.6z"/>
   <path class="cls-154" d="m99 163.2h1.8c1 .7 0 2.2 1.1 2.9-1.4.6-2.2.6-2.5-.3a12.6 12.6 0 01-.4-2.6z"/>
   <path class="cls-76" d="m79.8 166.2.9-2z"/>
   <path class="cls-78" d="m103.7 170 1 1z"/>
   <path class="cls-78" d="m104.7 171 1 .9z"/>
   <path class="cls-155" d="m52.1 146.8-3-3.6a2.4 2.4 0 01-.7-1.6l.3-1a14.2 14.2 0 00.5-1.6c.1-.4.3-.7.4-1.1a4.1 4.1 0 00.5-.9 7.1 7.1 0 01.7-.9l1.5-.6h2.3a1.7 1.7 0 011 1.2h-.1c.7.1.8.7.8 1.3a8.8 8.8 0 01-.5 1.5l-.3.5c-.1.2-.2.3-.2.5l-.7.8-.3.3-.8.7-.4.2h-.4l.3.3.7.6.7.5h.5a1.7 1.7 0 001-.3 3.5 3.5 0 00.5-.8c.3-1.1.2-2.3.4-3.4a4.9 4.9 0 01.4-1.1l.8-.9 1-.6 1.1-.2h.6a10.2 10.2 0 013 .8 3.4 3.4 0 011.6 3.1c0 1.9-.1 3.7-.1 5.6l-1 .7c-2.5.5-2.4-1.5-2.7-3-2.6 4.1-5.1 5-9.4 3z"/>
   <path class="cls-156" d="m59.6 137.3-.2.2h-.3a2 2 0 00-1.4.8h-.1c-1.2 1.7.3 3.9-.9 5.6h-.2a2.2 2.2 0 01-2.7.1 3.2 3.2 0 00-1-1 1.1 1.1 0 010-1.1h-.1a1.4 1.4 0 001-1 1.3 1.3 0 00.9-1 1.1 1.1 0 00.7-1.1l.3-1c0-.4-.1-.9-.1-1.4a10 10 0 007-5c1-.5 1.3-2.1 2.8-1.9s4-.8 5.8-1.9h1a6.7 6.7 0 00.6 1.2c1.7 2.9 1.7 2.9 4.7.9l.4-.2c.3 1.3.7 2.6 1 3.8h-1a4.8 4.8 0 00-1.6-.8c-.9-.3-2.1 0-2.7-.5s-4-1.2-5.7-.4-5.9 1.4-7.1 4.7h-.1z"/>
   <path class="cls-144" d="m51.1 136.9c0 .3-.1.5-.4.5l-.6 1.1c-1.1.7-.3 2.1-1 2.9a20.2 20.2 0 01-5.5 1.4 2.1 2.1 0 01-1.3-.5v-1.9c2.3-.9 3.8-2.7 5.7-4s.2-1.2.3-1.7 1.7-2.2 3.1-1a13 13 0 011.5 1.8h-.1c-.5.5-1.6.4-1.7 1.4z"/>
   <path class="cls-157" d="m55.6 136.7-1-1.2z"/>
   <path class="cls-158" d="m42.3 142.2h1c.4.5.6 1.5.2 1.7-4.7 2.2-5.5 7.6-8.8 10.9l-5.1 3.7c-1.5-.9-1.9-1.6-1.4-2.4l2-2.1c.5-.5 1.3-1.1 1.4-1.7s1.4-2.3 2.6-3 .3-.9.4-1.3a2.9 2.9 0 001.9-2.9 9.4 9.4 0 001-1v-.9c1.5-1.1 3.2-.5 4.8-1z"/>
   <path class="cls-144" d="m42.3 142.2c-1.3 1.6-3.2.7-4.8 1 1.3-1.7 2.9-2.2 4.8-1z"/>
   <path class="cls-144" d="m37.5 144.1-1 1a9.4 9.4 0 001-1z"/>
   <path class="cls-77" d="m71.1 127.8c-1.5 1.9-3.6 2-5.8 1.9l2.9-1.9z"/>
   <path class="cls-159" d="m89.3 46.2a18.4 18.4 0 00-2.2-1.7c-.5-.4-1.1-.8-1.7-.2s-2.2 1-3.5.6a47.8 47.8 0 00-4.8-1.9l-5-1.6a6.4 6.4 0 01-.2-.7 3.9 3.9 0 01.8-1c3-1.1 5.2-.7 8.5.6s8.5 2.7 13 .6c2.5-1.2 5.4-3 8 .2a1.6 1.6 0 01-.4 1.3c-.6-.1-1.6-.4-1.7-.2-1 1.8-2.5 2.1-4.3 2.1a4.2 4.2 0 00-2.5.9c-1.2 1.1-2.6.9-4 1z"/>
   <path class="cls-113" d="m101.8 42.4v-1c1.9-2.2 3.9-.9 5.8 0-.1 1-.3 2.4-1.2 2.2s-2.6 1.7-4.4 2c-.1-1.2-.1-2.2-.2-3.2z"/>
   <path class="cls-160" d="m64.4 43.3c-2.5 0-5.1.1-7.6 0a5.6 5.6 0 01-2.6-.7c-1.7-1.1-1.6-.2-1.9 1.1s-1.4 1.7-2.4.8a18.1 18.1 0 01-1.8-2.1c.5-1.8 2.1-1.9 3.5-2.5l1.2-.3a14.9 14.9 0 009.8-.6c2.3-1 3.9-.8 5.1 1.6s-1.3 2-2.4 2.7z"/>
   <path class="cls-159" d="m65.3 43.3c.6-1 2.1-1.4 2-2.9l.3-.4a3.4 3.4 0 011.7-.3l1.1.3a5.5 5.5 0 011.7 1.4l-1 1c-1.1 1.1-2.2 2-3.9 1.1a4 4 0 00-1.9-.2z"/>
   <path class="cls-161" d="m52.1 146.8a16.4 16.4 0 003.8.2c2.4-.4 4.7-1.1 4.6-4.3 0-.5.5-1.1.8-1.6l.8-.4c.1 1.4.3 2.7.4 4s.8 1.6 1.7 2 1.2.6 1.4 1.1.8 1.8 2.7 1.6 1.4-.3 1.1.8 1 2.1 2.1 3.1 3.9 1.7 6 .5 1-1.2.4-1.9-.8-.8-.8-1.2.4-1.4.7-1.5 2.7-.6 4.2-1c-.3.9-.9 2-.7 2.3 1.4 1.9.5 2.9-1 3.9s-1.1.6-.4 1.3.6 1.4-.4 1.2c-4.4-.8-8.4.4-12.2 2.5h-.1c-.5.5-1.4.3-1.7 1h-.1a2.4 2.4 0 00-.9.8h-.1a1.5 1.5 0 00-.8 1.1.9.9 0 01-.3.7c-.8.5-1.3 2.2-2.7 1l-.2-2.7c-.6-1.6.8-1.8 1.7-2.3l1.2-.4c.9-1 .3-1.8-.7-1.8-2.6.1-3-1.6-3.1-3.5a4 4 0 00-.8-1.6c-1.3-.4-1.2.4-1.2 1.2a1.7 1.7 0 01-.7 1.5c-1 .3-1.4 1.8-2.9 1.1s-1.4.3-2.2.5-2.7.3-2.5-2a6.5 6.5 0 00.4-1.3c-.1-.4-.5-1-.8-1-2 .3-2-1.5-2.6-2.6a3.2 3.2 0 01-.3-.9c1.8-1.3 3.7-2.2 6.2-1.4z"/>
   <path class="cls-162" d="m81.4 145c.1-1 0-1.9.1-2.9s-.4-2.8.6-4.1c2 .2 4-1.5 5.9-.1a2.5 2.5 0 002.2.3c2.5-.8 2.6-.8 4.1 1.4l.6.7.2 1.9a2.4 2.4 0 010 2.9c-.4.6-.8 1.5-1.7 1.2s-.8-.9-1-1.5a5.8 5.8 0 01-.3-1.4 8.9 8.9 0 00-.3-1.4c-2 .5-1.2 2.4-1.9 3.4s-1 1-1.4.9a1.4 1.4 0 01-1.1-1.2c-.2-1.1-.1-2.2-.2-3.3a1.5 1.5 0 00-.9-1c-.2-.1-.8.3-.9.6s-.7 2.7-1.3 4-1 .5-1.5.7-1-.5-1.2-1.1z"/>
   <path class="cls-163" d="m67.5 142.1c-.7-2.4-.4-4.4 1.7-5.9a2.3 2.3 0 012.7-.1c.7.6.9 1.5.2 2s-1.8.5-1.5 1.5 1.1.6 1.6.9l1.9 1.5a2.3 2.3 0 01-.1 3c-.6 1.8-2.1 2.2-3.8 2.2s-2.2-1-2.8-2.1.2-2 .1-3z"/>
   <path class="cls-164" d="m74 145c0-1 0-2 .1-3a34.7 34.7 0 011.8-3.3 2.2 2.2 0 011.4-1.1 2 2 0 011.7.2 1.7 1.7 0 01.5 1.6 6.3 6.3 0 01-1.3 2c-1.1 1.8-.4 3.3 1.8 3.6h1.4l1.2 1.1-.8.4a4.3 4.3 0 01-5.5-.4c-.6-.6-1.2-1.4-2.3-1.1z"/>
   <path class="cls-161" d="m67.5 142.1c.9.3 1.2.9.6 1.8l-.7 1.2h-1.1c0-1.2-.1-2.3 1.2-3z"/>
   <path class="cls-124" d="m106.7 144.9a2.4 2.4 0 002.6.9 1.3 1.3 0 01-1.7 1c-.9-.3-.9-1.1-.9-1.9z"/>
   <path class="cls-124" d="m109.6 144.2h.8l1.2 1.7h-2.3z"/>
   <path class="cls-97" d="m95.1 145.1v-2.9c1.2 1.4 1.2 1.4 0 2.9z"/>
   <path class="cls-165" d="m106.6 142.2v1.8h-1.1z"/>
   <path class="cls-166" d="m105.7 132.1.8 7.1c-.2.5-.5.6-1 .4l-.9-1a3.6 3.6 0 001.1-2.9z"/>
   <path class="cls-167" d="m102.2 143.7a21.2 21.2 0 01-1.3-2c.4-.2.8-.6 1.1-.5s1.3.5 1.3.8-.6.9-1.1 1.7z"/>
   <path class="cls-166" d="m99.8 127.8c.3.7.9 1.3 1 2s0 2.9 0 4.3c-.3-2.1-.7-4.2-1-6.3z"/>
   <path class="cls-166" d="m100.8 137.4c1.3.2 2.9-.6 3.8 1.1a26.6 26.6 0 01-2.8-.3c-.4-.1-.7-.5-1-.8z"/>
   <path class="cls-165" d="m105.5 139.6 1-.4c0 .7.1 1.3.1 2z"/>
   <path class="cls-166" d="m106.6 129.7-.9 2.4a2.5 2.5 0 01.9-2.4z"/>
   <path class="cls-112" d="m28.3 111.3-1.7-1.5c.3-.3.6-.8 1-.9s1.7.4 1.6 1.1-.4.7-.9 1.3z"/>
   <path class="cls-168" d="m43.1 71.1a7.8 7.8 0 01.2 1.4c-.1 1-.5 1.3-1.1.9s-3-.4-4.6-.2c-.1-.3-.5-.9-.3-1.1 1.1-2 2.4-3.9 4.6-4.9q.6 2.1 1.2 3.9z"/>
   <path class="cls-169" d="m43.3 75.3v8.2a23.5 23.5 0 01-3.8-1.4 4.2 4.2 0 01-2.1-4.4c.4-1.6 1.7-2.5 4-2.6z"/>
   <path class="cls-106" d="m41.3 85.5c-1.3-.1-2.8.5-3.7-1 1.2.4 2.7-.2 3.7 1z"/>
   <path class="cls-170" d="m122.8 15.6a1.7 1.7 0 001.3 1.7 10.5 10.5 0 011.3-2.3 9.3 9.3 0 011.4-1.4 2.7 2.7 0 013.5.1 2.2 2.2 0 003.4-.1c2.9-2.9 5.2-1.3 7.5.9.2 2.3-2.1 1.8-3 2.9-2.8 1.4-3.1 4.5-4.5 6.8a1.3 1.3 0 01-1.7-.5c-2.7-5.6-7.6-5-12.5-4.5-1.1.2-2.4.2-3.4 1.1a41.2 41.2 0 00-2.8 3.1 5.1 5.1 0 00-1 2.1 4.9 4.9 0 01-.4 1.1 8.7 8.7 0 00.1 4.8l.5 1.2a2.8 2.8 0 002.5 2.2h1.2a4.5 4.5 0 012.3.2l.9.6c.7 1.5.6-1 1.2-.3a6.5 6.5 0 003.4-.1l1.3.2c.7.3 1.6.7 1.5 1.6s-2.2.4-2.9 1.5c-.3.3-.6.3-1 0h-.9c-1.1 1-2.8-.1-3.9 1h-.9a1.9 1.9 0 00-2.9 0c-2.4 1-4.4-1.8-6.8-.8a3.1 3.1 0 01-.9-1.8 6.7 6.7 0 010-2l.3-1.3a15.1 15.1 0 00.6-3.7 5.8 5.8 0 01.4-1.8c.3-1 .5-2 .7-3a2.7 2.7 0 01.3-1.2 11 11 0 00.4-3.1 6.3 6.3 0 011.1-3.8c.9-1.5 2.5-1.8 3.9-2.5.5-.6 1.3-1.6 1.8-.9 1.8 2.4 4.4 1.4 6.7 2z"/>
   <path class="cls-171" d="m150.7 28.9.2 2.5a7.9 7.9 0 01.4 2c-.4 3.1-2.6 4.9-4.4 7h-.9a12.7 12.7 0 00-7.7-.9l-1-1a17 17 0 00-1.4-1 1.9 1.9 0 01-.7-2 2.1 2.1 0 011-.6 8.2 8.2 0 002-1.2 20.8 20.8 0 003.2-3.4 4.5 4.5 0 00.3-3.4l-.3-1-.6-.9-.3-.4-.8-.6-1-.5-1.4-1a1.4 1.4 0 01-.1-1.1c.7-1.1 2-1.3 3.1-1.8a6.1 6.1 0 013-.1l1 .7a2.5 2.5 0 01.2 1.2 14.7 14.7 0 00.5 2.9 18.4 18.4 0 010 6.2 3.9 3.9 0 00-.3 2.1 3.6 3.6 0 00.4.9c.3.3.7.5 1.1.1a3.6 3.6 0 00.4-.9 53.3 53.3 0 00-.2-9.8 6.8 6.8 0 01-.2-1.4 4.2 4.2 0 01.4-1.2 2 2 0 011.9-.5c.7.2 1 .8 1.3 1.4v1.6c.6 1.4.3 2.8.4 4.1a2.8 2.8 0 00.5 2z"/>
   <path class="cls-172" d="m107.6 38.5c1.6-.9 3.1-1.3 4.6.2s1.4.5 2.1.8c-1.1 1.4-2.5 1-3.8.5s-2.3.2-2.9 1.4-1.6.6-1.8.3-2.6-.3-4-.3a2.7 2.7 0 00-3.4-.8 16.6 16.6 0 00-4.8 1.9c-2 1.1-3.9 1.2-5.7-.2a3.2 3.2 0 00-3.5-.3c-2.6 1.2-4 .6-5.6-2-.2-.3-.9-.8-.9-.7-1.7 1.4-4 .4-5.8 1.1l-.3-.4c-.3-1.1-1.5-1.8-1.1-3.1a1.3 1.3 0 01.9-.7c2.1.3 4.2-.4 6.2-.1s3.8 1.9 5.8 2.7a2 2 0 001.1.3 3.2 3.2 0 001.7-.2h1.3c1.9.6 3.8 1.6 5.7-.4s5.5-1.1 8.2-1a14.2 14.2 0 016 1z"/>
   <path class="cls-172" d="m135.4 35.5 1 2.1c.2.2.3.4.2.6s-.1.3-.2.3a7.1 7.1 0 00-5.5-.5c-2.3.6-4.7.4-7 .5.4-.3.7-.7 1.1-.8s.7-1 .1-1.6l-.3-.4c0-.2.1-.5.1-.7 1.3-3.7-.2-7.8 1.3-11.5 2.5-1.4 2.2.9 2.5 2s0 3.5.4 5.2.6 4.3 3.7 3.7a1.9 1.9 0 012.6 1.1z"/>
   <path class="cls-173" d="m146.9 40.4c.2-.1.4-.1.4-.3.1-2.2.3-4.3 3-5.1.3-.1.3-.8.5-1.3s.6-.4.9 0h.1c.9.5 1.9.8 2.8-.2h-.1c1-.2.2-2.4 2-1.8.6.4.4 1.4 1.2 1.7-.9 1.3-1.7 2.6-2.7 3.8a1.5 1.5 0 01-1.2.5 10.8 10.8 0 01-1.8 0c-1.7 0-3 .5-3.3 2.5s-1.1 1-1.8.2z"/>
   <path class="cls-173" d="m138.3 39.5c2.7-2.4 3-2.5 5.5-.8.8.5 1.5 1.2 2.2 1.7l-4.4 1.3c-2.3.5-2.3.5-3.3-2.2z"/>
   <path class="cls-172" d="m114.3 39.5c1.4-1.9 1.5-1.9 2.9 0z"/>
   <path class="cls-172" d="m118.1 39.5c1.1-1.4 2.6-.9 3.9-1-1 1.4-2.5.8-3.9 1z"/>
   <path class="cls-173" d="m137.3 38.5 1 1z"/>
   <path class="cls-172" d="m122.9 38.5h1c-.3.7-.6.7-1 0z"/>
   <path class="cls-173" d="m136.4 38.5v-.9l.9.9z"/>
   <path class="cls-114" d="m158.6 34.5.9 1z"/>
   <path class="cls-22" d="m159.4 43.3h-.9c-.3-1.6.6-2.6 1.7-3.6s2.1-.1 3.1-.2v.9l-2 1c-1.2 0-1.8.7-1.9 1.9z"/>
   <path class="cls-78" d="m112.3 165.9c-1.2 1.6-1.2 1.6-2.8.3a3.1 3.1 0 002.8-.3z"/>
   <path class="cls-174" d="m109.5 166.2c-1.3-.9-.9-2.2-.8-3.4.2 1.1.5 2.2.8 3.4z"/>
   <path class="cls-78" d="m101.9 166.2c-1.3-.7-1-1.9-1.1-2.9q.5-.6.9 0z"/>
   <path class="cls-174" d="m105.5 163a1.9 1.9 0 01-.7 2.2 1.9 1.9 0 01.7-2.2z"/>
   <path class="cls-154" d="m101.7 163.3h-.9l1.1-1.9z"/>
   <path class="cls-78" d="m108.6 162.4h-2l-.3-.3.3-.3c1-.8 1.7-.7 2 .6z"/>
   <path class="cls-174" d="m106.6 161.7v.6h-.7a4.6 4.6 0 01.7-.6z"/>
   <path class="cls-175" d="m162.3 22.2.8.9a4.4 4.4 0 01.2 1c-.2 2.7.9 5.6-1 8.1-2.5-1.4-3.4-4.1-4.9-6.2s-2.5-3.3-3.7-4.9-.4-3.9 2-2.9 5.2 1.3 6.6 4z"/>
   <path class="cls-176" d="m162.3 22.2-6.7-3.3c-1.1-.5-1.5-.2-1.9 1.2a3.3 3.3 0 000 1l-.8-.5c-1.9-1.7-1.9-1.7-3.1.6l-.9-.9c-2.4-2.9-5.4.6-7.9-.9-.2-2.1 1-3 2.9-3.4a1.9 1.9 0 012 .4 42.9 42.9 0 016-1.3 5.3 5.3 0 014.4 1.6 5.6 5.6 0 003.7 1.7c2 .2 2 .4 2.3 2.8z"/>
   <path class="cls-177" d="m167.1 20.3c1.3 1.3 2.6 2.6 3.8 4s.2 1.1.2 1.7a2.1 2.1 0 001 1.9c1.6 1.1 1.6 1.6.4 2.7s-2.2 2.2-3.4 3.2a1.4 1.4 0 01-1.2.3 2.1 2.1 0 01-.7-1.1c-.1-.8-.1-1.6-.2-2.4 0-3.4 0-6.9.1-10.3z"/>
   <path class="cls-113" d="m156.5 31.8-2 1.8c0-1.1 0-2.1.1-3.2a1 1 0 01.4-.7l.7.5c.3.5.5 1.1.8 1.6z"/>
   <path class="cls-178" d="m149.8 27.9c.1-1.7.1-3.4.1-5.1.3 1.7.5 3.4.7 5.2-.2.2-.5.2-.8-.1z"/>
   <path class="cls-113" d="m154.6 33.6c-1.3 1.4-1.3 1.4-2.8.2z"/>
   <path class="cls-113" d="m157.7 33.6a1.5 1.5 0 01-1.2-1.7z"/>
   <path class="cls-178" d="m151.7 33.7h-.9c0-.7.1-1.5.1-2.3z"/>
   <path class="cls-176" d="m149.8 27.9h.8v.9z"/>
   <path class="cls-179" d="m141.2 14.5-3.2-1c-1.7-.6-3.3-1-4.4 1.2a2.2 2.2 0 01-.7.6c-1.2.7-2 .8-3.1-.7s-2-.5-2.9 0a2 2 0 01-1.1-1.3c-.1-.2-.1-.4-.2-.6 2.1-1.6 4.1-1.5 6.2.1s1.5-.2 1.7-1.2c2.5-1.6 4.7-.3 6.8.9.5.3.6 1.3.9 2z"/>
   <path class="cls-179" d="m144.4 16.3a6.2 6.2 0 00-3.2 3 1.3 1.3 0 01-1.2 0l-2.6-2.8 3.8-2 2.7 1c.4.1.5.4.5.8z"/>
   <path class="cls-180" d="m144.4 16.3a1.1 1.1 0 00-.5-.8c.1-.2 0-.4.1-.5l1.1-1.2a6.4 6.4 0 011 1.3 3.4 3.4 0 01-.2 1.3z"/>
   <path class="cls-181" d="m42.3 37.6 3-1.2c1.4-.6 1.4-1.5.7-2.7a2.1 2.1 0 00-2.7-.1l-2.7.3c-3.2-.8-1.4-3.3-1.5-5s1.2-1.6 2.4-.9c.7-1.3 2.6-1.9 2.1-4s.6-4.3 3-5.2c4.5-.3 3.4 3.2 3.8 5.7s-.2 4.7 0 7.4c1.3-3.3 1.1-6.4 1.2-9.5s.4-4.6 3.3-5.1a4.1 4.1 0 013 .8c2.2 4.7.8 9.4.4 14.1.2.4-.4 1.5.9 1.1s.4-1.2.7-1.9a1.6 1.6 0 01.6-.8 1.7 1.7 0 011 0 5.8 5.8 0 011 1.2l1.2 1.6.6 1a4.2 4.2 0 01.4 1.6 1.6 1.6 0 01-.5 1.1 77.1 77.1 0 01-12.3 3.3 22.6 22.6 0 01-6.8 1.2c-1.7.1-3.5.1-4.2-2s.6-1.6 1.4-2z"/>
   <path class="cls-182" d="m49.1 25.3c0-1.1-.1-2.2-.1-3.3s-.2-2.2-2.8-2.6c-2.6 1.1-5.7 1.5-6.8 4.7-1.7-.8-.8-2.4-1-3.7s.1-2 2.1-2h4.3c.3 0 .8-.6.8-.8a1.4 1.4 0 00-.8-1l-5.4-1.3v-.9h1.5c2.1.5 3.9.4 5.4-1.5s3.5-1.8 5.3-.9c3.4 1.6 7.1 1.9 10.5 3.1a9.5 9.5 0 002.4.1c1.1-.7 2.1-.7 2.9.5-2.8 2.3-5.4 5.3-9.5 2.7l-3.3-.2c-.3-2.6-2.1-1.4-3.2-1.2s-.7 1.7-.6 2.6 1.3 4.5-1.7 5.7z"/>
   <path class="cls-160" d="m42.3 37.6-.9 1c.3.8-2.8 1.1-.3 2s3.4.8 4.1 2.7c-1.8 1.7-4 1.1-5.9.7s-4.9-1.4-5.2-4.6c-.1-.6-.3-1.2-.4-1.8a1.8 1.8 0 011-2 4.4 4.4 0 005.8 2.2z"/>
   <path class="cls-140" d="m39.4 24.1c0-4.8-.1-4.8 4.9-4.7h1.9c-1.1 1.5-2.3 3-2 5.1s-1.7 2.8-2.3 4.4l-.8-.2c-.7-.4-1.3-.4-1.5.4s-.7 3.5 1 4.8c-.9.6-2 .8-2.1-.5a37.2 37.2 0 01-.1-5.8l4.5-1.8c.2 0 .3-.5.3-.7s-.3-.7-.5-.7z"/>
   <path class="cls-183" d="m34.7 35.6a12.4 12.4 0 00-1 2c-5.9-2.7-6.6-6.4-2.2-10.4a2.4 2.4 0 013-.2l.3 3.2-.3 3.5a1.2 1.2 0 00.2 1.9z"/>
   <path class="cls-140" d="m43.3 33.6c1.5-1.1 1.5-1.1 2.7.1z"/>
   <path class="cls-160" d="m34.7 35.6c-1-.5-1.1-1.2-.2-1.9z"/>
   <path class="cls-160" d="m34.5 27c-2.4.3-3.8 1.8-4.6 4a4.5 4.5 0 00-.4 2.2c.2.7 1 1.2 1.5 1.7l2.7 2.7h-3.9c-.3.3-.6.3-.9-.1-.4-1.2-.7-2.5-1-3.8a4.3 4.3 0 00-1-.9l3.9-5.8c-.4-.3-.6-.7-1-1l-.9-.9-1-1.9a6.3 6.3 0 002.9-2.9c.5-.6 1.4-.4 1.9-1l1-.9.9 1.9a1.2 1.2 0 000 1.9v1c-1 .6-.9 1.2-.1 1.9z"/>
   <path class="cls-184" d="m30.8 20.3c-.3 2.6-.3 2.6-2.9 2.9 1-1 1.9-2 2.9-2.9z"/>
   <path class="cls-183" d="m34.5 25.1a11.5 11.5 0 01-1.7-.6c-.4-.2-.8-.9-.7-1.2s1-.3 1.5-.3l1 .2a12.8 12.8 0 01-.1 1.9z"/>
   <path class="cls-184" d="m34.6 22.2c-1-.7-1-1.3 0-1.9z"/>
   <path class="cls-184" d="m32.7 19.3-1.9 1z"/>
   <path class="cls-184" d="m33.7 18.4-1 .9z"/>
   <path class="cls-184" d="m29.8 26 1 1z"/>
   <path class="cls-184" d="m28.9 25.1.9.9z"/>
   <path class="cls-185" d="m67.3 16.3c-.7-1.1-1.8-.8-2.8-1a1.6 1.6 0 011.2-1.7 8.6 8.6 0 001.6-1c2.8.1 4.9-2 7.5-2.3 3.9 1.5 1.5 4.2 1.2 6.5a9.2 9.2 0 01-2.2 1.7c-2.4 1.1-2.1 3.2-2.4 5.3-.4 4.2 1 8.5-.2 12.7l-.2.2a2.5 2.5 0 01-2.4-1c-.9-1.5-2.5-2.4-3.5-3.8s-3.4-5.9 0-8.6 1.3-4.7 2.2-7z"/>
   <path class="cls-186" d="m74.9 10.7a4.9 4.9 0 00-2 1.1c-1.7 1.6-3.6 1.4-5.6.8v-2.9l2.5 1c.4.1 1.1 0 1.1-.2.8-2.4 2.5-1.9 4.2-1.2l.8.4h1v1a1.5 1.5 0 01-2 0z"/>
   <path class="cls-187" d="m109.5 24.1a.5.5 0 00-.1.7c-.6 1-.2 2.2-.7 3.1l-.3 1.7c-.8 1.3.1 2.9-.8 4.1s-.3.4-.1.7-1.3 3-3.4 2.7a3.4 3.4 0 01-1.2-.6 4.4 4.4 0 01-.8-1.1l-1.2-3.1c-1-3.5-2.5-6.8-3.8-10.1-.5-1.6-1.6-3.5.8-4.3s3.1 1.3 4 2.9a22.9 22.9 0 011 2.3l.5.9.6 1.4c.1.2.1.3.2.4l.3.3a4.5 4.5 0 00.1-1.6 8.5 8.5 0 01.4-2.3l.9-3.7a21 21 0 012-4.9 2.8 2.8 0 011-.9h.7c2-.3 2.1-.3 2.6 1.9s-.1 2-.8 2.9-.7 2.3-1.1 3.4 0 2.2-.8 3.2z"/>
   <path class="cls-188" d="m108.7 13.8-2 4.8c-1.7-2.2-2.9-5.6-6.6-2-.8.8-3-1.4-4.8-.4h-1.3c-3.8.8-7.5 1.2-10.9-1.2-.8-.6-1.8-.1-2.7-.2s1.2 1.4.9 2.4a1.6 1.6 0 01-1.1 1.4 9.4 9.4 0 01-2.3-1c-.8-.3-1.6-.5-2-1.3s-1.5-2.9.2-4.2l-1.2-1.4h2a19.2 19.2 0 008.9.8c1.4-.1 2.4-.2 3.5.9a3.5 3.5 0 002.1 1 9.8 9.8 0 002.2-.5 12.2 12.2 0 01-.7-1.7 1.1 1.1 0 010-.8c.2-.2.7-.3.8-.2 2.4 2 5.2 1.8 7.8 1.3s5 .4 7.5-.1a6.4 6.4 0 01.6 1.2h-.1a1.5 1.5 0 00-.8 1.2z"/>
   <path class="cls-189" d="m122.8 15.6c-.9.3-1.8.7-2.7.9s-2.3.7-3.5-1.4-1.4-1-2.3-.6.1-1.2.2-1.8a1.4 1.4 0 01.6-.7l7.4 2.3c.2.1.2.8.3 1.3z"/>
   <path class="cls-190" d="m126 15.5a2.5 2.5 0 01-1.9 1.8c-.7-3.1-.7-3.1 1.5-4.6h.1c1 .8.6 1.8.3 2.8z"/>
   <path class="cls-189" d="m111.4 17.4c.3-1 .5-2 .8-2.9h2.1c-1 1-2 1.9-2.9 2.9z"/>
   <path class="cls-191" d="m45.2 43.3c-2.3-1.2-4.6-2.4-7.7-2.5 1.1-1.7 2.8-1.4 3.9-2.2a1.7 1.7 0 001.9 1.8h8.6l-3.8 2h-1c-.5.5-1.4.3-1.9.9z"/>
   <path class="cls-160" d="m45.2 43.3 1.9-.9z"/>
   <path class="cls-63" d="m33.7 44.3-1-1z"/>
   <path class="cls-139" d="m28.9 37.5h.9v.9z"/>
   <path class="cls-134" d="m26.9 32.8 1 .9z"/>
   <path class="cls-192" d="m34.7 154.8c-.5-.4-1-1.2-.5-1.6a8.7 8.7 0 003.5-4.9c.8-2.4 1.4-4.7 4.7-4.6.3 0 .6-1 .9-1.5a7.2 7.2 0 012-.9 24.1 24.1 0 013.8 0v1.9c-.6-.1-1.6-.4-1.7-.2a5.7 5.7 0 01-3.4 2.3 1.9 1.9 0 00-1.2 2.7c.4 1.1-.2 1.7-1.1 2.1l-2.2.9c-1.5.4-1.9 1.5-2.1 2.8z"/>
   <path class="cls-193" d="m48.2 164.5a6.1 6.1 0 01-.7 1l-.7-.4-.3-3.7a3.3 3.3 0 00-1.5-2.8c1.5-.2 2 .7 2.2 1.9s-.3 2.9 1 4z"/>
   <path class="cls-145" d="m44.5 158.7a28.7 28.7 0 01-.5 3.1 24.4 24.4 0 01-.6 2.6c-.1-1.4-.2-2.7-.2-4.1a1.7 1.7 0 011.3-1.6z"/>
   <path class="cls-147" d="m56.8 154.7.7-1.5c.1 1.5.7 3.1-.7 4.3z"/>
   <path class="cls-145" d="m41.2 159.7c-.3-1-.5-2.1-.7-3.1 1.1.8 1.1 1.9.7 3.1z"/>
   <path class="cls-147" d="m56.7 157.6-1.8.8z"/>
   <path class="cls-193" d="m49.9 160.4c-.2.8-.5 1.5-.7 2.2a1.6 1.6 0 01.7-2.2z"/>
   <path class="cls-192" d="m39.4 154.6-1.9-.8a1.6 1.6 0 011.9.8z"/>
   <path class="cls-193" d="m48.9 163.3-.6 1.2z"/>
   <path class="cls-194" d="m37.3 166.2c-.4.5-.6.9-.7.8l-1.5-.3.3-.3z"/>
   <path class="cls-74" d="m33.5 159.1c-.1 1-.8 1.3-1.7 1.3a10.9 10.9 0 001.7-1.3z"/>
   <path class="cls-74" d="m31.7 160.5-1 .8z"/>
   <path class="cls-74" d="m30.8 166a1 1 0 01.5-.6.6.6 0 01-.5.6z"/>
   <path class="cls-150" d="m59.7 152.7c.1.2.3.2.3.4.6 1.9 1.2 3.6 3.6 3.9s.7 1.2-.5 2.2a.5.5 0 010-.7c.3-.8-.1-1-.8-1.1s-2.1.3-2.7-.8-.9-2.6.1-3.9z"/>
   <path class="cls-147" d="m59.7 152.7c0 1.3-.1 2.6-.1 3.9-1.5-1.3-.8-3.1-.9-4.6z"/>
   <path class="cls-147" d="m63.1 158.5v.7h-.4l-.2.3a3.2 3.2 0 01-2.7.3c.5-1.9 2.1-1.1 3.3-1.3z"/>
   <path class="cls-150" d="m59.8 159.8 2.7-.3-2.1 2.1-.6-.5z"/>
   <path class="cls-195" d="m70.2 163.3a5.2 5.2 0 01-1.3 1.3 2.7 2.7 0 01-1.8.1c-.1 0-.3-.5-.2-.7a2 2 0 012-1.6c.4.1.7.5 1.3.9z"/>
   <path class="cls-150" d="m65.5 160.5c.2-.8.8-1.1 1.7-1z"/>
   <path class="cls-150" d="m64.5 161.4.9-.8z"/>
   <path class="cls-150" d="m63.6 162.6a7.6 7.6 0 00.8-1.1 7.6 7.6 0 01-.8 1.1z"/>
   <path class="cls-154" d="m97.9 161.6a12.4 12.4 0 01-1-2c1.1.4 1.2 1.1 1 2z"/>
   <path class="cls-196" d="m94.7 162.6a2.2 2.2 0 01.7.9 2.1 2.1 0 01-2.9 1.8.8.8 0 01-.3-.8 2.5 2.5 0 012.5-1.9z"/>
   <path class="cls-157" d="m56.7 144c0-1.2-.1-2.5 0-3.7a6.6 6.6 0 01.9-1.9 26.9 26.9 0 01-.3 4 4.4 4.4 0 01-.6 1.6z"/>
   <path class="cls-157" d="m53.8 144.2h2.7c-1.3 1.1-1.3 1.1-2.7 0z"/>
   <path class="cls-86" d="m49.1 141.3c-.1-1.1-.3-2.2 1-2.9-.3 1-.7 2-1 2.9z"/>
   <path class="cls-86" d="m51.1 136.9a1.5 1.5 0 011.7-1.4z"/>
   <path class="cls-157" d="m55.6 138v1.3a.4.4 0 01-.7 0z"/>
   <path class="cls-157" d="m57.7 138.3 1.4-.8z"/>
   <path class="cls-86" d="m50.1 138.5.6-1.1z"/>
   <path class="cls-157" d="m59.6 137.3 1-.8z"/>
   <path class="cls-157" d="m52.8 143.2 1 1z"/>
   <path class="cls-157" d="m52.8 142.1v1.1c-.5-.3-.7-.7 0-1.1z"/>
   <path class="cls-86" d="m53.7 141.1a9.4 9.4 0 01-1 1 9.4 9.4 0 001-1z"/>
   <path class="cls-86" d="m54.6 140.1-.9 1z"/>
   <path class="cls-86" d="m55 139.3h.7l-1.1.8a.7.7 0 01.4-.8z"/>
   <path class="cls-172" d="m72.1 41.4-2-1a1.4 1.4 0 012 0z"/>
   <path class="cls-191" d="m72.1 40.4h-2a2.1 2.1 0 00-2.8 0 4.7 4.7 0 01-1.2-.7c-.7-.6-1.3-.9-2.1-.3s-3.2 2.1-5.3 1.4c-.3-.1-.8.4-1.1.7a1.4 1.4 0 01-2.1 0 5.3 5.3 0 00-3.6-1.1l.6-.7c1.3-1.2 3-.5 4.4-1s2.5-1.4 3.7-1.9 1.3.1 1.9.2 1.6-.7 2.1-1.5 3.1 0 4.6.1l1.8 1.1c.2.5.3 1.2.7 1.5s.7 1.4.4 2.2z"/>
   <path class="cls-172" d="m67.3 40.4c1.4-1.1 1.4-1.1 2.8 0z"/>
   <path class="cls-197" d="m132.6 34.6v1.8c-.8-.1-2 .1-2.2-.2-1.1-1.8-2.9-3.3-2.6-5.8a45.1 45.1 0 00-.1-5.2 7.2 7.2 0 00-.9-2 2.2 2.2 0 01-.7-.9l-.4-.9-.5-.6h-.7a1.3 1.3 0 00-.4.7 7.6 7.6 0 00-.1 1.5 51.7 51.7 0 01.1 6.8v1.9l.3 1.7a4.9 4.9 0 01.1 1.2 1.5 1.5 0 01-.6.9 12.5 12.5 0 01-.8 1.2 1.2 1.2 0 01-2-.2l-1-1c-.4.5-.7.5-1 0-.7-1.3.5-2.2.9-3.3a9.3 9.3 0 01.5-1 4.8 4.8 0 00.4-2.7c0-.9.1-1.8.1-2.8s-.1-1-.2-1.5l-.4-.9-.7-.8-.3-.4a2.7 2.7 0 01-.7-.8 4.5 4.5 0 01-.3-1.1 2 2 0 01.7-1.9c1-.5 1.9-1 3.1-.5s2.6.4 4-.4 3.5-.6 3.8 1.8a2.3 2.3 0 001.3 2.1 11.6 11.6 0 012.3 2.6 3.1 3.1 0 011.9-.1c2.1.5 4 1.2 4.6 3.6a3.9 3.9 0 01-1.5 4.2c-2.2 1.5-4.2 1.1-6.1-.4-.6.1-.6.6-.6 1a2.4 2.4 0 00.2.9 3.6 3.6 0 01.4.9 1.1 1.1 0 01.1.6z"/>
   <path class="cls-198" d="m131.4 29.9.4-.3c1.7-1 1.8-1 2.2.5s1.1 2.2 2.5 1.7 2.8-1.4 3-3.2a2.5 2.5 0 00-1.5-2.7 41.7 41.7 0 01-4.4-1.9 4.8 4.8 0 011.4-5.4l2.4-2.1a2.7 2.7 0 01.9 0c1.9.1 2 .1 2 1.9v.9l-.4.5c-.4 1.4-3.1.1-2.7 2.4h.1c.6.4 1.4.3 1.9.7a.7.7 0 00.8.3 1.8 1.8 0 011.1.8h.1a1.8 1.8 0 01.8 1.1.7.7 0 00.3.8 7.5 7.5 0 010 4.7l-4 4a18.7 18.7 0 01-2.2.7l-.3-.2-.4.2-2.8-.9c-.4-.3-.8-.5-.9-1-1.1-.9-.6-2.2-.3-3.5z"/>
   <path class="cls-132" d="m121.8 25.5v3.1c-.7.9 0 2.3-1 3.1a6.2 6.2 0 01-5.1 3.8l-.2-.2h-.2a4.1 4.1 0 01-3.9-2.9c.1-.3.1-.5-.2-.7a11.4 11.4 0 010-5.8.8.8 0 00.2-.8c.5-.6.3-1.5.8-2l3-3.9c2.2-1.4 3 .2 3.8 1.8h.1a3.4 3.4 0 00.8.9h.2l.8 1a4.5 4.5 0 01.9 2.6z"/>
   <path class="cls-199" d="m103.1 35.5.8.7c1 2.2 2.5-.6 3.7.4v1.9c-2.6.8-3.6.8-6.1-.3-.9-.5-1.4-.2-2.1.3s-1.6 1-2.4 0-1.7-.6-2.4.1-2.3 2.2-3.2 2.9l-4.9-2c-1.5-2.6-1.3-4.1 2.3-4.2s6.2-1.3 9.5-.8l1.2.3a11.5 11.5 0 003.6.7z"/>
   <path class="cls-172" d="m115.8 35.5a11.3 11.3 0 005.1-3.8c.4 1.7-1.3 2.6-1.8 3.9z"/>
   <path class="cls-172" d="m111.5 32.5 3.9 2.9c-.4.2-.9.6-1.2.5s-2.9-1.4-2.7-3.4z"/>
   <path class="cls-200" d="m119.1 21.1c-.9-1.3-1.9-2.5-3.8-1.8 1-1.4 2.5-.8 3.8-.9z"/>
   <path class="cls-172" d="m107.6 36.6a12.2 12.2 0 01-1.7.7c-1 .3-1.7.1-2-1.1 1.8.6 2.6-.7 3.6-1.8z"/>
   <path class="cls-201" d="m111.3 26v5.8a4.8 4.8 0 010-5.8z"/>
   <path class="cls-201" d="m107.6 33.7c.3-1.4.6-2.7.8-4.1.1 1.5.6 3-.8 4.1z"/>
   <path class="cls-201" d="m108.7 27.9c.2-1 .5-2 .7-3.1.1 1.1.3 2.3-.7 3.1z"/>
   <path class="cls-136" d="m126 15.5-.3-2.8c1 .2 1.1 1.1 1.2 1.9z"/>
   <path class="cls-201" d="m109.5 24.1c.3-1.1.6-2.2.8-3.3.2 1.2.4 2.4-.8 3.3z"/>
   <path class="cls-172" d="m119.1 35.6h1l-.5 1.3z"/>
   <path class="cls-201" d="m112.3 23.2-.8 2z"/>
   <path class="cls-172" d="m123.9 35.6.2-1.3c.6.2 1 .5.8 1.2v.2z"/>
   <path class="cls-202" d="m144.2 33.5a.7.7 0 00-.2-.8c-.2-.2-.3-.4-.2-.6s.1-.3.2-.3v-8.7a1.1 1.1 0 01.2-1.8h-.1c.3-.5.4-1 .9-1.3a2 2 0 011.1 0 4.1 4.1 0 01.7 1.5.6.6 0 00.2.7 36.9 36.9 0 01-.1 12.4c-1.5 1.1-2.2.1-2.7-1.1z"/>
   <path class="cls-173" d="m145.7 20.4h-.5a1.1 1.1 0 01-1.2-.1h-3.7q-.5-.3-.3-.6c0-.2.1-.3.2-.3h1c.8-.1 1.7 0 2.2-.4s3.2-1.1 4.8-.8 1.1 1.3.7 2.2h-1.9a1.2 1.2 0 01-1.3 0z"/>
   <path class="cls-178" d="m146.9 34.6c0-4.1.1-8.3.1-12.4.3.4.7.7.7 1.1q.2 5.1 0 10.2c0 .4-.5.8-.8 1.1z"/>
   <path class="cls-176" d="m140.2 19.4c0 .3.1.6.1.9l-3.1 1.9-.7-.4c.3-.5.4-1.2.8-1.4s2.1-.1 2.9-1z"/>
   <path class="cls-176" d="m142.3 30.8v-4.7a3.5 3.5 0 010 4.7z"/>
   <path class="cls-173" d="m144.2 33.5c.7.8 1.4 1.6 2.7 1.2-1.9 1.3-2.3 1.1-2.7-1.2z"/>
   <path class="cls-172" d="m136.1 35.5 2.2-.7a2.1 2.1 0 01-2.2.7z"/>
   <path class="cls-176" d="m139.2 23-1.9-.7z"/>
   <path class="cls-173" d="m144.2 21.3-.2 1.8c-.9-.6-.9-1.3.2-1.8z"/>
   <path class="cls-176" d="m144 20.3h1.2l-1.1.9a3.4 3.4 0 00-.1-.9z"/>
   <path class="cls-176" d="m144 31.8v.9c-.1-.2-.3-.4-.3-.6s.2-.2.3-.3z"/>
   <path class="cls-176" d="m142 25.3a10.5 10.5 0 00-.8-1.1 10.5 10.5 0 01.8 1.1z"/>
   <path class="cls-176" d="m141.1 24.1-1.1-.8z"/>
   <path class="cls-176" d="m145.7 20.4h1.3c-.1.4-.1.8-.2 1.2z"/>
   <path class="cls-203" d="m99.9 35.6h-4.3a9.9 9.9 0 00-5.1.9 3.6 3.6 0 01-1.8.2c-2.1-.1-2.1-.1-2.2 1.8a3.4 3.4 0 000 1c-.6.5-1.5.3-2 .9h-.9c0-2.8-3.8-2.2-4.2-4.7 1.6-2.7 3.1-5.6 5.5-7.7s.9-5.2-.5-6.6-3.9-.2-5.3 1.7-1.2 2.9-2.8 3.8c-3.2 1.1-3.7-1.4-4.2-3.5s.3-4.7 3-5.6a4.6 4.6 0 014.4.4l1.3-.7c3-.5 5.9-2.3 8.7.3.9.9 1.3.3 1.8-.4s1.1-2.4 2.8-1.9c1.1.8 4.4-.1 2.3 3.2-.9 1.4 1.1 2.3 1.6 3.5a29.7 29.7 0 014 10.1c.6.9-.4 2.5 1.1 3.2-1.6 1.3-1.7 1.3-3.2.1z"/>
   <path class="cls-204" d="m79.5 18.2a45.9 45.9 0 00-5.1 1 1.7 1.7 0 00-1 1.4 18.2 18.2 0 00.1 3.3c.2 2.6.2 2.6 3.3 2.2a1.5 1.5 0 01.1 2.1c-2.7 3.2-.9 4.6 2.1 5.5a1.9 1.9 0 01-1.2 2.8l-1.8.7a3.9 3.9 0 01-4.8-.7 16.5 16.5 0 01-.9-7c.1-2.8.3-5.7.2-8.6a3.2 3.2 0 013-3.6c1.7-.8 3.7.1 5.4-.8s.7 1 .6 1.7z"/>
   <path class="cls-199" d="m77.8 36.5c.6-.8 1.5-1.5 1.1-2.7 1.5 0 1.5.8.9 1.8s.6.8 1 .9c2.3.4 2.9 1.9 2.8 3.9-.5-.4-.9-1.1-1.4-1.1-2.1 0-3.2-1.5-4.4-2.8z"/>
   <path class="cls-199" d="m84.5 40.4 2-.9z"/>
   <path class="cls-205" d="m124.9 35.5-.8-1.2c.1-.2.1-.4-.2-.6a2.1 2.1 0 01-.5-1.3v-10.7a2 2 0 01.6-1.4c.6-.7 1.2-.7 1.7-.1h.1c.6.6.5 1.5.9 2.1a.5.5 0 00.1.8l.3 6.6c0 1.4 0 2.9-.1 4.3s-1 1.5-2.1 1.5z"/>
   <path class="cls-206" d="m69.2 35.6c-2 1.6-2 1.6-4.6-.1-.8-.3-.5-1.3-1.2-1.7-.3-.4-.7-.6-.8-1.1-.7-.3-.5-1.3-1-1.8h-.1c-.4-.3-.4-.7-.5-1.1a1.5 1.5 0 01-.4 1.1l-.2 2.6c-1.1 2.4-2.3 2.3-3.6.1l1.1-15.1c.3-.1.5-.3.8-.3a23.5 23.5 0 004.2-1c1.3-1.1 2.8-1 4.4-.8 1.8 2.3 1.4 4.4-.2 6.5l-1 1.1c-.8.9-1.7 1.8-2.5 2.8a32.3 32.3 0 002.2 4.1c.7 1.1 1.2 2.6 3 2.7.2-.1.3 1.3.4 2z"/>
   <path class="cls-207" d="m49.1 25.3c.3-1.4.6-2.8.8-4.2s-.1-2.9-2.2-2.8c-.2 0-.7-.7-.7-1s.5-1 .8-1l9.5-.5c.2 0 .5.5.5.8a.9.9 0 01-.5.7l-2.7.9c-.8-.1-1.7-.1-1.8.9a9.7 9.7 0 00-.1 2.4c-.2 3.7-.3 7.3-.5 11a20 20 0 01-.4 2.4c-.1.3-.7.8-1.1.7a1.8 1.8 0 01-1.4-.8 6.2 6.2 0 01-.4-2.3c.1-2.4.2-4.8.2-7.2z"/>
   <path class="cls-191" d="m56.8 33.5c1.9 1.5 1.9 1.5 3.6-.1.1 1.2-.3 2.1-1.7 2.2s-1.9-.8-1.9-2.1z"/>
   <path class="cls-191" d="m63.4 33.8 1.2 1.7a1.5 1.5 0 01-1.2-1.7z"/>
   <path class="cls-191" d="m61.6 30.8 1 1.8c-.9-.2-1.1-1-1-1.8z"/>
   <path class="cls-191" d="m60.6 30.8.2-1.2.7 1.2z"/>
   <path class="cls-191" d="m62.6 32.6.8 1.1z"/>
   <path class="cls-208" d="m78.9 16.5c-1.6 1.5-3.6.8-5.4.8l2.4-1z"/>
   <path class="cls-185" d="m98 22.2-2.7-1.9c-1.1-.8-1.1-.9.3-2.2l.6-.6c.1-.1.1-.3.2-.5l-2.3-1.5 3-1.4h1.3c.8.4.5 2.3 1.8 1.8s.8-1.6 1.4-2.4a1.5 1.5 0 012.1-.4 5.5 5.5 0 012.1 1.9 21.1 21.1 0 01.9 3.6c-.3 1.2-.6 2.4-1 3.6s-.4 1.9-.5 2.9a2.8 2.8 0 01-.4 1.2 1.1 1.1 0 01-1.1-.2c-.5-.6-.3-1.5-.9-2s-.4-1.4-1-1.9l-2.1-3.1a2.8 2.8 0 00-1.1-.8 1.9 1.9 0 00-1.3.1 1.5 1.5 0 00-.4 1.2 14.5 14.5 0 001.1 2.6z"/>
   <path class="cls-209" d="m104.7 26c.2-.1.3-.3.1-.5s.3-.6.8-.5a11.7 11.7 0 01-.4 2.6c0 .3-.7.4-1 .6l-.5-1.2a9.4 9.4 0 011-1z"/>
   <path class="cls-199" d="m103.1 35.5c-1.7-.7-1.2-2-1.1-3.2.3 1 .7 2.1 1.1 3.2z"/>
   <path class="cls-210" d="m105.6 25-.8.5c0-1.2-.4-2.5.9-3.3z"/>
   <path class="cls-210" d="m102.8 24.1c.8.4.9 1.1.9 2z"/>
   <path class="cls-210" d="m101.8 22.2a1.9 1.9 0 011 1.9z"/>
   <path class="cls-136" d="m108.7 13.8a10.5 10.5 0 01.8-1.1z"/>
   <path class="cls-210" d="m104.7 26c0 .6-.2 1.1-1 1a1.4 1.4 0 010-.9z"/>
   <path class="cls-185" d="m94.1 15.5a3.1 3.1 0 00-1.9 2.5 8.1 8.1 0 01-.7 2.2 1.1 1.1 0 01-1.9.1 14.2 14.2 0 00-.8-1.8c-.6-1.2-1.1-1.2-2.9-.6a4.6 4.6 0 01-2.3.3 22.9 22.9 0 01-2.8-.7c-.1-1.4-1-1.9-2.1-2.3s-.3-.4-.5-.7l.8-.3a7.1 7.1 0 002.2-.7 1.9 1.9 0 012.9.2c2.3 2.6 5.1 2.8 8 1.4.9-.4 1.5-.5 2 .4z"/>
   <path class="cls-172" d="m123.6 21.2c.1 3.2.1 6.4.2 9.6q-.5.8-.9 0c.1-3.2.1-6.4.1-9.6z"/>
   <path class="cls-172" d="m131.4 29.9.3 3.7c-1.4-1.5-1.4-1.7-.3-3.7z"/>
   <path class="cls-200" d="m120.9 31.7c.3-1 .6-2 1-3.1.1 1.2.4 2.4-1 3.1z"/>
   <path class="cls-200" d="m122.9 30.8h.9v2a.7.7 0 01-.9 0z"/>
   <path class="cls-200" d="m121.8 25.5a20.9 20.9 0 01-.8-2.3 1.9 1.9 0 01.8 2.3z"/>
   <path class="cls-170" d="m126.7 22.4-.9-2.1c.9.4 1 1.2.9 2.1z"/>
   <path class="cls-170" d="m125.7 20.3h-1.7c.6-1 1.1-1 1.7 0z"/>
   <path class="cls-200" d="m123.6 21.2h-.6l1-.9z"/>
   <path class="cls-172" d="m131.7 33.6.9 1z"/>
   <path class="cls-172" d="m122.9 32.8h.9v.9z"/>
   <path class="cls-200" d="m121 23.2a3.9 3.9 0 01-.8-1 3.9 3.9 0 00.8 1z"/>
   <path class="cls-200" d="m120 22.1-.8-.9z"/>
   <path class="cls-211" d="m114.1 28.3c.4-1.2.8-2.8 1.4-4.4a1.3 1.3 0 011.1-.8 2.8 2.8 0 011.1.8 5.7 5.7 0 01-.2 7c-.3.5-1.2 1-1.5.8a3.8 3.8 0 01-1.6-1.5 10.5 10.5 0 01-.3-1.9z"/>
   <path class="cls-212" d="m79.8 35.6-.9-1.8-4.7.5a20 20 0 01-.5-2.6c-.3-1.8.2-3.1 2.1-3.5s1.4-1.1 1-2.1a.7.7 0 01.1-.5c1.9-5.9 1.3-5.1 6.6-5.4l1.4-.2 2.7 4.5c.8 1.5.8 2.4-.6 3.3a10.4 10.4 0 00-4.1 4.9c-.5 1.2-2 1.9-3.1 2.9z"/>
   <path class="cls-199" d="m100.3 34.4.3.2c-.1.3-.1.6-.3.8s-.5.3-.4-.2a3 3 0 01.4-.8z"/>
   <path class="cls-213" d="m62 23.6c.4-2 .9-4 3.3-4.5.1 0 .3.1.3.2.2 2.6-1.8 3.4-3.6 4.3z"/>
  </g>
 </g>
</svg>
