<svg id="Layer_19" data-name="Layer 19" xmlns="http://www.w3.org/2000/svg" width="164" height="179" viewBox="0 0 164 179">
  <title>lesarstsvoisins</title>
  <g>
    <path d="M164.7,179H1.1c0-.5-.1-1-.1-1.5V.8c0-.3.1-.7.1-1.1H164.7V179Zm-56-114.2-.2-.4c-4.1-3.9-7.2-8.6-10.4-13.3a61.7,61.7,0,0,1-7.2-15.9,86,86,0,0,1-3.7-20c0-.6-.1-1-.8-1-2.4.1-4.8.1-7.1,0-.6,0-.8.2-.8.8-.4,3.2-.8,6.3-1.3,9.5a88.8,88.8,0,0,1-5.1,17.6A61.7,61.7,0,0,1,61.9,59.4a119.1,119.1,0,0,1-9.4,9.4c-7,6.1-13.7,12.6-19,20.2A84.7,84.7,0,0,0,25,103.2a69.6,69.6,0,0,0-5.4,17.7c-.7,4.2-1,8.5-1.5,12.7-.1.8.2,1,1,1h7.1c.7,0,1-.2,1-.9a46.4,46.4,0,0,1,2.2-13.9q2.3-7,5.1-13.8a67.4,67.4,0,0,1,9-15.6c4.5-5.9,10-10.7,15.3-15.8,3.5-3.3,6.9-6.6,10.1-10.2,5-5.7,8.1-12.7,11.2-19.6.9-2.1,1.6-4.1,2.6-6.4,3.9,12.4,11,22.8,19.4,32.3Zm38.9-50.7-.6-.2h-8c-.6,0-.6.4-.6.9s-.2,3.9-.5,5.8a79.1,79.1,0,0,1-3.7,14.3,93.9,93.9,0,0,1-9.4,19.4A55.3,55.3,0,0,1,117,64L102.8,77.6a63.2,63.2,0,0,0-9.3,10.7,100,100,0,0,0-9,17.9l-1.6,4c-.2-.4-.2-.6-.3-.7A72.5,72.5,0,0,0,75.5,94c-1.7-2.7-3.5-5.4-5.5-8s-4.1-5-6.1-7.5a.7.7,0,0,0-1.1-.1l-5.9,5.3c1.9,2.3,3.9,4.6,5.6,6.9a70.2,70.2,0,0,1,8.8,14A80,80,0,0,1,77,123c.7,3.5,1,7,1.4,10.6,0,.6.3.7.8.7h7.1c.6.1.7-.2.8-.8s.3-4.2.7-6.3a96.4,96.4,0,0,1,4.7-18.3,64.1,64.1,0,0,1,13.6-22.5c3.3-3.3,6.8-6.5,10.3-9.6a104.2,104.2,0,0,0,17.8-20.3,73.8,73.8,0,0,0,9.1-18.2,79.7,79.7,0,0,0,3.5-16.1C147.1,19.5,147.3,16.8,147.6,14.1Zm-8.8,120.3h7.5c.8,0,1-.2.9-.9a75.3,75.3,0,0,0-1-8.3c-.8-4.2-1.7-8.3-2.9-12.4a85.9,85.9,0,0,0-3.9-11.1,84.1,84.1,0,0,0-10-16.2c-1.6-2.2-3.4-4.3-5.1-6.4s-1.1-1.1-2.2-.2L119,81.7l-2.2,2C129.8,98.2,136.4,115.4,138.8,134.4ZM48.5,65.2c-2.7-3.5-5.3-6.9-7.7-10.4s-3.1-5-4.6-7.5a25.4,25.4,0,0,1-1.6-3.8c-1.4-3.9-3-7.7-4.3-11.7a85.5,85.5,0,0,1-3.5-16.7c-.1-.7-.3-.9-.9-.8H19.4c-.9,0-1.2.3-1.1,1.2a74.9,74.9,0,0,0,2.4,14.8c1.6,6.6,3.3,13.2,6.5,19.2,1.2,2.1,2.3,4.2,3.7,6.2q3.6,5.4,7.5,10.5c1.2,1.6,2.5,3.1,3.8,4.7Zm84.7,99.1h-.3l-.3-.4c-.6-1-1.2-1.9-1.7-2.9a1.3,1.3,0,0,0-1.7-.6,1.6,1.6,0,0,0-.4,1.1c-.1,1.1-.2,2.3-.2,3.4v4.5h.6c1.4.1,1.4.1,1.4-1.3v-2.9a.8.8,0,0,1,.6.5c.7,1.1,1.4,2.2,2,3.3s1,.5,1.5.4.5-.7.5-1c0-2.3-.1-4.5,0-6.8s-.5-.9-1.1-.9-1,.1-1,.9A22.6,22.6,0,0,1,133.2,164.3Zm-22,.3a4.2,4.2,0,0,0-4-4.3c-2.4-.1-4.3,2.1-4.3,4.7a4.6,4.6,0,0,0,4.3,4.6C109.4,169.6,111.2,167.4,111.2,164.6ZM93.8,154.4l-.6-2.7a1.7,1.7,0,0,1,.2-1.7c1.3-1.9.3-4-2-4.4l-2.2-.2c-.7-.1-1,.2-1.1.9s-.4,4.5-.6,6.7-.1,1.5,1.4,1.5h.5c0-.5.1-.8.1-1.2s0-.8.2-1.1.4-.7.6-.7.6.3.8.6a3.8,3.8,0,0,1,.3,1C91.9,154.8,91.9,154.8,93.8,154.4Zm-32.4-8a13.8,13.8,0,0,0-2.2-1,3.7,3.7,0,0,0-3.5.8,5.5,5.5,0,0,0-1.4,6.2,3.6,3.6,0,0,0,2.1,2.1c2.8.9,5.4-1.5,4.9-4.8H57.9c0,.5-.2,1,0,1.4s.6.5,1.1,1a5.8,5.8,0,0,1-1.6.5c-.7,0-1.1-.6-1.3-1.2A3.4,3.4,0,0,1,56,150c0-2.1,1.7-3.1,3.6-2.2l.8.3Zm23.6-1H81.3c-2,.1-2,.1-2,2.1s.1,4.1.2,6.1c0,.3.3,1,.5,1h5.5v-.8c.1-1.3.1-1.3-1.1-1.3H81.6v-1.1a7.3,7.3,0,0,0,2.2-.3c.9-.5.2-1.3.2-2H82.5c-.6,0-1.1.1-1.1-.8s.2-1.1,1-1h1.4c1.3,0,1.3,0,1.2-1.3Zm16.3,0v8.7c0,.2.5.5.7.5h3.8c1.7,0,1.7,0,1.6-1.6l-.2-.5h-3.9v-1.2h1.9a.8.8,0,0,0,.6-.4c.4-1.2,0-1.8-1.3-1.7h-.5c-.7.1-.9-.3-.9-.9s.1-.9.8-.9h2.9a5.7,5.7,0,0,0-.1-1.4c0-.2-.3-.6-.5-.6Zm-31.7,24a.7.7,0,0,0-.1-.5c-.6-1.6-1.3-3-.4-4.9a2.7,2.7,0,0,0-2.3-3.5h-2c-.9,0-1.3.3-1.2,1.2a10.8,10.8,0,0,1,0,1.8v6h1.1c.8.1,1.1-.2,1-1a4.8,4.8,0,0,1,0-1.2c0-.2.3-.4.5-.5l.5.3a4.2,4.2,0,0,1,.4,1C67.7,169.7,67.9,169.8,69.6,169.4Zm.5-15.2c0-.3.1-.5,0-.7-.7-2.5-1.5-5-2.3-7.5a1,1,0,0,0-.5-.4c-1-.5-1.6-.2-2.1,1.1s-1.3,4.5-1.9,6.7a2.1,2.1,0,0,0,0,.8l1.8.4c.2-1.2.6-2.2,2.1-2s.6,1.3,1.2,1.9Zm-35,8.3h3.2c.6,0,.7-.4.6-.8s.3-1.2-.5-1.2H33c0,2.8-.1,5.5-.1,8.2a.6.6,0,0,0,.5.5l5.2.3a3.1,3.1,0,0,1,.1-1c.2-.8-.1-1.2-1-1.1H35.6c-.2,0-.4-.4-.6-.6l.6-.6h.6c1.4,0,1.4,0,1.4-1.4s-.1-.4-.1-.6H35.1Zm23.8-2.2c-2,.1-2.1.2-2.6,1.9s-.3,1-.5,1.5-.9,3.8-1.4,5.7c2.1.4,2.1.3,2.5-1.5s.3-.7.6-.8,1.5-.2,1.8,1,.1.6.2.9l.5.5h1.9Zm34.7.6c.7,2.7,1.5,5.2,2.2,7.7.1.5.2,1,.9,1s1.6.2,2-.8.8-1.9,1.1-2.9,1.1-3.2,1.7-4.9l-1.9-.5-2.1,6.2h-.3l-1.7-6.3Zm-9.4,1.8,1-1.2a2.8,2.8,0,0,0-4.4.1c-1.1,1.5-.9,2.9.4,3.7a10.4,10.4,0,0,0,1.6.6c.6.2.7.6.4,1.1a.8.8,0,0,1-.9.4,1.2,1.2,0,0,1-.7-.5c-.3-1-.9-.5-1.4-.4s-.8.5-.6,1.1a2.9,2.9,0,0,0,3.5,1.9,3,3,0,0,0,2.3-2.7,2.4,2.4,0,0,0-2-2.8l-.6-.2c-.3-.2-.6-.5-.5-.6a.6.6,0,0,1,.6-.6C83.3,162.5,83.7,162.7,84.2,162.7Zm57.4.2.5-.7c.7-.8.6-1.1-.3-1.5a3.1,3.1,0,0,0-4,1.6c-.6,1.5,0,2.7,1.6,3.3l1,.4c.2.2.5.7.4.9a1.3,1.3,0,0,1-1,.6,1.6,1.6,0,0,1-.8-.6c-.3-1-.9-.5-1.4-.4s-.7.5-.6,1a2.6,2.6,0,0,0,2,1.9c1.3.2,2.5.1,3.3-1s.6-3.8-1.7-4.5c-.4-.1-1.1-.1-.9-.9a1,1,0,0,1,1.4-.4Zm-19-1.4a2.7,2.7,0,0,0-3.2-.8,3,3,0,0,0-1.9,2.5c-.1,1.4.6,2,2.5,2.7.3.1.5.5.8.8s-.5.6-.8.7a.7.7,0,0,1-1.1-.5c-.1-.3-.4-.6-.6-.6a3.3,3.3,0,0,0-1.5.5c-.2.2-.1.9.1,1.2a3.6,3.6,0,0,0,3.6,1.5,3,3,0,0,0,2.3-2.7,2.4,2.4,0,0,0-2-2.8c-.2-.1-.5-.1-.7-.3s-.5-.3-.5-.5a1.5,1.5,0,0,1,.5-.6h1l.8-.2C122.2,162.2,122.3,161.8,122.6,161.5Zm-80.2,4.7-1.4.4c-.1.1-.4.4-.3.5a3.5,3.5,0,0,0,.9,1.7,2.9,2.9,0,0,0,3.5.3,2.9,2.9,0,0,0,1.5-2.8,2.6,2.6,0,0,0-2.3-2.4c-.4-.1-1.1-.1-.9-.9s.8-.6,1.4-.4l.5.3.5-.7.5-.7a2.5,2.5,0,0,0-3.1-.8,2.8,2.8,0,0,0-1.9,2.7c0,1.1.6,1.8,1.9,2.3l.7.2c.3.2.6.5.6.7a1,1,0,0,1-.6.8C42.9,167.8,42.7,167.1,42.4,166.2Zm33.1,3.2v-6.9h1.4a.8.8,0,0,0,.6-.4c.4-1,0-1.6-1.1-1.6H71.6v1.9h.9c.8-.1,1.1.1,1.1.9a24.4,24.4,0,0,0-.1,2.7v3.4Zm-48.1-8.8h-.6c-1.4-.2-1.4-.2-1.5,1.2s-.3,3.6-.5,5.3a17.7,17.7,0,0,0-.1,2.3l5.9.4a2.4,2.4,0,0,0,.2-.8c.2-1.2.2-1.2-1.1-1.3l-2.8-.3Zm46.9-8.1V147c-.1-1.6-.1-1.7-1.7-1.5h-.3V154c0,.2.5.5.7.5h2.8c1.8-.1,1.8,0,1.6-1.8v-.2Zm50.3,8a14.7,14.7,0,0,0,0,2.1c0,2,0,4.1.1,6.2s.7.7,1.2.8.8-.2.8-.8-.1-2.7-.1-4.1v-4.2Zm-25.8-5.9c.1-2.7.3-5.3.4-7.9.1-.7.1-1.2-.9-1.2s-1.1.3-1.1,1.1-.2,4.3-.4,6.4-.1,1.7,1.6,1.7Zm14.2,6v8.8h.8c1.2.1,1.3.1,1.3-1.2s-.1-4.2-.2-6.4,0-1.6-1.6-1.4Z" style="fill: #ee494e"/>
    <path d="M1.1-.3C1.1.1,1,.5,1,.8V177.5c0,.5.1,1,.1,1.5H0V-.3Z" style="fill: #fcfbfb"/>
    <path d="M108.7,64.8l-6.6,5.9c-8.4-9.5-15.5-19.9-19.4-32.3-1,2.3-1.7,4.3-2.6,6.4C77,51.7,73.9,58.7,68.9,64.4c-3.2,3.6-6.6,6.9-10.1,10.2C53.5,79.7,48,84.5,43.5,90.4a67.4,67.4,0,0,0-9,15.6q-2.8,6.8-5.1,13.8a46.4,46.4,0,0,0-2.2,13.9c0,.7-.3.9-1,.9H19.1c-.8,0-1.1-.2-1-1,.5-4.2.8-8.5,1.5-12.7A69.6,69.6,0,0,1,25,103.2,84.7,84.7,0,0,1,33.5,89c5.3-7.6,12-14.1,19-20.2a119.1,119.1,0,0,0,9.4-9.4A61.7,61.7,0,0,0,72.1,42.1a88.8,88.8,0,0,0,5.1-17.6c.5-3.2.9-6.3,1.3-9.5,0-.6.2-.8.8-.8,2.3.1,4.7.1,7.1,0,.7,0,.8.4.8,1a86,86,0,0,0,3.7,20,61.7,61.7,0,0,0,7.2,15.9c3.2,4.7,6.3,9.4,10.4,13.3Z" style="fill: #fcfbfb"/>
    <path d="M147.6,14.1c-.3,2.7-.5,5.4-.8,8.1a79.7,79.7,0,0,1-3.5,16.1,73.8,73.8,0,0,1-9.1,18.2,104.2,104.2,0,0,1-17.8,20.3c-3.5,3.1-7,6.3-10.3,9.6a64.1,64.1,0,0,0-13.6,22.5,96.4,96.4,0,0,0-4.7,18.3c-.4,2.1-.5,4.2-.7,6.3s-.2.9-.8.8H79.2c-.5,0-.8-.1-.8-.7-.4-3.6-.7-7.1-1.4-10.6a80,80,0,0,0-5.7-18.4,70.2,70.2,0,0,0-8.8-14c-1.7-2.3-3.7-4.6-5.6-6.9l5.9-5.3a.7.7,0,0,1,1.1.1c2,2.5,4.2,4.9,6.1,7.5s3.8,5.3,5.5,8a72.5,72.5,0,0,1,7.1,15.5c.1.1.1.3.3.7l1.6-4a100,100,0,0,1,9-17.9,63.2,63.2,0,0,1,9.3-10.7L117,64a55.3,55.3,0,0,0,7.8-9.7,93.9,93.9,0,0,0,9.4-19.4,79.1,79.1,0,0,0,3.7-14.3c.3-1.9.3-3.9.5-5.8s0-.9.6-.9h8Z" style="fill: #fcfbfb"/>
    <path d="M138.8,134.4c-2.4-19-9-36.2-22-50.7l2.2-2,3.1-2.8c1.1-.9,1.4-.9,2.2.2s3.5,4.2,5.1,6.4a84.1,84.1,0,0,1,10,16.2,85.9,85.9,0,0,1,3.9,11.1c1.2,4.1,2.1,8.2,2.9,12.4a75.3,75.3,0,0,1,1,8.3c.1.7-.1.9-.9.9Z" style="fill: #fcfbfb"/>
    <path d="M48.5,65.2l-6.3,5.7c-1.3-1.6-2.6-3.1-3.8-4.7q-3.9-5.1-7.5-10.5c-1.4-2-2.5-4.1-3.7-6.2-3.2-6-4.9-12.6-6.5-19.2a74.9,74.9,0,0,1-2.4-14.8c-.1-.9.2-1.2,1.1-1.2h6.5c.6-.1.8.1.9.8a85.5,85.5,0,0,0,3.5,16.7c1.3,4,2.9,7.8,4.3,11.7a25.4,25.4,0,0,0,1.6,3.8c1.5,2.5,2.9,5.1,4.6,7.5S45.8,61.7,48.5,65.2Z" style="fill: #fcfbfb"/>
    <path d="M133.2,164.3a22.6,22.6,0,0,0-.1-2.6c0-.8.4-.9,1-.9s1.1,0,1.1.9,0,4.5,0,6.8c0,.3-.2.9-.5,1s-1.1.3-1.5-.4-1.3-2.2-2-3.3a.8.8,0,0,0-.6-.5v2.9c0,1.4,0,1.4-1.4,1.3h-.6v-4.5c0-1.1.1-2.3.2-3.4a1.6,1.6,0,0,1,.4-1.1,1.3,1.3,0,0,1,1.7.6c.5,1,1.1,1.9,1.7,2.9l.3.4Z" style="fill: #fcfbfb"/>
    <path d="M111.2,164.6c0,2.8-1.8,5-4,5a4.6,4.6,0,0,1-4.3-4.6c0-2.6,1.9-4.8,4.3-4.7A4.2,4.2,0,0,1,111.2,164.6Zm-2,0a2.1,2.1,0,0,0-2.1-2.2c-1.1-.1-2.1,1.2-2.1,2.7a2.3,2.3,0,0,0,2.1,2.3C108.2,167.5,109.1,166.2,109.2,164.6Z" style="fill: #fcfbfb"/>
    <path d="M93.8,154.4c-1.9.4-1.9.4-2.4-1.3a3.8,3.8,0,0,0-.3-1c-.2-.3-.5-.6-.8-.6s-.5.4-.6.7-.1.7-.2,1.1-.1.7-.1,1.2h-.5c-1.5,0-1.5,0-1.4-1.5s.5-4.5.6-6.7.4-1,1.1-.9l2.2.2c2.3.4,3.3,2.5,2,4.4a1.7,1.7,0,0,0-.2,1.7Zm-3.9-5.1.3.3a12.9,12.9,0,0,0,1.6-.9c.1-.1,0-.8-.2-.8a2.6,2.6,0,0,0-1.3-.3A8.5,8.5,0,0,0,89.9,149.3Z" style="fill: #fcfbfb"/>
    <path d="M61.4,146.4l-1,1.7-.8-.3c-1.9-.9-3.6.1-3.6,2.2a3.4,3.4,0,0,0,.1,1.4c.2.6.6,1.2,1.3,1.2a5.8,5.8,0,0,0,1.6-.5c-.5-.5-1-.7-1.1-1s0-.9,0-1.4h3.4c.5,3.3-2.1,5.7-4.9,4.8a3.6,3.6,0,0,1-2.1-2.1,5.5,5.5,0,0,1,1.4-6.2,3.7,3.7,0,0,1,3.5-.8A13.8,13.8,0,0,1,61.4,146.4Z" style="fill: #fcfbfb"/>
    <path d="M85,145.4v.7c.1,1.3.1,1.3-1.2,1.3H82.4c-.8-.1-1,.3-1,1s.5.8,1.1.8H84c0,.7.7,1.5-.2,2a7.3,7.3,0,0,1-2.2.3v1.1h2.8c1.2,0,1.2,0,1.1,1.3v.8H80c-.2,0-.5-.7-.5-1-.1-2-.1-4-.2-6.1s0-2,2-2.1Z" style="fill: #fcfbfb"/>
    <path d="M101.3,145.4h5c.2,0,.5.4.5.6a5.7,5.7,0,0,1,.1,1.4H104c-.7,0-.8.3-.8.9s.2,1,.9.9h.5c1.3-.1,1.7.5,1.3,1.7a.8.8,0,0,1-.6.4h-1.9v1.2h3.9l.2.5c.1,1.6.1,1.6-1.6,1.6H102c-.2,0-.7-.3-.7-.5Z" style="fill: #fcfbfb"/>
    <path d="M69.6,169.4c-1.7.4-1.9.3-2.5-1.2a4.2,4.2,0,0,0-.4-1l-.5-.3c-.2.1-.5.3-.5.5a4.8,4.8,0,0,0,0,1.2c.1.8-.2,1.1-1,1H63.6v-6a10.8,10.8,0,0,0,0-1.8c-.1-.9.3-1.2,1.2-1.2h2a2.7,2.7,0,0,1,2.3,3.5c-.9,1.9-.2,3.3.4,4.9A.7.7,0,0,1,69.6,169.4Zm-3.9-4.6c1.2-.1,1.7-.8,1.4-1.6a1,1,0,0,0-.8-.6.9.9,0,0,0-.6.6A8.5,8.5,0,0,0,65.7,164.8Z" style="fill: #fcfbfb"/>
    <path d="M70.1,154.2l-1.7.3c-.6-.6-.1-1.7-1.2-1.9s-1.9.8-2.1,2l-1.8-.4a2.1,2.1,0,0,1,0-.8c.6-2.2,1.2-4.5,1.9-6.7s1.1-1.6,2.1-1.1a1,1,0,0,1,.5.4c.8,2.5,1.6,5,2.3,7.5C70.2,153.7,70.1,153.9,70.1,154.2Z" style="fill: #fcfbfb"/>
    <path d="M35.1,162.5V164h2.4c0,.2.1.4.1.6s0,1.4-1.4,1.4h-.6l-.6.6c.2.2.4.6.6.6h2.1c.9-.1,1.2.3,1,1.1a3.1,3.1,0,0,0-.1,1l-5.2-.3a.6.6,0,0,1-.5-.5c0-2.7.1-5.4.1-8.2h5.4c.8,0,.4.8.5,1.2s0,.8-.6.8Z" style="fill: #fcfbfb"/>
    <path d="M58.9,160.3l3,9.2H60l-.5-.5c-.1-.3-.1-.6-.2-.9s-.7-1.4-1.8-1-.5.5-.6.8-.4,1.9-2.5,1.5c.5-1.9,1-3.8,1.4-5.7s.3-1,.5-1.5S56.9,160.4,58.9,160.3Z" style="fill: #fcfbfb"/>
    <path d="M93.6,160.9l1.9-.5,1.7,6.3h.3l2.1-6.2,1.9.5c-.6,1.7-1.1,3.3-1.7,4.9s-.8,1.9-1.1,2.9-1.3.7-2,.8-.8-.5-.9-1C95.1,166.1,94.3,163.6,93.6,160.9Z" style="fill: #fcfbfb"/>
    <path d="M84.2,162.7c-.5,0-.9-.2-1.3-.1a.6.6,0,0,0-.6.6c-.1.1.2.4.5.6l.6.2a2.4,2.4,0,0,1,2,2.8,3,3,0,0,1-2.3,2.7,2.9,2.9,0,0,1-3.5-1.9c-.2-.6-.1-1,.6-1.1s1.1-.6,1.4.4a1.2,1.2,0,0,0,.7.5.8.8,0,0,0,.9-.4c.3-.5.2-.9-.4-1.1a10.4,10.4,0,0,1-1.6-.6c-1.3-.8-1.5-2.2-.4-3.7a2.8,2.8,0,0,1,4.4-.1Z" style="fill: #fcfbfb"/>
    <path d="M141.6,162.9l-.5-.3a1,1,0,0,0-1.4.4c-.2.8.5.8.9.9,2.3.7,3,2.7,1.7,4.5s-2,1.2-3.3,1a2.6,2.6,0,0,1-2-1.9c-.1-.5-.1-.9.6-1s1.1-.6,1.4.4a1.6,1.6,0,0,0,.8.6,1.3,1.3,0,0,0,1-.6c.1-.2-.2-.7-.4-.9l-1-.4c-1.6-.6-2.2-1.8-1.6-3.3a3.1,3.1,0,0,1,4-1.6c.9.4,1,.7.3,1.5Z" style="fill: #fcfbfb"/>
    <path d="M122.6,161.5c-.3.3-.4.7-.7.9l-.8.2h-1a1.5,1.5,0,0,0-.5.6c0,.2.3.4.5.5s.5.2.7.3a2.4,2.4,0,0,1,2,2.8,3,3,0,0,1-2.3,2.7,3.6,3.6,0,0,1-3.6-1.5c-.2-.3-.3-1-.1-1.2a3.3,3.3,0,0,1,1.5-.5c.2,0,.5.3.6.6a.7.7,0,0,0,1.1.5c.3-.1.5-.4.8-.7s-.5-.7-.8-.8c-1.9-.7-2.6-1.3-2.5-2.7a3,3,0,0,1,1.9-2.5A2.7,2.7,0,0,1,122.6,161.5Z" style="fill: #fcfbfb"/>
    <path d="M42.4,166.2c.3.9.5,1.6,1.5,1.2a1,1,0,0,0,.6-.8c0-.2-.3-.5-.6-.7l-.7-.2c-1.3-.5-1.9-1.2-1.9-2.3a2.8,2.8,0,0,1,1.9-2.7,2.5,2.5,0,0,1,3.1.8l-.5.7-.5.7-.5-.3c-.6-.2-1.1-.2-1.4.4s.5.8.9.9a2.6,2.6,0,0,1,2.3,2.4,2.9,2.9,0,0,1-1.5,2.8,2.9,2.9,0,0,1-3.5-.3,3.5,3.5,0,0,1-.9-1.7c-.1-.1.2-.4.3-.5Z" style="fill: #fcfbfb"/>
    <path d="M75.5,169.4h-2V166a24.4,24.4,0,0,1,.1-2.7c0-.8-.3-1-1.1-.9h-.9v-1.9h4.8c1.1,0,1.5.6,1.1,1.6a.8.8,0,0,1-.6.4H75.5Z" style="fill: #fcfbfb"/>
    <path d="M27.4,160.6l-.5,6.7,2.8.3c1.3.1,1.3.1,1.1,1.3a2.4,2.4,0,0,1-.2.8l-5.9-.4a17.7,17.7,0,0,1,.1-2.3c.2-1.7.4-3.5.5-5.3s.1-1.4,1.5-1.2Z" style="fill: #fcfbfb"/>
    <path d="M74.3,152.5h3v.2c.2,1.8.2,1.7-1.6,1.8H73c-.2,0-.7-.3-.7-.5v-8.4h.3c1.6-.2,1.6-.1,1.7,1.5Z" style="fill: #fcfbfb"/>
    <path d="M124.6,160.5h2v4.2c0,1.4.1,2.7.1,4.1s-.2.8-.8.8-1.2.1-1.2-.8-.1-4.2-.1-6.2A14.7,14.7,0,0,1,124.6,160.5Z" style="fill: #fcfbfb"/>
    <path d="M98.8,154.6h-.4c-1.7,0-1.7,0-1.6-1.7s.3-4.2.4-6.4.2-1.1,1.1-1.1,1,.5.9,1.2C99.1,149.3,98.9,151.9,98.8,154.6Z" style="fill: #fcfbfb"/>
    <path d="M113,160.6h.3c1.6-.2,1.6-.2,1.6,1.4s.1,4.3.2,6.4-.1,1.3-1.3,1.2H113Z" style="fill: #fcfbfb"/>
    <path d="M109.2,164.6c-.1,1.6-1,2.9-2.1,2.8a2.3,2.3,0,0,1-2.1-2.3c0-1.5,1-2.8,2.1-2.7A2.1,2.1,0,0,1,109.2,164.6Z" style="fill: #ee494e"/>
    <path d="M89.9,149.3a8.5,8.5,0,0,1,.4-1.7,2.6,2.6,0,0,1,1.3.3c.2,0,.3.7.2.8a12.9,12.9,0,0,1-1.6.9Z" style="fill: #ee494e"/>
    <path d="M65.7,164.8a8.5,8.5,0,0,1,0-1.6.9.9,0,0,1,.6-.6,1,1,0,0,1,.8.6C67.4,164,66.9,164.7,65.7,164.8Z" style="fill: #ee494e"/>
  </g>
</svg>
