<svg width="31.707mm" height="25.907mm" version="1.1" viewBox="0 0 31.707 25.907" xmlns="http://www.w3.org/2000/svg">
 <g transform="translate(-89.165 -135.47)">
  <path class="cls-2" d="m106.9 137.8.3175.18521c.37042.18521.87313.26458 1.0848.55563a3.7835 3.7835 0 00.79375.92604c.50271.39687.47625 1.3494-.0264 1.7992a4.789 4.789 0 00-.55563.47625.39688.39688 0 00.26458.58209c.3175.0529.68792.10583.89959-.23813.21166-.34396.58208-.39687.9525-.50271.92604-.26458 1.8521-.23812 2.7781-.23812 1.4817 0 2.9633.0265 4.445 0a.68792.68792 0 01.76729.50271c.10584.37041.39688.50271.7673.52916h1.0319c-.74083 1.0054-1.614.39688-2.4606.23813-.84667-.15875-.97896-.34396-1.4552-.55563a2.8046 2.8046 0 00-1.7992 0 5.371 5.371 0 01-1.2965.10584 3.3602 3.3602 0 00-.89958.10583l-.50271.10583h-.68792a3.9423 3.9423 0 00-1.2171.3175l-.15875.0529-.3175.13229a10.716 10.716 0 01-1.5081.635c-.47625.10584-.92605.10584-1.2436-.34396a.50271.50271 0 01-.0529-.34395c.13229-.23813.34396-.42334.47625-.635l.635-.87313a5.2387 5.2387 0 00.29104-.52917l.0794-.3175c.15875-.74083-.23812-.92604-.87312-.87312a.74083.74083 0 01-.23813-.26458c-.0794-.50271-.47625-.92605-.39687-1.4552a.26458.26458 0 01.10583-.0794z" style="fill:#fefefe;stroke-width:.26458"/>
  <path class="cls-5" d="m100.29 157.62h.76729a1.561 1.561 0 011.1642.39688 2.2754 2.2754 0 002.3548.47625 1.0848 1.0848 0 01.9525.10583 1.6404 1.6404 0 001.561.10584 1.6669 1.6669 0 01.635-.0794h7.62c.29104.0265.39688.23813.47625.50271l-.13229.10583c-.44979.26459-1.0319.0529-1.4552.39688l-.29104.15875c-.23813.0794-.50271.10583-.76729.21166l-.29104.0794-.7673.13229h-.15875a.39688.39688 0 01-.23812-.15875v-.34396c-.0265-.3175-.15875-.55562-.52917-.55562h-.635c-.92604 0-1.8521-.0265-2.7781.0265-.92604.0529-1.1642.23812-1.7462.1852-.58209-.0529-1.0583-.23812-1.614-.21166h-1.3758a1.0054 1.0054 0 01-.92605-.34396 2.0373 2.0373 0 00-1.4023-.74083c-.15875-.0529-.29104-.3175-.42333-.4498z" style="fill:#ffffff;stroke-width:.26458"/>
  <path class="cls-2" d="m101.27 135.74c.84666-.42333 1.6933-.26458 2.54-.0794a.52917.52917 0 01.44979.635 3.9158 3.9158 0 00.13229 1.0848.42333.42333 0 00.52917.39687c.3175-.0529.635-.15875.9525-.23812a1.6933 1.6933 0 01.0529.18521c-.23812.635-.79375.68791-1.3494.74083-.97896-.3175-.74083-1.5875-1.5875-2.0108-.84667-.42334-1.1112-.29104-1.614-.58209z" style="fill:#fefefe;stroke-width:.26458"/>
  <path class="cls-2" d="m95.71 146.42c-.02646-.47625.02646-.89958.50271-1.1906a1.6933 1.6933 0 00.55562-.66145 5.5562 5.5562 0 011.9844-2.2225l.10583.13229c-.60854 1.614-1.7198 2.884-2.9898 4.0217z" style="fill:#fefefe;stroke-width:.26458"/>
  <path class="cls-2" d="m91.873 147.93a.97896.97896 0 01.82021-.47625h.13229c.52917-.0264 1.1112.0794 1.5875-.10583.47625-.18521.87312-.60854 1.2965-.92604l.07937.0794c-.07937 1.2436-.52917 1.7462-1.614 1.614-.66146-.0794-1.3229.0794-1.9844.0265a.52917.52917 0 01-.3175-.21167z" style="fill:#fefefe;stroke-width:.26458"/>
  <path class="cls-2" d="m90.63 153.54c-.13229.0794-.29104.23813-.42333.21167a.79375.79375 0 01-.47625-.34396 5.1858 5.1858 0 01-.34396-1.0848 4.789 4.789 0 00-.07937-.60854c-.29104-.58209-.10583-1.0583.29104-1.5081l.13229.0794a1.1377 1.1377 0 01.29104 1.0583 2.6194 2.6194 0 00.55562 2.1431z" style="fill:#fefefe;stroke-width:.26458"/>
  <path class="cls-2" d="m89.598 150.21c.02646-.89958.60854-1.4817 1.2171-2.0373.60854-.55563.71438-.18521 1.0583-.23813l.05292.0529a8.4667 8.4667 0 01-2.2754 2.2754z" style="fill:#fefefe;stroke-width:.26458"/>
  <path class="cls-5" d="m106.9 161.16a7.4877 7.4877 0 01.60854-.74083c.4498-.39688.60855-.34396 1.1642.23812l.10583.13229a.44979.44979 0 01-.1852.26459c-.23813.10583-.52917.13229-.79375.23812l-.3175.0794c-.21167 0-.4498 0-.58209-.21167z" style="fill:#ffffff;stroke-width:.26458"/>
  <path class="cls-2" d="m98.752 142.35a2.831 2.831 0 00-.18521-.84667 3.0427 3.0427 0 01-.3175-1.6669h.18521c.50271.47625.58208 1.1906.84667 1.7992s.07937.74083-.44979.82021z" style="fill:#fefefe;stroke-width:.26458"/>
  <path class="cls-2" d="m99.255 136.77a1.9315 1.9315 0 012.0108-1.0319l.0794.0794c-.47625.71437-1.1642.97896-1.9579 1.0583z" style="fill:#fefefe;stroke-width:.26458"/>
  <path class="cls-5" d="m109.44 160.61a2.8575 2.8575 0 01.3175-.635.74083.74083 0 01.52917-.23813c.15875.0529.26458.26458.42333.42333s-.58208.50271-.97896.58209a.34396.34396 0 01-.29104-.13229z" style="fill:#ffffff;stroke-width:.26458"/>
  <path class="cls-2" d="m109.65 160.63 1.0583-.47625 1.0054-.0529.23812.0794c-.5027.92604-1.3229.79375-2.1696.60854z" style="fill:#fefefe;stroke-width:.26458"/>
  <path class="cls-2" d="m98.25 138.8c-.07937-.68792.21167-1.27.58208-1.8256.07937-.10583.26458-.13229.42333-.21166l.07937.0794a3.3602 3.3602 0 01-.89958 2.0108z" style="fill:#fefefe;stroke-width:.26458"/>
  <path class="cls-2" d="m109.44 160.61h.21167l.0529.0794c-.21167.58208-.58209.47625-1.0054.21167v-.26459z" style="fill:#fefefe;stroke-width:.26458"/>
  <path class="cls-2" d="m98.25 139.84c-.34396-.5027-.34396-.52916 0-1.0319h.05292a.76729.76729 0 010 .97896z" style="fill:#fefefe;stroke-width:.26458"/>
  <path class="cls-2" d="m106.4 137.53.50271.26458-.0794.0794a.39688.39688 0 01-.47625-.15875z" style="fill:#fefefe;stroke-width:.26458"/>
  <path class="cls-2" d="m105.87 137.53c.18521-.26458.34396-.26458.52916 0l-.0529.0529a.37042.37042 0 01-.44979 0z" style="fill:#fefefe;stroke-width:.26458"/>
  <path class="cls-53" d="m105.9 137.59h.44979l.47625.29104c.26458.44979.66146.87312.52916 1.4817.10584 1.9315-.8202 3.2544-2.4077 4.2333a1.2965 1.2965 0 01-.60855.15875c-1.8785-.26459-2.6194 1.1377-3.466 2.3548-.37041.55562-.71437 1.1377-1.1112 1.6933-.39688.55563-.84667 1.4023-.18521 2.3548.66146.9525.05292 1.9579-.34396 2.884-.23812.44979-.50271.84667-.76729 1.27-.76729 1.1112-1.9579 1.5081-3.175 1.7462-.68792-.15875-1.7462.66146-1.9844-.71437.13229-.82021.92604-1.0054 1.3758-1.5081.635-1.0848.39688-1.7462-.76729-2.0108-1.1642-.26458-1.5875.10583-2.3019.47625s-.92604.58208-1.0319 1.1906c-.3175 0-.58208-.0264-.68792-.39687a3.6512 3.6512 0 01-.18521-1.8521 4.2069 4.2069 0 00-.05292-.97896c.52917-1.0054 1.3494-1.6933 2.2754-2.2754.92604-.58208 1.7992-.37042 2.6988-.0265a.50271.50271 0 00.39688-.18521c.29104-.42333.50271-.84666.76729-1.27 1.0054-1.3758 2.0108-2.7252 3.0427-4.0746.26458-.15875.47625-.3175.3175-.68792-.15875-.37041-.58208-1.2964-.84667-1.9314v-.97896a6.7733 6.7733 0 011.0319-1.9844l2.0108-1.0319.71438-.0794a.92604.92604 0 011.0848.58209c.23812.55562-.21167.84666-.47625 1.1906s-.52917.9525-.0794 1.4817c.4498.52916.89959.13229 1.27-.21167a1.2435 1.2435 0 01.66146-.34396 1.3758 1.3758 0 01.68792-.44979 3.0692 3.0692 0 00.68792-.39687z" style="fill:#030203;stroke-width:.26458"/>
  <path class="cls-56" d="m95.419 155.82.10583-.0794c1.1642-.15875 2.0373-.79375 2.7781-1.6669.89958.13229 1.7462.13229 2.1167-.92604.13229-.1323.29104-.21167.47625-.0529.37042.74083.0265 1.5081.15875 2.2754.13229.76729-.10583.97895-.76729.97895l-1.4552-.92604c-.50271.18521-1.0054.3175-1.5081.55563a1.6404 1.6404 0 01-1.0583.13229.74083.74083 0 01-.84667-.29104z" style="fill:#4b70a7;stroke-width:.26458"/>
  <path class="cls-61" d="m100.29 156.35a1.3758 1.3758 0 00.50271-1.0319c.76729.0265 1.6404-.26458 2.0373.79375l.34396-.10583a7.3819 7.3819 0 011.4552.52916c.13229.52917-.29105.76729-.50271 1.0848h-.0265a.89958.89958 0 01-.82021.0265 2.6723 2.6723 0 01-1.8785-.52916z" style="fill:#5e7fb2;stroke-width:.26458"/>
  <path class="cls-62" d="m91.609 152.3c1.0583-1.0319 1.9579-1.1642 3.1485-.47625a1.27 1.27 0 01.68792 1.0054c.05292.47625-.02646.92604-.50271 1.1642-1.4817.39688-.92604-.87312-1.1906-1.4817a1.7992 1.7992 0 00-1.1642-.26459z" style="fill:#496fa4;stroke-width:.26458"/>
  <path class="cls-63" d="m108.17 158.09h-1.0054a.9525.9525 0 01-.79375-.23812.79375.79375 0 01.92604-.29104c-.50271-.68792-1.8256 0-2.3019-1.0054a.76729.76729 0 01.34396-.635 1.9844 1.9844 0 011.2965-.10583 2.1167 2.1167 0 00.82021.0529.87312.87312 0 01.635.0794.29104.29104 0 01.15875.26458c-.0794.13229-.29104.13229-.29104.3175s.21166-.21166.3175-.3175c.52916-.0794.74083.21167.8202.66146l-.0794.34396a2.0108 2.0108 0 01-.84667.87312z" style="fill:#7693bd;stroke-width:.26458"/>
  <path class="cls-65" d="m116.03 158.36h-3.5454a.23812.23812 0 01.0265-.3175.60854.60854 0 01.3175-.15875c.10583-.0265.26458-.0265.34396-.10584.0794-.0794-.0529-.23812-.15875-.26458-.10584-.0265-.55563-.15875-.79375-.34396-.23813-.18521.3175-.52916.52916-.76729.21167-.23812.3175-.635.74084-.60854.47625.47625.84666 1.1906 1.7198.92604a.44979.44979 0 01.3175.13229c.10583.52917.87312.82021.50271 1.5081z" style="fill:#809bc2;stroke-width:.26458"/>
  <path class="cls-67" d="m105.08 156.51c.15875.3175.44979.34396.74083.34396a2.9633 2.9633 0 011.6404.47625.26458.26458 0 01.10583.21167c0 .0529-.0794.15875-.10583.15875l-1.0848.18521c-.66146.18521-1.2965.21166-1.905-.18521-.0794-.0794-.23813-.0529-.34396-.0794-.13229-.47625.18521-.71437.47625-1.0054a.37042.37042 0 01.47625-.10584z" style="fill:#6a8cb9;stroke-width:.26458"/>
  <path class="cls-70" d="m93.752 152.51c.52917.21166.52917.21166.37042.58208s-.02646.68792.50271.76729l.3175.13229c-.47625.37042-.9525.74084-1.4552 1.0848-.10583.1323-.18521.1323-.26458-.0265-.07938-.15875-.55562-.50271-.29104-.92605.26458-.42333.39688-.68791.58208-1.0583a3.519 3.519 0 00.23812-.55562z" style="fill:#607daf;stroke-width:.26458"/>
  <path class="cls-71" d="m93.223 155.05h.26458c.02646.79375.07937.87312.68792.84666l1.2435-.10583.84667.3175-2.3283.44979a2.3812 2.3812 0 01-.74083-.10583c-.42333-.10584-.47625-.3175-.26458-.71438.21167-.39687.18521-.44979.29104-.68791z" style="fill:#6f95b9;stroke-width:.26458"/>
  <path class="cls-63" d="m112.72 158.12h-.23813c-.55562.3175-1.2171-.0794-1.7727.23813h-.26458c-.37042-.23813-.79375-.3175-1.1642-.50271-.37041-.18521-.635-.3175-.37041-.74083h.0265a.97896.97896 0 01.9525-.29105c.50271.29105.87313.92605 1.5875.50271h.3175c.29105.26459.9525.15875.92605.79375z" style="fill:#7693bd;stroke-width:.26458"/>
  <path class="cls-72" d="m116.03 158.36a.71437.71437 0 00-.39688-.68792c-.44979-.23812-.23812-.52917-.10583-.82021l.10583-.10583a.44979.44979 0 01.37042.0529.37042.37042 0 00.21167.13229.42333.42333 0 01.23812.0794l.0794.10584.0794.0794c.15875.15875.44979.29104.47625.47625.0265.18521-.18521.37042-.26458.58208a.15875.15875 0 00-.0265.10584z" style="fill:#718eba;stroke-width:.26458"/>
  <path class="cls-73" d="m108.91 157.11c.0529.26458.15875.47625.47625.47625s.8202.34395 1.0583.76729h-1.4817a4.6567 4.6567 0 01-.79375-.26459c.0529-.47625.47625-.66145.74084-.97895z" style="fill:#7091bc;stroke-width:.26458"/>
  <path class="cls-76" d="m110.71 158.36a2.8046 2.8046 0 01.66146-.23813h1.1112v.23813z" style="fill:#90a7c9;stroke-width:.26458"/>
  <path class="cls-67" d="m103.28 157.64h.82021c-.26458.29104-.52917.18521-.82021 0z" style="fill:#6a8cb9;stroke-width:.26458"/>
  <path class="cls-114" d="m118.31 160.39h-.23812v-.23813z" style="fill:#8ea6c9;stroke-width:.26458"/>
  <path class="cls-136" d="m104.86 143.38a5.5298 5.5298 0 002.0902-2.6194c.15875-.4498.26458-.92605.39687-1.4023.0794.0265.10584.0794.0794.1323.71437.1852 1.3494.44979 1.0319 1.3758-.23812.10583-.15875.37042-.26458.52917l-.76729.97895a2.3812 2.3812 0 01-.52917.50271c-.55562.84667-1.4552 1.27-2.2225 1.8256-.76729.55562-1.2171.79375-1.6404 1.3758a10.425 10.425 0 00-1.2965 2.0638c-.55563 1.0848-.82021 2.196-.42334 3.3867a1.4023 1.4023 0 01-.1852.97896.37042.37042 0 01-.39688.0529c-1.0054-1.8521-.635-3.6512.26458-5.371.39688-.82021 1.0583-1.5081 1.4552-2.3548.39688-.84667 1.6669-.84667 2.4077-1.4552z" style="fill:#395e99;stroke-width:.26458"/>
  <path class="cls-87" d="m102.85 145.92a5.4504 5.4504 0 01.74083-.82021c.9525-.71437 1.9579-1.4023 2.9633-2.0638a1.9844 1.9844 0 01.34396-.15875c.23813.635.76729.50271 1.27.50271.66146 1.0319.66146 1.0848-.58208 2.0373a2.2225 2.2225 0 00-1.1906.82021.52917.52917 0 01-.34395-.0265c-.47625-.66146-.9525-1.3758-1.8786-.55562a1.8785 1.8785 0 00-.3175.34396l-.21166.23812-.3175.0529a.82021.82021 0 01-.47625-.37042z" style="fill:#89a2c5;stroke-width:.26458"/>
  <path class="cls-137" d="m107.4 145.42a.74083.74083 0 01.39688-.58208c.635-.39688.60854-.42333.39687-1.2171a.74083.74083 0 01-.0265-.23813l1.5081-.74083c.58208.39687 1.1377.82021 1.8521.97896.71438.15875.82021.23812.71438.8202-.10584.58209-1.1377.0794-1.614.50271-.47625.42334-.23813.37042-.37042.55563a.9525.9525 0 01-.84667.23812c-.34395-.52916-.66145-.37041-.97895.0529-.3175.42333-.68792.34396-1.0848.15875a.39688.39688 0 01.0529-.52917z" style="fill:#a9b8d2;stroke-width:.26458"/>
  <path class="cls-138" d="m112.19 144.36a.68792.68792 0 00-.68792-.44979c-.68791.0529-1.1112-.39688-1.5875-.71438s-.15875-.37041-.23812-.55562a.39688.39688 0 01.23812-.0529c.68792.10583 1.3758.55563 2.1167.26458l.3175.10584a1.5081 1.5081 0 00.76729.0794.635.635 0 01.3175 0 1.3494 1.3494 0 01.42333.23813l.23813.21166.13229.10584.21167.26458c.10583.21167.23812.39688.0265.60854a.71437.71437 0 01-.3175.0794c-.55563-.0794-1.0583-.89959-1.6669-.0794a.3175.3175 0 01-.29104-.10583z" style="fill:#8ca3c8;stroke-width:.26458"/>
  <path class="cls-139" d="m113.49 143.17h-.23813a1.0319 1.0319 0 01-1.0319-.0265c-.15875-.3175-.60854-.55563-.26459-1.0319h.47625a1.9844 1.9844 0 01.7673-.10583c.26458.0265.52916 0 .79375.0529.76729.52917 1.0319 1.0583 0 1.614a1.0848 1.0848 0 01-.1323-.23812 1.5081 1.5081 0 01-.10583-.37042.52917.52917 0 00-.10583-.21167.34396.34396 0 00-.21167-.0794l-.0529-.10583v.10583a.3175.3175 0 01.18521.13229.21167.21167 0 01-.0265.21167z" style="fill:#7d8db8;stroke-width:.26458"/>
  <path class="cls-140" d="m111.96 142.09c.10584.34396.18521.68792.26459 1.0319.0794.34396-.34396-.15875-.52917.10583s-.37042.50271-.71437.0265c-.34396-.47625-.21167-.21167-.39688-.18521-.18521.0265-.52917-.21167-.66146-.47625.44979-.15875.92604-.13229 1.2965-.47625z" style="fill:#869ec4;stroke-width:.26458"/>
  <path class="cls-141" d="m117.83 142.35c-.3175.0529-.66145-.0529-.66145.47625 0 .52916-.0794.71437-.10584 1.0583-.635.3175-.68791-.23813-.92604-.58208-.23812-.34396-.37042-1.0583.26458-1.4288l.18521-.0529c.42334.13229.89959.21167 1.2435.52917z" style="fill:#8fa6c9;stroke-width:.26458"/>
  <path class="cls-142" d="m108.46 140.87c-.0264-.52917-.15875-1.0054-.8202-1.0848-.0794 0-.1323-.18521-.21167-.29104a1.2435 1.2435 0 00.3175-.18521.34396.34396 0 01.52917-.0529c.5027.52917.55562.87313.1852 1.614z" style="fill:#677db0;stroke-width:.26458"/>
  <path class="cls-141" d="m114.76 141.82a1.8785 1.8785 0 011.8256 0l-.0794.0794a1.8256 1.8256 0 01-1.4817.15875.47625.47625 0 01-.26458-.23812z" style="fill:#8fa6c9;stroke-width:.26458"/>
  <path class="cls-143" d="m113.99 142.11h-.74084c-.0794-.0265-.10583-.0794-.0794-.10583.0265-.0265.0529-.0794.0794-.0794l1.5081-.10583v.0794c-.10584.52917-.42334.39688-.76729.21167z" style="fill:#8493be;stroke-width:.26458"/>
  <path class="cls-138" d="m111.21 142.14c-.29104.58208-.79375.50271-1.2965.47625a2.4871 2.4871 0 011.2965-.47625z" style="fill:#8ca3c8;stroke-width:.26458"/>
  <path class="cls-140" d="m113.25 141.93v.18521h-.82021z" style="fill:#869ec4;stroke-width:.26458"/>
  <path class="cls-87" d="m106.9 142.88a.68792.68792 0 01.52917-.50271.47625.47625 0 01-.52917.50271z" style="fill:#89a2c5;stroke-width:.26458"/>
  <path class="cls-142" d="m108.2 141.4a.39688.39688 0 01.26458-.52917c-.0794.18521-.1852.34396-.26458.52917z" style="fill:#677db0;stroke-width:.26458"/>
  <path class="cls-2" d="m115.77 159.15a4.3127 4.3127 0 01-1.7462.50271c.0265-.26459.1323-.47625.42334-.50271z" style="fill:#fefefe;stroke-width:.26458"/>
  <path class="cls-2" d="m113.99 159.65a1.3229 1.3229 0 01-.97896.26458c.23812-.39688.635-.23813.97896-.26458z" style="fill:#fefefe;stroke-width:.26458"/>
  <path class="cls-2" d="m112.99 159.92a1.2435 1.2435 0 01-1.0054.23812c.26459-.39687.66146-.23812 1.0054-.23812z" style="fill:#fefefe;stroke-width:.26458"/>
  <path class="cls-156" d="m116.29 143.12c.0794.13229.21167.23812.23813.39687a.50271.50271 0 00.52916.37042c.15875.29104.3175.0265.50271 0 1.3494-.0265 1.5875.13229 1.4288.9525-1.561.84667-3.0956.13229-4.6302-.10583-.13229-.0265-.10583-.21167-.10583-.34396h.26458a.82021.82021 0 01.23813-.18521c.60854-.0265.55562-.37042.37041-.76729a.9525.9525 0 01.0529-.29104.55562.55562 0 01.26458-.15875.42333.42333 0 01.26459.0529c.13229.18521.23812 0 .34396 0a.21167.21167 0 01.23812.0794z" style="fill:#99b1d0;stroke-width:.26458"/>
  <path class="cls-158" d="m119.07 144.65c-.0265-.18521-.0529-.50271-.3175-.39687a.66146.66146 0 01-.84667-.26459c-.0794-.0794-.23813-.0529-.34396-.10583.39688-.44979.39688-.44979.84667-.26458.44979.1852.23812.15875.34396.13229.55562-.13229.58208.23812.60854.635.0265.39687.0265.23812.0265.37041l-.29105.42334a.37042.37042 0 01-.0264-.52917z" style="fill:#89a3c6;stroke-width:.26458"/>
  <path class="cls-220" d="m104.52 138.43-.82021.92604c-.60854.635-.8202.55563-1.3758-.15875-.55562-.71437-.52917-1.1377.0529-1.905l.76729-.97895c.60854.1852.79375.74083.9525 1.27.15875.52916.13229.635.42333.84666z" style="fill:#3f5f9a;stroke-width:.26458"/>
  <path class="cls-2" d="m108.67 160.92c-.29104.29104-.635.26458-1.0054.23812.26459-.39687.66146-.21167 1.0054-.23812z" style="fill:#fefefe;stroke-width:.26458"/>
  <path class="cls-2" d="m96.186 153.99a3.0692 3.0692 0 00.21167-.84666c.02646-.84667-.26458-1.5875-1.0583-2.0373-.79375-.44979-2.3548-.87312-3.5454 0l-1.2965.84667c0-2.1696 1.3494-3.519 3.3602-3.3867.37042.0265.76729-.10583 1.1112-.0265a.76729.76729 0 00.9525-.42334 47.122 47.122 0 013.7835-5.3975 3.4925 3.4925 0 00.3175-.52916c.10583-.3175.1852-.58209-.1323-.92605-.3175-.34395-.635-1.27-.60854-1.9844.02646-1.2171.76729-1.9844 2.2225-2.4077a1.3229 1.3229 0 01-.10583.34396c-.58208 1.2171-.34396 2.4342.68792 3.2808 1.0319.84667 1.3494.50271 1.905-.15875a13.018 13.018 0 011.6669-1.5346.66146.66146 0 01.42333-.18521 1.4023 1.4023 0 01.34396.50271.18521.18521 0 01.0265.13229c-.0529 1.1642-.635 2.0638-1.4817 2.831-.84666.76729-1.5875.71438-2.5135.50271l-.37041-.10583c-1.1906 1.6669-2.3813 3.2808-3.5454 4.9477a4.5244 4.5244 0 00-.635 1.3494c-.21167.68792-.21167 1.2171.29104 1.7462.50271.52917.29104.66146.21167 1.0583a4.2333 4.2333 0 01-1.9579 2.7252c-.26458.0529-.3175-.0529-.26458-.3175z" style="fill:#fefefe;stroke-width:.26458"/>
  <path class="cls-289" d="m104.86 143.38c-.34396.60854-1.0319.71438-1.561 1.0054s-.39688.21166-.44979.37041c-.37042 1.0054-1.0583 1.8256-1.6669 2.6723a2.4077 2.4077 0 00-.42333 1.0054 11.536 11.536 0 00-.23813 2.1167 6.2177 6.2177 0 00.29105 1.9844.37042.37042 0 01-.0265.50271l-.23813.26459c-.66146.68791-1.0848.13229-1.561-.26459l.39688-1.2171c.23812-.76729.23812-1.5081-.44979-2.0638a.68792.68792 0 01-.15875-.92604 2.8046 2.8046 0 01.29104-.55563l3.1485-4.6038c.0794-.10583.29104-.23812.39687-.21166.76729.29104 1.5081.0264 2.249-.0794z" style="fill:#355896;stroke-width:.26458"/>
  <path class="cls-290" d="m98.99 153.04a3.7571 3.7571 0 01.82021.29104.82021.82021 0 00.74083-.0264c-.13229.76729-.71437 1.1377-1.3758 1.4023a.26458.26458 0 01-.37042-.21167.50271.50271 0 00-.50271-.42333z" style="fill:#375c99;stroke-width:.26458"/>
  <path class="cls-291" d="m96.186 153.99.26458.3175a.47625.47625 0 01-.13229.18521l-.44979.0529c.05292-.13229.05292-.29104.10583-.42334.05292-.13229.13229-.0794.21167-.13229z" style="fill:#828f9e;stroke-width:.26458"/>
  <path class="cls-308" d="m100.79 153.04c0-.15875.0265-.3175.0265-.50271h.21166c.71438.3175.42334 1.2436 1.0583 1.614.635.37042.55562.635 1.0583.37042a.29104.29104 0 01.3175.13229c.21167.52917.13229 1.0054-.34396 1.3494a3.8365 3.8365 0 01-.3175.66145c-.0794.1323-.37042.0794-.42333-.0794-.0529-.15875-.18521-.79375-.26459-1.1642h-.1852c-.29105.0265-.26459.60854-.635.44979-.37042-.15875-.34396-.37041-.50271-.55562s-.23813-.82021-.0529-1.2965c.18521-.47625.0529-.66146.0529-.97896z" style="fill:#6886b4;stroke-width:.26458"/>
  <path class="cls-313" d="m117.3 156.08c-.0529.18521-.21167.39688-.18521.55563.13229.58208-.26458.44979-.58208.47625-.26459-.18521-.4498-.52917-.87313-.4498a.29104.29104 0 01-.26458-.15875.74083.74083 0 01-.0265-.52916c.74083-1.0054.82021-1.0319 1.7198-.15875z" style="fill:#8aa6c7;stroke-width:.26458"/>
  <path class="cls-314" d="m103.12 156 .15875-1.4552a.87312.87312 0 01-.21167-.50271v-.37042c.1323-.50271.18521-1.0054.34396-1.4817a.44979.44979 0 01.26459-.26459.52917.52917 0 01.635.37042c.1852.60854.10583 1.2435.10583 1.8521a3.9423 3.9423 0 01-.0529.55563c-.44979 1.1377.87313.635 1.1112 1.1642a.34396.34396 0 01-.0529.3175l-.34396.3175-.47625.10584a1.4552 1.4552 0 00-.47625.0265c-.55563.13229-.84667-.1323-1.0054-.635z" style="fill:#0e0d11;stroke-width:.26458"/>
  <path class="cls-315" d="m108.17 156.13-.74083-.10584a.47625.47625 0 01-.18521-.55562.97896.97896 0 01.13229-.29104.42333.42333 0 00.13229-.42334 1.0848 1.0848 0 00-.13229-.23812 1.2171 1.2171 0 01-.39687-.68792c.0794-.55562.39687-.92604.9525-.89958.55562.0265.52916.52917.60854.92604a2.0638 2.0638 0 00.23812.55563 1.7198 1.7198 0 01.10584.34395 1.2171 1.2171 0 01.0265.52917 1.3229 1.3229 0 01-.10584.34396c-.13229.23812-.23812.55562-.635.50271z" style="fill:#1d1a1d;stroke-width:.26458"/>
  <path class="cls-316" d="m105.42 156.19-.0529-.3175a5.6092 5.6092 0 01-.0529-1.3229 1.6669 1.6669 0 01.39688-1.0848c.9525-.4498 1.0054-.42334 1.1112.76729.0529.44979-.3175.9525.15875 1.3494a.39688.39688 0 01-.13229.44979z" style="fill:#1d1a1f;stroke-width:.26458"/>
  <path class="cls-76" d="m108.17 156.13.47625-.58209c.58209.23813.9525.68792 1.3229 1.1377s-.0265.10584-.0265.15875l-1.0054.23813a.74083.74083 0 00-.76729-.74084z" style="fill:#90a7c9;stroke-width:.26458"/>
  <path class="cls-76" d="m106.85 156.03.0794-.44979a.39688.39688 0 01.23813-.34396.23812.23812 0 01.23812.1323c0 .21166.0265.44979.0265.66145 0 .21167-.29104.3175-.58208 0z" style="fill:#90a7c9;stroke-width:.26458"/>
  <path class="cls-76" d="m108.17 156.35-.15875.15875c-.0529.0265-.13229-.0529-.18521-.0529l.10584-.0794z" style="fill:#90a7c9;stroke-width:.26458"/>
  <path class="cls-317" d="m113.46 155.79-.39688.76729h-.15875a.50271.50271 0 01-.26458-.0794l-.13229-.0529-.42333-.15875-.26459-.13229a4.0217 4.0217 0 01-.58208-.58209c-.37042-.44979-.21167-.9525-.0529-1.4288a1.4817 1.4817 0 01.10584-.3175l.0794-.15875a3.7306 3.7306 0 01.71438-.97895 1.0583 1.0583 0 01.8202-.29105.74083.74083 0 01.29105.21167c.34395.44979.0794.76729-.21167 1.0848-.29104.3175-.68792.50271-.74083 1.0583.34395-.74084.79375-.84667 1.3758-.39688a1.4288 1.4288 0 01.0794 1.1377.58208.58208 0 01-.23812.3175z" style="fill:#1b181c;stroke-width:.26458"/>
  <path class="cls-318" d="m113.46 155.79a.21167.21167 0 01.0529-.21167l.21166-.23812c.29104-.23813.44979-.9525.97896-.26459a1.3758 1.3758 0 01.15875.42334l.0794.26458a.29104.29104 0 00.29104.18521l.26458.0529v.58208c0 .15875-.18521.15875-.26458.26458l-.60854.3175c-.3175-.39687-1.1112-.29104-1.1112-1.0054a1.561 1.561 0 00-.0529-.37042z" style="fill:#9fb5cf;stroke-width:.26458"/>
  <path class="cls-319" d="m112.72 158.12a2.4871 2.4871 0 00-.60855-.26458.50271.50271 0 01-.39687-.50271.23812.23812 0 01.0529-.29104.3175.3175 0 01.44979.0265 3.0427 3.0427 0 011.5875.37041c.0794.0265.13229.21167.13229.3175 0 .10584-.13229.26459-.21167.26459-.0794 0-.66146.0529-1.0054.0794z" style="fill:#6f8cba;stroke-width:.26458"/>
  <path class="cls-76" d="m112.22 157.09h-.50271a.66146.66146 0 00-.10583-.18521c.10583-.68792.58208-.58208 1.0319-.50271l.37042.13229h.0529z" style="fill:#90a7c9;stroke-width:.26458"/>
  <path class="cls-313" d="m115.26 156.85a2.4871 2.4871 0 00.26458-.26458c.0794.0794.10583.13229.0794.18521-.0264.0529-.0529.0794-.0794.0794z" style="fill:#8aa6c7;stroke-width:.26458"/>
  <path class="cls-76" d="m111.48 157.35c-.0529.34396-.21166.58208-.58208.44979s-.9525-.3175-.9525-.9525a1.3494 1.3494 0 011.4552.34396z" style="fill:#90a7c9;stroke-width:.26458"/>
  <path class="cls-76" d="m111.72 157.11v.23812h-.26458c-.0529-.23812.0264-.3175.26458-.26458z" style="fill:#90a7c9;stroke-width:.26458"/>
  <path class="cls-65" d="m115.53 156.85v-.26458c.60854-.21167.60854-.21167 1.0054.52917h-.50271z" style="fill:#809bc2;stroke-width:.26458"/>
  <path class="cls-65" d="m116.03 157.11-.0529.10583z" style="fill:#809bc2;stroke-width:.26458"/>
  <path class="cls-384" d="m102.85 145.92.50271.29104a.71437.71437 0 01.1852.37042c-.15875.97896.0794 1.9844-.39687 2.9104-.87313-.10584-.55563-.79375-.635-1.27-.10583-.0529.29104-.39688-.13229-.26459-.42334.13229-.55563.23813-.82021 0 .21167-.82021.74083-1.4288 1.2965-2.0373z" style="fill:#93abcb;stroke-width:.26458"/>
  <path class="cls-385" d="m103.09 154.57a2.9898 2.9898 0 01-.0794.47625c-.0265.0794-.26459.15875-.29104.10583-.0265-.0529-.55563-.58208-.84667-.87313a2.6988 2.6988 0 01-.635-1.3229 1.7198 1.7198 0 00-.21167-.44979v-.97896a.23812.23812 0 01.3175-.0529c.21167.82021 1.2435 1.1906 1.1642 2.1696a1.8521 1.8521 0 00.50271.7673z" style="fill:#859dc2;stroke-width:.26458"/>
  <path class="cls-386" d="m101.29 151.53h-.26459a3.3073 3.3073 0 01.0794-2.6988c.13229-.29104.29104-.58209.44979-.87313l.92604-.3175c.3175-.0794.3175.13229.3175.34396l-.52917.50271c-.21166.26458-.1852.58208-.29104.87312a.97896.97896 0 01-.13229.29105c-.42333.44979-.42333 1.0054-.39687 1.5875a.635.635 0 01-.15875.29104z" style="fill:#9db4d2;stroke-width:.26458"/>
  <path class="cls-387" d="m103.04 149.47c-.0265-1.0319-.0265-2.0638.37041-3.0692a.42333.42333 0 01.10584-.18521l.13229-.3175.13229-.18521a4.3921 4.3921 0 01.68792-.71437c.52916-.34396 1.0583-.21167 1.3758.37042a7.0908 7.0908 0 01.3175.79375 1.7992 1.7992 0 01.26458.55562c.13229.74083-.21166 1.4288-.23812 2.1696-.0265.74084-.66146 1.7727-1.7198 2.0373a1.0319 1.0319 0 01-.635-.15875.82021.82021 0 01-.26459-.1323l-.23812-.21166-.10584-.0794-.1852-.21166a1.1112 1.1112 0 01-.10584-.26459.44979.44979 0 01.10584-.39687z" style="fill:#050507;stroke-width:.26458"/>
  <path class="cls-388" d="m108.41 145.68a7.4348 7.4348 0 01.26458-.82021.55562.55562 0 01.29104-.18521.42333.42333 0 01.29104.18521 7.4612 7.4612 0 01.18521.82021.92604.92604 0 01.21167.8202c-.21167.82021-.10583 1.6669-.37042 2.4871a3.2808 3.2808 0 01-.76729 1.4288c-.89958.9525-1.7992.76729-2.4077-.47625-.0529-1.0583.18521-2.0902.15875-3.1221 0-.23812-.0529-.44979.10584-.66145a4.3921 4.3921 0 01.15875-.55563c.1852-.52917.26458-.55562.87312-.18521a3.2015 3.2015 0 00.0265.50271c.60854 1.1112-.18521 2.196.10583 3.2544a7.8581 7.8581 0 00.50271-2.196c.0794-.44979.0265-.92604.37042-1.2964z" style="fill:#070709;stroke-width:.26458"/>
  <path class="cls-389" d="m106.37 146.16v.5027c-.0794.1323-.15875.1323-.21167 0v-.5027z" style="fill:#797a87;stroke-width:.26458"/>
  <path class="cls-289" d="m103.51 146.21-.10584.18521a.26458.26458 0 01-.0529-.18521.15875.15875 0 01.15875 0z" style="fill:#355896;stroke-width:.26458"/>
  <path class="cls-289" d="m103.78 145.71-.13229.18521z" style="fill:#355896;stroke-width:.26458"/>
  <path class="cls-390" d="m110.26 145.37-.0529-.66146c1.0319-.34396 2.0902-.0529 3.1221-.3175a.635.635 0 01.55562.58208.97896.97896 0 01-.55562.79375c-1.3758 0-.76729 1.0848-.9525 1.7462s0 1.3494-.10584 2.0373c-.10583.68792-.1852.84667-.71437.84667s-.74083-.34396-.87313-.76729c-.13229-.42334.0265-1.3494-.1852-2.0108a21.616 21.616 0 01-.23813-2.249z" style="fill:#060608;stroke-width:.26458"/>
  <path class="cls-391" d="m108.41 145.68c.13229 1.0054-.13229 2.0108-.3175 2.9898a1.1906 1.1906 0 01-.58209.92604c-.37041-.76729-.39687-1.4552-.0794-3.6777z" style="fill:#bbc5d4;stroke-width:.26458"/>
  <path class="cls-392" d="m110.26 145.37c.3175.0264.55563.13229.52917.52916-.0265.39688-.0529 1.0054-.0529 1.4817a1.3758 1.3758 0 01.0265.97896c-.10583.3175-.39688.39687-.68792.42333a.52917.52917 0 01-.635-.47625 4.101 4.101 0 01-.0529-1.9579l.0529-.66145z" style="fill:#d1dce9;stroke-width:.26458"/>
  <path class="cls-393" d="m113.49 144.6-3.2808.10584a.635.635 0 01.635-.3175h1.6933c.39687-.23813.76729-.39688.9525.21166z" style="fill:#9ba5bf;stroke-width:.26458"/>
  <path class="cls-394" d="m113.49 144.6c-.26459-.34395-.635-.1852-.9525-.23812-.3175-.0529 0-.47625.10583-.58208a.68792.68792 0 01.55563 0 8.4137 8.4137 0 011.0583.60854.71437.71437 0 00.66146.26458 6.9585 6.9585 0 011.9579.21167c.74084.18521 1.4817.0265 2.196-.21167a3.5454 3.5454 0 01.0264.52917l-.23812.79375c-.60854-.34396-1.2171-1.0583-1.7198.0794a1.9844 1.9844 0 01-.26459.87313.34396.34396 0 01-.3175.0794c-.42333-.34396-.21166-.89958-.47625-1.2965-.52916.26459.0265 1.2436-.84666 1.2436a1.3229 1.3229 0 01-.26459-.82021c.10584-1.0054-.92604-.52917-1.2435-.97896z" style="fill:#adc0d7;stroke-width:.26458"/>
  <path class="cls-395" d="m116.29 143.12h-.26458c-.0794.0794-.15875.0529-.23813-.0265-.18521-.18521-.34396-.13229-.52916.0265-.23813.21166.0529.635-.29105.84666a.60854.60854 0 01-.71437-.10583l-.26458-.23812c.52916-.50271.44979-1.0319 0-1.5346.29104 0 .58208.0529.76729-.21166h1.7462a1.0848 1.0848 0 00-.21167 1.2435z" style="fill:#7d98c0;stroke-width:.26458"/>
  <path class="cls-140" d="m112.22 143.12h1.0319c-.50271.34396-.52916.34396-1.0319 0z" style="fill:#869ec4;stroke-width:.26458"/>
  <path class="cls-140" d="m114.26 143.88h.76729c.13229.29104-.10583.37042-.26458.52917h-.23813a3.0162 3.0162 0 01-.26458-.52917z" style="fill:#869ec4;stroke-width:.26458"/>
  <path class="cls-395" d="m113.99 143.33v.3175l-.29105-.26458.1323-.0794z" style="fill:#7d98c0;stroke-width:.26458"/>
  <path class="cls-140" d="m113.7 143.38-.21166-.21167v-.0529a.21167.21167 0 01.26458-.0529.29104.29104 0 010 .29104z" style="fill:#869ec4;stroke-width:.26458"/>
  <path class="cls-396" d="m113.73 143.14h-.21166a.79375.79375 0 01-.0529-.26459c-.0794-.0794-.0529-.15875.0529-.21166.10583-.0529.42333-.0529.47625.23812.0529.29104-.10584.21167-.26459.23813z" style="fill:#393140;stroke-width:.26458"/>
  <path class="cls-397" d="m113.73 143.14.26459-.26459v.44979h-.21167a.50271.50271 0 00-.0529-.1852z" style="fill:#09060d;stroke-width:.26458"/>
  <path class="cls-140" d="m113.52 142.64c-.0265.0794-.0265.15875-.0529.21166l-.21167-.23812z" style="fill:#869ec4;stroke-width:.26458"/>
  <polygon class="cls-140" transform="matrix(.26458 0 0 .26458 82.507 135.47)" points="116.2 27 115.8 26.8 115.9 26.6" style="fill:#869ec4"/>
  <path class="cls-401" d="m116.56 146.95h.23813c.635 1.4023.82021 1.4288 1.8256.1852a.71437.71437 0 01.26459-.21166c.29104.635.68791 1.1112 1.4817 1.0848a.37042.37042 0 01.23813.23812 3.9423 3.9423 0 01-.13229.9525c-.0265.0794-.26459.18521-.39688.18521a.84667.84667 0 00-.74083.37042c-.29104.50271-.71438.3175-1.1112.26458-2.1167-.15875-2.6194-1.1112-1.6669-3.0692z" style="fill:#c6d2e3;stroke-width:.26458"/>
  <path class="cls-403" d="m116.82 145.92c.10583-.71437.10583-.71437.55562-.74083a3.7306 3.7306 0 01.76729 0c.52917.0265.52917.0265.71438.79375 0 .29104 0 .60854.0265.92604l-.10584.0529c-.68791-.23813-1.0583-1.1642-1.9579-1.0319z" style="fill:#c6d6e6;stroke-width:.26458"/>
  <path class="cls-404" d="m120.61 146.19c-.0794-.0794-.15875-.1852-.26458-.21166-.10584-.0265-.21167.0265-.21167.0794s-.0265.55563-.0265.82021c-.52917-.44979-.3175-.9525-.0529-1.4288a.26458.26458 0 01.42334.0265 3.0956 3.0956 0 01.13229.71437z" style="fill:#adbfcf;stroke-width:.26458"/>
  <path class="cls-141" d="m114.76 144.41c.0794-.18521.18521-.34396.26458-.52917.0794-.18521-.0529-.58208.23813-.74083a5.0006 5.0006 0 00.23812.55562c.10583.18521.52917.23813.34396.55563s-.37042.10583-.58208.13229z" style="fill:#8fa6c9;stroke-width:.26458"/>
  <path class="cls-141" d="m115.26 143.14a1.4817 1.4817 0 01.13229-.21167c.23812-.23813.26458-.21167.39687.18521z" style="fill:#8fa6c9;stroke-width:.26458"/>
  <path class="cls-141" d="m115.79 143.12h.23813c-.0794.18521-.15875.18521-.23813 0z" style="fill:#8fa6c9;stroke-width:.26458"/>
  <path class="cls-385" d="m103.3 154.07a2.884 2.884 0 01-.0265.47625h-.21167c-.15875-.26459-.15875-.47625.23813-.47625z" style="fill:#859dc2;stroke-width:.26458"/>
  <path class="cls-503" d="m117.3 154.81c.0794-.52917.13229-1.0583.23812-1.5875.0265-.10583.13229-.29104.18521-.29104a.74083.74083 0 01.39688.21167c.23812.3175.42333.66145.635 1.0054.37041-.15875.21166-.44979.26458-.66146.0529-.21166.0265-.42333.0794-.60854s.23813-.3175.4498-.29104c.0264.97896.0264 1.9844.0264 2.9633a.39688.39688 0 01-.34395.23813c-.29105-.3175-.55563-.66146-.87313-.97896s-.15875-.10583-.23812-.15875l-.10584.3175c-.13229.44979-.15875 1.1377-.84666.42333a.66146.66146 0 01.13229-.58208z" style="fill:#1d1d20;stroke-width:.26458"/>
  <path class="cls-60" d="m120.32 153.07v2.5135h-.23813c0-.60854 0-1.2435.0265-1.8521a3.2015 3.2015 0 01.21167-.66146z" style="fill:#849dc4;stroke-width:.26458"/>
  <path class="cls-60" d="m117.27 155.31c.44979.34396.44979.34396.66146-.10583l.0794-.23813c.13229.50271 0 .82021-.52916.9525-.0529 0-.10584.10583-.18521.15875h-.3175a.84667.84667 0 01-.0265-.71437.29104.29104 0 01.3175-.0529z" style="fill:#849dc4;stroke-width:.26458"/>
  <path class="cls-60" d="m119.23 155.79.34395-.23813z" style="fill:#849dc4;stroke-width:.26458"/>
  <path class="cls-505" d="m117.11 155.31c-.0529.23812-.0794.47625-.13229.74083l-.635-.68791-.84667.635a.29104.29104 0 00-.21167.0794c-.3175.15875-.39687-.0265-.44979-.29104a.23812.23812 0 00-.10583-.21167.87312.87312 0 01-.18521-.34396c-.0529-.21166-.13229-.42333-.34396-.10583-.21166.3175-.13229.47625-.47625.44979-.34396-.0265-.0529-.84666-.10583-1.2435-.0529-.39687-.10583-1.1112.60854-1.2965h.0265l.29104-.21166a.29104.29104 0 01.21167-.1323h.26458a.34396.34396 0 01.23813.1323h-.0265c.23812.23812.15875.47625.0794.74083a.10583.10583 0 00-.0794.15875.47625.47625 0 01-.23813.34396.39688.39688 0 000 .52916c.15875.10584.21167.42334.50271.23813a2.0638 2.0638 0 00.0529-.37042 4.4715 4.4715 0 01.21166-.635.15875.15875 0 00.0265-.21166c.13229-.15875.0794-.39688.26459-.55563a.29104.29104 0 01.47625 0c.15875.60854.34395 1.1906.52916 1.7727a.39688.39688 0 01.0529.47625z" style="fill:#100f12;stroke-width:.26458"/>
  <path class="cls-506" d="m104.15 150.74c1.0319-.13229 1.5081-.82021 1.7462-1.7462.68791.0265.1852.58208.34395.84666.15875.71438-.0529 1.3229-.5027 1.9315.55562.39688 1.1112.18521 1.6404.18521.52917 0 .42334-.10583.34396-.26458-.635-1.3494.74083-1.0583 1.1906-1.3229.44979-.26458 1.3229.21167 1.1906.9525s-.10583 1.6669 1.1112 1.7462c.26458.0265.37042.42333.26458.74083-.15875.10584-.13229.29105-.1852.4498-.74084 1.2964-1.0319 1.4023-2.1431.76729a1.0848 1.0848 0 01-.29104-.18521 1.614 1.614 0 00-.18521-.26458 1.8256 1.8256 0 00-.44979-.4498c-.21167-.13229-.21167-.29104-.0529-.47625a.3175.3175 0 00-.0529-.44979.37042.37042 0 00-.55563.0794 4.8683 4.8683 0 00-.39687.74083 1.3229 1.3229 0 00.44979.55563h.0265c.29104.37041 0 .52916-.23813.74083l-.26458-.0529c-.82021.0529-.0794-.82021-.55563-.9525-.47625-.13229-.21166-.29104-.0794-.50271a1.7462 1.7462 0 00.13229-.39687h-.42333l-.34396.10583c-.52917.10584-1.0848.42334-1.614-.0529-.10583-.39688.0794-.82021-.13229-1.2171l-.47625-.21166c-.37042.15875-.47625-.15875-.66146-.37042s-.79375-.39688-1.0054-.82021a.87312.87312 0 010-.37042c.21167-.55562.50271-.89958 1.1377-.52916a.79375.79375 0 00.18521.29104h.0265l.23812.23812h.0265c.15875.18521.37042.1323.55563.26459z" style="fill:#cfdae9;stroke-width:.26458"/>
  <path class="cls-507" d="m103.09 151.5.55563.55562-.10584.23813c-.13229.47625 0 1.1112-.92604.44979s-1.1906-.68792-1.3229-1.4817c-.1323-.79375-.1323-1.1642.1852-1.6933.0529-.0529.21167-.0529.34396-.10583.44979.37041.44979.79375.23813 1.2965 0 .71437.87312.26458 1.0319.74083z" style="fill:#b6c5db;stroke-width:.26458"/>
  <path class="cls-508" d="m101.29 151.27a1.1642 1.1642 0 01.26458.39688.9525.9525 0 00.66146.68792 3.4131 3.4131 0 01.50271.10583c.5027.23812.58208.23812.8202-.15875-.0794.50271-.13229 1.0054-.21166 1.5081a.76729.76729 0 01-1.0054 0c-.0794-.13229-.23812-.29104-.21167-.39687.0265-.10583.0265-.55563-.39687-.71438-.42333-.15875-.39688-.74083-.42333-1.1642z" style="fill:#a4b7d3;stroke-width:.26458"/>
  <path class="cls-509" d="m104.36 153.54c.50271-.0529 1.0054-.29104 1.5081 0-.0794.34396-.18521.68792-.26459 1.0319-.0794.34395.0265.79375-.47625.89958-.5027.10583-.84666-.21167-1.0583-.66146v-.50271c.26458-.21166.0529-.55562.29104-.76729z" style="fill:#bbc7dd;stroke-width:.26458"/>
  <path class="cls-510" d="m104.07 154.81.23813.0529c.3175.0794.44979.60854.8202.37041.37042-.23812.3175-.44979.47625-.66145-.0264.42333.1323.89958-.23812 1.2964a2.4606 2.4606 0 00-.60854-.10583c-.89959 0-.89959.0265-.68792-.9525z" style="fill:#99a6bf;stroke-width:.26458"/>
  <path class="cls-511" d="m102.32 153.81h1.0054v.26459l-.23813.47625c-.50271 0-.74083-.26459-.76729-.74084z" style="fill:#94a7c6;stroke-width:.26458"/>
  <path class="cls-510" d="m104.36 153.54c-.0265.29104.0265.58208-.26458.76729.0265-.68791.0265-1.3494.0265-2.0373.39687.37042.15875.84667.23812 1.27z" style="fill:#99a6bf;stroke-width:.26458"/>
  <path class="cls-512" d="m111.72 157.09-.26458.26458-1.5081-.50271a3.0692 3.0692 0 01-1.2965-1.2965.39688.39688 0 01.0529-.23812.44979.44979 0 01.3175-.13229c.58208.34396 1.3229.39687 1.8256.89958.50271.50271.55563.0794.79375-.0529a.26458.26458 0 01.3175.0529h.0265c.21167.23813.55563.0529.76729.23813h.0265a.21167.21167 0 01-.0529.26458h-.47625a.47625.47625 0 00-.52917.50271z" style="fill:#9cafcf;stroke-width:.26458"/>
  <path class="cls-513" d="m107.4 155.34.23813-.74084c.3175.0529.44979.29105.3175.55563-.1323.26458-.34396.10583-.55563.18521z" style="fill:#aebdd1;stroke-width:.26458"/>
  <path class="cls-513" d="m107.62 154.57c-.37042-.0265-.50271-.21167-.44979-.55563z" style="fill:#aebdd1;stroke-width:.26458"/>
  <path class="cls-76" d="m108.91 155.31h-.21167v-.50271l.0794-.0794.10584.0794h.0265a.34396.34396 0 010 .50271z" style="fill:#90a7c9;stroke-width:.26458"/>
  <path class="cls-514" d="m108.91 154.81h-.18521c-.0265-.0794-.0265-.15875-.0529-.23812z" style="fill:#c2cee2;stroke-width:.26458"/>
  <path class="cls-513" d="m106.58 154.36c.23813.0529.29104.21167.3175.42333a3.2015 3.2015 0 00.23813.52917l-.21167.26458a1.614 1.614 0 01-.34396-.0794c-.3175-.13229-.39687-.26459-.21166-.52917.1852-.26458.3175-.34396.21166-.60854z" style="fill:#aebdd1;stroke-width:.26458"/>
  <path class="cls-515" d="m111.48 153.81a1.9844 1.9844 0 00-.1852-.3175c-.10584-.1852-.18521-.34395-.47625-.21166-.29105.13229-.635.21166-.84667-.26459a2.1431 2.1431 0 00-.26458-.55562c-.26459-.3175-.23813-.58208.0264-.89958a.58208.58208 0 00.0265-.79375.74083.74083 0 00-.92604-.18521c-.39687.15875-.79375.37041-1.2171.58208l.58208.18521a3.8629 3.8629 0 01-.18521.79375c-.0529.10583-.26458.26458-.37041.23812a3.4925 3.4925 0 00-1.4817-.0265.68792.68792 0 01-.82021-.42334 1.4288 1.4288 0 010-.34396c.55563-.0794.37042-.68791.68792-.9525.3175-.26458.10583-.47625.15875-.74083a.15875.15875 0 01.18521.10583.92604.92604 0 00.74083.7673 1.1112 1.1112 0 001.1112-.47625 4.5508 4.5508 0 00.66146-1.2171 13.811 13.811 0 00.29104-1.5081c.0794-.39688.15875-.82021.21167-1.2171.0794.74084-.0529 1.5081.42333 2.1696.82021-.15875.82021-.15875.92604-1.1377a1.1906 1.1906 0 01.26458.82021c0 .39687 0 .76729.0265 1.1377a2.9369 2.9369 0 00.0529.5027c.0529.3175.26458.50271.50271.47625a.47625.47625 0 00.39687-.44979c.0265-.29104.0529-.58208.0529-.87312s.10583-1.27.13229-1.8785c.50271.39687.34396.9525.39688 1.4817.0529.52917-.1323.97896.21166 1.4023a2.6988 2.6988 0 00.74084.34396c.34395.23813.89958.66146.15875.79375-.74084.13229-1.0848 1.0054-1.4288 1.6669-.34396.66146-.50271.68791-.7673 1.0054z" style="fill:#c4d2e4;stroke-width:.26458"/>
  <path class="cls-516" d="m112.25 152.8a1.0319 1.0319 0 01-.10584-.47625c.0265-.15875.21167-.26459.23813-.42334.0265-.15875-.13229-.66145.23812-.89958.37042-.23812.66146.0794.97896 0l.29104-.15875-.42333-.3175.10583-.13229a.79375.79375 0 01.68792-.0265 2.5665 2.5665 0 01.92604.47625l.0794.15875c.10583.42333.1852.84667.26458 1.27l-1.1112-.74083c-.37042.29104-.84667.29104-1.2435.39687-.39688.10584-.29104.34396-.18521.60854z" style="fill:#bccade;stroke-width:.26458"/>
  <path class="cls-514" d="m108.91 155.31a3.2015 3.2015 0 00.0265-.50271c.26459-.10583.58209-.39687.7673.15875.1852.55563.29104.3175.55562.15875a2.3812 2.3812 0 00.9525-1.0848.15875.15875 0 01.21167 0c-.13229.52917-.23813 1.0583.0265 1.561a.74083.74083 0 01.23812.50271c-.0794.13229-.13229.29104-.23812.44979a.29104.29104 0 01-.50271.10583 1.4023 1.4023 0 01-.34396-.34395 1.1642 1.1642 0 00-.82021-.52917 4.736 4.736 0 01-.87312-.47625z" style="fill:#c2cee2;stroke-width:.26458"/>
  <path class="cls-517" d="m114.23 153.04c-.52917.26459-.39687.82021-.50271 1.2435-.10583.42334-.15875.15875-.26458.0529h-.635c-.26458.0265-.37042.21167-.15875.39688.21167.1852.26458.3175.0794.47625-.1852.15875-.29104.23812-.42333.21166-.13229-.0265-.26458-.21166-.3175-.34396a1.6933 1.6933 0 01.79375-1.6933c.50271-.29104.50271-.29104.21167-.84667z" style="fill:#c0cddd;stroke-width:.26458"/>
  <path class="cls-518" d="m113.46 154.34.26458-.0529v1.2965h-.21166c-.0265-.42333-.0529-.82021-.0529-1.2435z" style="fill:#93909c;stroke-width:.26458"/>
  <path class="cls-76" d="m111.69 156.11-.23812-.50271.5027.47625z" style="fill:#90a7c9;stroke-width:.26458"/>
  <path class="cls-76" d="m112.75 156.32c-.26458 0-.58208.0794-.76729-.23813.26459.0794.60854-.13229.76729.23813z" style="fill:#90a7c9;stroke-width:.26458"/>
  <path class="cls-65" d="m112.72 156.58c.0264-.0794.0264-.18521.0529-.26458l.23813.23812z" style="fill:#809bc2;stroke-width:.26458"/>
  <path class="cls-515" d="m111.43 154.04h-.21167l.26458-.23813c-.0264.0794-.0264.15875-.0529.23813z" style="fill:#c4d2e4;stroke-width:.26458"/>
  <path class="cls-313" d="m114.84 155.79.44979.29104c-.10583.0794-.1852.18521-.26458.21167a1.1642 1.1642 0 01-.39687-.13229z" style="fill:#8aa6c7;stroke-width:.26458"/>
  <path class="cls-313" d="m114.55 155.24.18521.34396z" style="fill:#8aa6c7;stroke-width:.26458"/>
  <path class="cls-560" d="m102.06 150.76-.23813-1.2965c.23813-.37042.0794-.84667.23813-1.2435l.74083-.23813a4.5244 4.5244 0 00.0265.84667 2.9898 2.9898 0 00.21167.635l.0794.50271c-.635-.1323-.76729.44979-1.0583.79375z" style="fill:#bacadc;stroke-width:.26458"/>
  <path class="cls-507" d="m102.06 148.22a1.0848 1.0848 0 01-.23813 1.2435c.0529-.42334-.18521-.89959.23813-1.2435z" style="fill:#b6c5db;stroke-width:.26458"/>
  <path class="cls-561" d="m105.16 147.77a2.3283 2.3283 0 01-.47625 1.614.34396.34396 0 01-.3175.13229c-.0794 0-.21166-.13229-.23812-.21166v-1.3494c.18521-.26458.0529-.58208.18521-.84666.13229-.26459 0-.10584.0529-.15875.0529-.0529.10584-.37042.21167-.55563.15875-.10583.23812-.39687.50271-.23812l.0794.66145a1.4023 1.4023 0 010 .9525z" style="fill:#bbc6d4;stroke-width:.26458"/>
  <path class="cls-562" d="m106.37 150-.18521-.10583c-.0794-.3175.0529-.68792-.29104-.89958a2.3019 2.3019 0 01.0265-.74084c.21167-.5027.18521-1.0583.23813-1.5875a.29104.29104 0 00.21167 0z" style="fill:#41464b;stroke-width:.26458"/>
  <path class="cls-563" d="m105.08 146.19-.50271.23813c.0794-.13229.10583-.3175.21167-.39688.10583-.0794.29104-.0529.29104.15875z" style="fill:#a0b2c4;stroke-width:.26458"/>
  <path class="cls-563" d="m105.16 147.77v-.92604a.89958.89958 0 010 .92604z" style="fill:#a0b2c4;stroke-width:.26458"/>
  <path class="cls-563" d="m104.31 147.11c.0794.3175.10583.60854-.18521.84666a1.0848 1.0848 0 01.18521-.84666z" style="fill:#a0b2c4;stroke-width:.26458"/>
  <path class="cls-560" d="m104.15 150.74a.50271.50271 0 01-.55563-.21167z" style="fill:#bacadc;stroke-width:.26458"/>
  <path class="cls-563" d="m104.57 146.4a.50271.50271 0 01-.21167.55563.50271.50271 0 01.21167-.55563z" style="fill:#a0b2c4;stroke-width:.26458"/>
  <path class="cls-560" d="m103.57 150.5-.23812-.23812z" style="fill:#bacadc;stroke-width:.26458"/>
  <path class="cls-560" d="m103.3 150.23-.18521-.29104z" style="fill:#bacadc;stroke-width:.26458"/>
  <path class="cls-564" d="m112.72 150.23c-.23813.0794-.50271.18521-.50271-.23813 0-.42333.0265-1.0054.0265-1.5081l-.0794-1.3758a2.0638 2.0638 0 01-.0529-.37042c0-.37042-.13229-.82021.0265-1.0848.15875-.26459.68792.18521 1.0319-.0265a1.561 1.561 0 012.0638.3175l.0794 1.0583a.87312.87312 0 01.13229.55563c-.21166.47625.0529 1.27-.87312 1.27-.50271-.3175-.29104-1.0054-.71438-1.3758a1.7198 1.7198 0 00-.15875.60855c-.23812.76729.0529 1.7727-.97895 2.1696z" style="fill:#d1dae6;stroke-width:.26458"/>
  <path class="cls-565" d="m115.24 145.95c-.66146-.23813-1.3229-.50271-2.0638-.3175l.55562-.47625c.21167 0 .44979-.10583.58209-.0265a.52917.52917 0 00.635.0265c.21166-.15875.29104 0 .3175.18521.0264.18521-.0265.39687-.0265.60854z" style="fill:#c4d1e0;stroke-width:.26458"/>
  <path class="cls-566" d="m115.29 147.46c0-.15875.0265-.29104.0265-.44979s.13229-.82021.18521-1.2435a1.3758 1.3758 0 01.0794-.47625.52917.52917 0 01.34395-.29104.26458.26458 0 01.3175.13229 1.6933 1.6933 0 01.26459.68792 7.9904 7.9904 0 01.0529 1.1377 12.382 12.382 0 00-.0264 2.8046l1.0848-.23813a.92604.92604 0 01.92604.23813.71437.71437 0 01-.50271.74083l-1.27.47625-.23812.0529c-.34396.10583-.66146.23812-.9525-.10583a1.3494 1.3494 0 01-.55563-.89959c-.18521-.87312.15875-1.7198.26458-2.5665z" style="fill:#0a0a0b;stroke-width:.26458"/>
  <path class="cls-567" d="m116.82 145.92c.21166-.0794.26458-.39687.68791-.23812.42334.15875.92605.79375 1.27 1.27a3.5719 3.5719 0 01-.10583.74083c-.0265.13229-.21167.34396-.29104.3175-.0794-.0265-.50271.21167-.71438.42333a.52917.52917 0 01-.84666-.37041c-.0265-.37042-.0265-.74084-.0265-1.1377 0-.39688 0-.66146.0265-1.0054z" style="fill:#d5dfec;stroke-width:.26458"/>
  <path class="cls-516" d="m115.58 150.92.9525.10583c-.52917.3175-.60855.3175-.9525-.10583z" style="fill:#bccade;stroke-width:.26458"/>
  <path class="cls-516" d="m115.5 154.81-.0794.3175c-.0794-.0265-.21167-.0529-.23813-.10583a1.3494 1.3494 0 01-.18521-.44979z" style="fill:#bccade;stroke-width:.26458"/>
  <path class="cls-516" d="m115.32 150.16c.0794.26459.18521.52917.26459.79375l-.3175.0529c-.18521-.29104-.23813-.55562.0529-.84667z" style="fill:#bccade;stroke-width:.26458"/>
  <path class="cls-516" d="m115.32 153.54-.0794-.74083c.37041.3175.37041.3175.0794.74083z" style="fill:#bccade;stroke-width:.26458"/>
  <path class="cls-585" d="m117.11 155.31-.0529-.50271h.23813a3.2015 3.2015 0 01-.0265.50271z" style="fill:#9ba5bd;stroke-width:.26458"/>
  <path class="cls-516" d="m115 154.57c-.26458-.18521-.29104-.37042 0-.52917z" style="fill:#bccade;stroke-width:.26458"/>
  <path class="cls-516" d="m115.77 153.81-.21166.635a.58208.58208 0 01.21166-.635z" style="fill:#bccade;stroke-width:.26458"/>
  <path class="cls-516" d="m116.06 153.04-.26459.55563c0-.23813.0265-.44979.26459-.55563z" style="fill:#bccade;stroke-width:.26458"/>
  <path class="cls-516" d="m116.53 153.04h-.47625q.23812-.39687.47625 0z" style="fill:#bccade;stroke-width:.26458"/>
  <path class="cls-516" d="m115.87 152.38c-.0265.0265-.0529.0794-.0794.0794s-.15875-.0265-.21166-.0794c-.0529-.0529-.0794-.13229.0529-.10583z" style="fill:#bccade;stroke-width:.26458"/>
  <path class="cls-402" d="m120.87 151.77v.26459l-.34396-.1323z" style="fill:#bbcadf;stroke-width:.26458"/>
  <path class="cls-516" d="m115 154.04.23813-.34396z" style="fill:#bccade;stroke-width:.26458"/>
  <path class="cls-517" d="m114.55 152.8-.29104.21166z" style="fill:#c0cddd;stroke-width:.26458"/>
  <path class="cls-517" d="m115.26 152.8a.23812.23812 0 01-.23813-.0529q-.13229-.0794-.0794-.15875l.0794-.0529z" style="fill:#c0cddd;stroke-width:.26458"/>
  <path class="cls-516" d="m115.02 152.54v.21167h-.26458a.18521.18521 0 01-.0529-.15875l.0529-.0529z" style="fill:#bccade;stroke-width:.26458"/>
  <path class="cls-517" d="m114.76 152.54v.21167a.21167.21167 0 01-.21167.0529z" style="fill:#c0cddd;stroke-width:.26458"/>
  <path class="cls-587" d="m116.29 154.76-.10583-.0529.10583-.10584.0794.0794z" style="fill:#495e6a;stroke-width:.26458"/>
  <path class="cls-560" d="m103.09 151.5a6.6146 6.6146 0 01-1.0319-.29104c-.26459-.13229-.18521-.3175 0-.44979a4.4979 4.4979 0 00.635.23812.52917.52917 0 01.39687.50271z" style="fill:#bacadc;stroke-width:.26458"/>
  <path class="cls-516" d="m112.72 150.23c.37041-.60854.635-1.2435.55562-1.9579 0-.10583.13229-.21166.18521-.3175.60854.82021.55562 1.6669.0529 2.5135l-.0529.0529c-.26458-.0529-.55563 0-.74083-.29104z" style="fill:#bccade;stroke-width:.26458"/>
  <path class="cls-588" d="m113.52 150.47-.0529-2.5135a6.0854 6.0854 0 01.0529-.97896c.0264-.13229.1852-.29104.29104-.29104.10583 0 .29104.10584.39687.21167a.97896.97896 0 01.10584.47625c.0794.44979.13229.89958.1852 1.3494a.34396.34396 0 01.1323.29105c-.0794.44979-.0265.92604-.26459 1.3494l-.15875.10583z" style="fill:#131315;stroke-width:.26458"/>
  <path class="cls-565" d="m114.5 148.89c-.0794-.0529-.0529-.10583 0-.15875a.50271.50271 0 00.52917-.52916c0-.26459-.0265-.55563.26458-.74084 0 .89959 0 1.7992.0265 2.6988-.0265.29105-.0265.58209-.0529.84667a1.4288 1.4288 0 01-1.0583-.52917c.39688-.47625.0265-1.0848.29104-1.5875z" style="fill:#c4d1e0;stroke-width:.26458"/>
  <path class="cls-516" d="m114.5 148.89c0 .37042.0265.74084 0 1.1112a1.5346 1.5346 0 01-.29104.47625c.10584-.52916.18521-1.0583.29104-1.5875z" style="fill:#bccade;stroke-width:.26458"/>
 </g>
</svg>
